<svg xmlns="http://www.w3.org/2000/svg" width="70" height="70" viewBox="0 0 70 70">
    <g fill="none" fill-rule="nonzero">
        <path fill="#309AFF" d="M35.655.971c.251.23.517.453.754.718l14.08 14.074c.949.948.956 1.365 0 2.298L36.367 32.185c-.905.905-1.343.905-2.24 0L20.023 18.061c-.92-.919-.92-1.35 0-2.24L34.19 1.647c.23-.223.474-.431.718-.647l.747-.029z"/>
        <path fill="#0375EA" d="M51.23 53.906a1.712 1.712 0 0 1-.668 1.235l-7.547 7.54-6.304 6.312c-.151.15-.302.308-.46.445a1.205 1.205 0 0 1-1.91-.058c-2.305-2.298-4.595-4.603-6.908-6.9-2.449-2.427-4.904-4.84-7.353-7.267-1.026-1.02-1.026-1.573 0-2.592 1.601-1.608 3.217-3.195 4.804-4.819.359-.366.575-.344.927 0a958.473 958.473 0 0 0 8.896 8.912c.718.718.718.718 1.436 0l8.617-8.617c.61-.61.617-.61 1.214 0l4.63 4.632a1.606 1.606 0 0 1 .625 1.163M16.77 51.364c-.524.036-.84-.301-1.192-.638L4.32 39.473l-2.872-2.872c-.812-.818-.819-1.385 0-2.154 1.601-1.601 3.217-3.195 4.804-4.818.373-.388.617-.452 1.034 0a6504.53 6504.53 0 0 0 15.416 15.424c.424.416.41.718 0 1.098-1.623 1.587-3.216 3.196-4.817 4.804a1.385 1.385 0 0 1-1.07.503M53.793 51.364a1.22 1.22 0 0 1-.94-.373c-1.695-1.68-3.382-3.396-5.092-5.077-.46-.452-.121-.718.166-.998l9.8-9.801c1.832-1.831 3.677-3.64 5.487-5.5.438-.446.718-.517 1.177 0 1.573 1.63 3.196 3.217 4.797 4.818.718.718.718 1.335 0 2.096L54.899 50.812a1.443 1.443 0 0 1-1.106.567M32.718 35.438a1.281 1.281 0 0 1-.41.97c-1.665 1.665-3.339 3.317-4.982 5.026-.46.466-.718.2-1.049-.122a3899.936 3899.936 0 0 0-10.9-10.9 550.19 550.19 0 0 0-4.48-4.488c-.381-.366-.388-.618 0-.99 1.666-1.63 3.303-3.297 4.961-4.941a1.132 1.132 0 0 1 1.882 0l14.533 14.526c.265.28.517.567.46.94M37.823 35.438c-.05-.446.252-.718.546-1.02L49.808 22.98c1.012-1.013 2.025-2.033 3.044-3.038a1.128 1.128 0 0 1 .916-.474 1.117 1.117 0 0 1 .915.474c1.68 1.66 3.325 3.34 5.027 4.984.366.358.344.588 0 .94a5297.58 5297.58 0 0 0-15.488 15.481c-.41.403-.668.374-1.049 0-1.587-1.622-3.202-3.216-4.804-4.818a1.436 1.436 0 0 1-.524-1.07"/>
        <path fill="#0375EA" d="M35.274 37.973a1.387 1.387 0 0 1 1.034.495c1.652 1.644 3.296 3.303 4.955 4.94a.522.522 0 0 1 .17.675.513.513 0 0 1-.17.187l-5.744 5.744c-.316.316-.54.302-.84 0a596.875 596.875 0 0 0-5.537-5.536c-.323-.316-.301-.538 0-.84a652.21 652.21 0 0 0 5.227-5.213 1.107 1.107 0 0 1 .89-.417"/>
    </g>
</svg>
