<?xml version="1.0" standalone="no"?>
<!DOCTYPE svg PUBLIC "-//W3C//DTD SVG 1.1//EN" "http://www.w3.org/Graphics/SVG/1.1/DTD/svg11.dtd" >
<svg xmlns="http://www.w3.org/2000/svg" xmlns:xlink="http://www.w3.org/1999/xlink" version="1.1">
<metadata>
Created by FontForge 20170731 at Fri Feb 21 03:08:23 2014
 By Aleksey,,,
2005 Albert-Jan Pool published by FSI FontShop International GmbH
</metadata>
<defs>
<font id="DINPro-Light" horiz-adv-x="514" >
  <font-face 
    font-family="DIN Pro Light"
    font-weight="300"
    font-stretch="normal"
    units-per-em="1000"
    panose-1="2 11 5 4 2 1 1 1 1 2"
    ascent="800"
    descent="-200"
    x-height="482"
    cap-height="712"
    bbox="-170 -236 1174 1132"
    underline-thickness="38"
    underline-position="-217"
    unicode-range="U+000D-FEFF"
  />
<missing-glyph horiz-adv-x="559" 
d="M462 0h-365v712h365v-712zM424 38v636h-289v-636h289z" />
    <glyph glyph-name=".notdef" horiz-adv-x="559" 
d="M462 0h-365v712h365v-712zM424 38v636h-289v-636h289z" />
    <glyph glyph-name=".null" horiz-adv-x="0" 
 />
    <glyph glyph-name=".null" horiz-adv-x="0" 
 />
    <glyph glyph-name="nonmarkingreturn" horiz-adv-x="333" 
 />
    <glyph glyph-name="CR" unicode="&#xd;" horiz-adv-x="255" 
 />
    <glyph glyph-name="space" unicode=" " horiz-adv-x="255" 
 />
    <glyph glyph-name="exclam" unicode="!" horiz-adv-x="304" 
d="M194 712l-3 -520h-49l-3 520h55zM200 0h-67v67h67v-67z" />
    <glyph glyph-name="quotedbl" unicode="&#x22;" horiz-adv-x="408" 
d="M158 556h-63v156h63v-156zM313 556h-63v156h63v-156z" />
    <glyph glyph-name="numbersign" unicode="#" horiz-adv-x="639" 
d="M588 437h-100l-25 -153h96v-44h-103l-38 -240h-51l39 240h-176l-37 -240h-51l38 240h-96v44h103l25 153h-99v45h105l36 230h52l-37 -230h175l36 230h50l-36 -230h94v-45zM412 284l25 153h-175l-25 -153h175z" />
    <glyph glyph-name="dollar" unicode="$" horiz-adv-x="587" 
d="M528 191q0 -86 -58 -138.5t-160 -57.5v-109h-45v108q-68 3 -117.5 25t-96.5 69l38 38q43 -43 82.5 -61t93.5 -22v295q-91 9 -143 54q-56 48 -56 131q0 85 53 136.5t146 57.5v89h45v-89q99 -5 182 -76l-35 -35q-66 59 -147 65v-290q72 -12 103 -22.5t53 -29.5
q62 -51 62 -138zM265 671q-69 -5 -107.5 -44t-38.5 -102q0 -62 37 -93q42 -35 109 -44v283zM474 189q0 67 -39 100q-7 6 -14 11t-16 8.5t-13.5 6t-17.5 5t-17 3t-22.5 3.5t-24.5 4v-287q77 5 120.5 43t43.5 103z" />
    <glyph glyph-name="percent" unicode="%" horiz-adv-x="828" 
d="M288 480v103q0 98 -87 98q-88 0 -88 -98v-103q0 -97 88 -97q87 0 87 97zM332 478q0 -60 -36 -96.5t-95 -36.5t-95.5 36.5t-36.5 96.5v107q0 60 36.5 97t95.5 37t95 -37t36 -97v-107zM271 0h-45l332 712h45zM715 128v103q0 98 -87 98q-88 0 -88 -98v-103q0 -97 88 -97
q87 0 87 97zM759 126q0 -60 -36 -96.5t-95 -36.5t-95.5 36.5t-36.5 96.5v107q0 60 36.5 97t95.5 37t95 -37t36 -97v-107z" />
    <glyph glyph-name="ampersand" unicode="&#x26;" horiz-adv-x="746" 
d="M662 0h-69l-69 84q-90 -90 -219 -90q-98 0 -159.5 56t-61.5 147q0 39 11.5 70.5t38 59.5t49 45.5t64.5 45.5q-25 31 -38.5 49t-27 49t-13.5 60q0 60 42.5 101t102.5 41t102.5 -41.5t42.5 -101.5q0 -72 -82 -128l-53 -36l204 -247q24 36 33 73t9 104h53q0 -140 -62 -217z
M278 382q-36 -24 -55 -38.5t-42 -37.5t-33 -49t-10 -57q0 -70 46 -114t120 -44q101 0 190 79zM405 575q0 41 -26.5 68t-65.5 27t-65 -26t-26 -66q0 -28 14.5 -55t55.5 -76q41 26 60.5 40.5t36 38t16.5 49.5z" />
    <glyph glyph-name="quotesingle" unicode="'" horiz-adv-x="253" 
d="M158 556h-63v156h63v-156z" />
    <glyph glyph-name="parenleft" unicode="(" horiz-adv-x="284" 
d="M97 79v554q0 56 19 93q15 29 66 80l37 -37q-44 -44 -54 -65q-14 -27 -14 -77v-542q0 -50 14 -77q10 -21 54 -65l-37 -37q-51 51 -66 80q-19 37 -19 93z" />
    <glyph glyph-name="parenright" unicode=")" horiz-adv-x="284" 
d="M187 79q0 -56 -19 -93q-15 -29 -66 -80l-37 37q44 44 54 65q14 27 14 77v542q0 50 -14 77q-10 21 -54 65l37 37q51 -51 66 -80q19 -37 19 -93v-554z" />
    <glyph glyph-name="asterisk" unicode="*" horiz-adv-x="467" 
d="M395 476l-22 -38l-120 73l3 -141h-45l3 141l-120 -73l-22 38l123 68l-123 68l22 38l120 -73l-3 141h45l-3 -141l120 73l22 -38l-123 -68z" />
    <glyph glyph-name="plus" unicode="+" 
d="M461 240h-180v-181h-47v181h-181v47h181v180h47v-180h180v-47z" />
    <glyph glyph-name="comma" unicode="," horiz-adv-x="258" 
d="M163 -68l-68 -68v204h68v-136z" />
    <glyph glyph-name="hyphen" unicode="-" horiz-adv-x="426" 
d="M344 240h-262v47h262v-47z" />
    <glyph glyph-name="period" unicode="." horiz-adv-x="264" 
d="M169 0h-74v74h74v-74z" />
    <glyph glyph-name="slash" unicode="/" horiz-adv-x="338" 
d="M338 786l-285 -860h-53l285 860h53z" />
    <glyph glyph-name="zero" unicode="0" 
d="M444 184q0 -83 -52.5 -136.5t-134.5 -53.5t-134.5 53.5t-52.5 136.5v344q0 83 52.5 136.5t134.5 53.5t134.5 -53.5t52.5 -136.5v-344zM393 189v334q0 66 -35.5 108t-100.5 42t-100.5 -42t-35.5 -108v-334q0 -66 35.5 -108t100.5 -42t100.5 42t35.5 108z" />
    <glyph glyph-name="one" unicode="1" 
d="M313 0h-51v654l-129 -114v61l129 111h51v-712z" />
    <glyph glyph-name="two" unicode="2" 
d="M449 0h-377v45l286 375q40 51 40 111q0 65 -36.5 103.5t-100.5 38.5q-60 0 -98.5 -35.5t-38.5 -106.5h-51q0 81 51 134t137 53q85 0 136.5 -51.5t51.5 -135.5q0 -73 -49 -137l-267 -349h316v-45z" />
    <glyph glyph-name="three" unicode="3" 
d="M447 190q0 -93 -56.5 -145t-145.5 -52q-87 0 -142 45.5t-61 134.5h51q6 -68 48.5 -101.5t103.5 -33.5q65 0 108 41t43 111q0 152 -155 152h-12v45h12q141 0 141 143q0 68 -39 106t-99 38q-62 0 -98.5 -34.5t-43.5 -95.5h-51q8 82 60.5 128.5t132.5 46.5q85 0 137 -51.5
t52 -137.5q0 -119 -101 -162q115 -39 115 -178z" />
    <glyph glyph-name="four" unicode="4" 
d="M471 117h-95v-117h-51v117h-282v45l262 550h54l-262 -550h228v226h51v-226h95v-45z" />
    <glyph glyph-name="five" unicode="5" 
d="M451 233q0 -64 -10.5 -109.5t-44.5 -79.5q-51 -51 -137 -51q-91 0 -137 48q-42 42 -48 116h51q17 -119 134 -119q62 0 98 36q20 20 30 50t11.5 51.5t1.5 57.5q0 38 -5 68t-18 59.5t-41 46t-69 16.5q-49 0 -83.5 -19.5t-45.5 -55.5h-45v364h342v-45h-297v-252
q47 53 135 53q77 0 120 -43q58 -58 58 -192z" />
    <glyph glyph-name="six" unicode="6" 
d="M448 201q0 -89 -50.5 -148t-137.5 -59q-88 0 -138.5 55.5t-50.5 144.5q0 66 40 149l183 369h51l-164 -329q37 17 83 17q85 0 134.5 -56.5t49.5 -142.5zM397 197q0 67 -36.5 112.5t-101.5 45.5q-63 0 -100 -43t-37 -115t37 -115t100 -43t100.5 43t37.5 115z" />
    <glyph glyph-name="seven" unicode="7" 
d="M459 667l-252 -667h-52l252 667h-270v-112h-51v157h373v-45z" />
    <glyph glyph-name="eight" unicode="8" 
d="M460 192q0 -85 -58 -141.5t-145 -56.5t-145 56.5t-58 141.5q0 118 113 178q-98 54 -98 162q0 79 53 132.5t135 53.5t135 -53.5t53 -132.5q0 -110 -97 -162q112 -59 112 -178zM409 192q0 65 -44 109.5t-108 44.5t-108 -44.5t-44 -109.5q0 -66 43.5 -109.5t108.5 -43.5
t108.5 43.5t43.5 109.5zM394 532q0 62 -38 101.5t-99 39.5t-99 -39.5t-38 -101.5t38 -101.5t99 -39.5t99 39.5t38 101.5z" />
    <glyph glyph-name="nine" unicode="9" 
d="M443 518q0 -66 -40 -149l-183 -369h-51l164 329q-37 -17 -84 -17q-85 0 -134 56.5t-49 142.5q0 89 50.5 148t137.5 59q88 0 138.5 -55.5t50.5 -144.5zM392 515q0 72 -37.5 115t-100.5 43t-100 -43t-37 -115q0 -67 36 -112.5t101 -45.5q63 0 100.5 43t37.5 115z" />
    <glyph glyph-name="colon" unicode=":" horiz-adv-x="292" 
d="M197 0h-74v74h74v-74zM197 312h-74v74h74v-74z" />
    <glyph glyph-name="semicolon" unicode=";" horiz-adv-x="292" 
d="M193 -68l-68 -68v204h68v-136zM197 312h-74v74h74v-74z" />
    <glyph glyph-name="less" unicode="&#x3c;" 
d="M409 78l-304 161v48l304 161v-55l-254 -130l254 -130v-55z" />
    <glyph glyph-name="equal" unicode="=" 
d="M461 163h-408v47h408v-47zM461 316h-408v47h408v-47z" />
    <glyph glyph-name="greater" unicode="&#x3e;" 
d="M409 239l-304 -161v55l254 130l-254 130v55l304 -161v-48z" />
    <glyph glyph-name="question" unicode="?" horiz-adv-x="488" 
d="M438 542q0 -55 -44 -119l-85 -125q-18 -26 -18 -60v-47h-51v45q0 48 29 90l84 124q13 19 18.5 29.5t10.5 27.5t5 35q0 56 -36.5 93.5t-91.5 37.5q-57 0 -92.5 -38.5t-35.5 -92.5h-51q0 74 50 125t129 51q76 0 127.5 -50.5t51.5 -125.5zM299 0h-67v67h67v-67z" />
    <glyph glyph-name="at" unicode="@" horiz-adv-x="697" 
d="M620 0h-51v59q-48 -66 -139 -66q-89 0 -139 65q-43 58 -43 183t39 181q45 67 142 67q89 0 140 -68v89q0 43 -9 69.5t-32 49.5q-42 42 -114 42h-132q-71 0 -113 -42q-23 -23 -32 -49t-9 -70v-353q0 -51 12 -76t50 -53l-35 -35q-46 32 -62 65.5t-16 98.5v350q0 94 55 151
q52 54 141 54h150q87 0 141 -54q56 -56 56 -151v-507zM569 241q0 43 -4.5 74t-17.5 63t-41.5 49t-71.5 17t-71.5 -17t-41.5 -49t-17.5 -63t-4.5 -74t4.5 -74t17.5 -63t41.5 -49t71.5 -17t71.5 17t41.5 49t17.5 63t4.5 74z" />
    <glyph glyph-name="A" unicode="A" horiz-adv-x="602" 
d="M587 0h-58l-62 173h-332l-62 -173h-58l262 712h48zM301 640l-149 -419h298z" />
    <glyph glyph-name="B" unicode="B" horiz-adv-x="671" 
d="M589 194q0 -93 -56.5 -143.5t-152.5 -50.5h-270v712h262q91 0 148.5 -50t57.5 -136q0 -57 -29.5 -100t-81.5 -60q58 -20 90 -65t32 -107zM535 194q0 68 -43.5 107t-117.5 39h-210v-292h210q74 0 117.5 39t43.5 107zM524 526q0 70 -44 104t-114 34h-202v-276h202
q70 0 114 34t44 104z" />
    <glyph glyph-name="C" unicode="C" horiz-adv-x="644" 
d="M568 202q-18 -96 -83 -152t-159 -56q-105 0 -173 68q-47 47 -59 101.5t-12 192.5t12 192.5t59 101.5q68 68 173 68q95 0 159.5 -55.5t82.5 -152.5h-55q-16 74 -65.5 117t-121.5 43q-80 0 -135 -55q-36 -36 -45.5 -86.5t-9.5 -172.5t9.5 -172.5t45.5 -86.5q55 -55 135 -55
q72 0 122.5 43t66.5 117h53z" />
    <glyph glyph-name="D" unicode="D" horiz-adv-x="678" 
d="M596 356q0 -70 -2.5 -110.5t-18.5 -94.5t-48 -86q-65 -65 -178 -65h-239v712h239q113 0 178 -65q32 -32 48 -86t18.5 -94.5t2.5 -110.5zM542 356q0 64 -1.5 98.5t-14 81.5t-37.5 73q-52 55 -153 55h-172v-616h172q101 0 153 55q25 26 37.5 73t14 81.5t1.5 98.5z" />
    <glyph glyph-name="E" unicode="E" horiz-adv-x="598" 
d="M542 0h-432v712h432v-48h-378v-281h322v-48h-322v-287h378v-48z" />
    <glyph glyph-name="F" unicode="F" horiz-adv-x="576" 
d="M542 664h-378v-293h322v-48h-322v-323h-54v712h432v-48z" />
    <glyph glyph-name="G" unicode="G" horiz-adv-x="651" 
d="M571 248q0 -107 -58 -172q-74 -82 -187 -82q-105 0 -173 68q-47 47 -59 101.5t-12 192.5t12 192.5t59 101.5q68 68 173 68q93 0 160 -57t83 -151h-54q-16 74 -66.5 117t-122.5 43q-80 0 -135 -55q-36 -36 -45.5 -86.5t-9.5 -172.5t9.5 -172.5t45.5 -86.5q55 -55 135 -55
q91 0 148 69q43 54 43 141v64h-191v48h245v-116z" />
    <glyph glyph-name="H" unicode="H" horiz-adv-x="699" 
d="M589 0h-54v335h-371v-335h-54v712h54v-329h371v329h54v-712z" />
    <glyph glyph-name="I" unicode="I" horiz-adv-x="274" 
d="M164 0h-54v712h54v-712z" />
    <glyph glyph-name="J" unicode="J" horiz-adv-x="498" 
d="M398 210q0 -98 -58 -157t-154 -59q-95 0 -156 61l37 37q25 -25 50.5 -37.5t68.5 -12.5q77 0 117.5 46t40.5 133v491h54v-502z" />
    <glyph glyph-name="K" unicode="K" horiz-adv-x="645" 
d="M627 0h-64l-229 399l-170 -206v-193h-54v712h54v-445l361 445h65l-220 -272z" />
    <glyph glyph-name="L" unicode="L" horiz-adv-x="572" 
d="M542 0h-432v712h54v-664h378v-48z" />
    <glyph glyph-name="M" unicode="M" horiz-adv-x="818" 
d="M708 0h-54v587l-216 -487h-54l-220 487v-587h-54v712h54l248 -549l242 549h54v-712z" />
    <glyph glyph-name="N" unicode="N" horiz-adv-x="739" 
d="M629 0h-54l-411 619v-619h-54v712h54l411 -617v617h54v-712z" />
    <glyph glyph-name="O" unicode="O" horiz-adv-x="652" 
d="M570 356q0 -138 -12 -192.5t-59 -101.5q-68 -68 -173 -68t-173 68q-47 47 -59 101.5t-12 192.5t12 192.5t59 101.5q68 68 173 68t173 -68q47 -47 59 -101.5t12 -192.5zM516 356q0 122 -9.5 172.5t-45.5 86.5q-55 55 -135 55t-135 -55q-36 -36 -45.5 -86.5t-9.5 -172.5
t9.5 -172.5t45.5 -86.5q55 -55 135 -55t135 55q36 36 45.5 86.5t9.5 172.5z" />
    <glyph glyph-name="P" unicode="P" horiz-adv-x="631" 
d="M586 507q0 -95 -60 -150t-155 -55h-207v-302h-54v712h261q95 0 155 -55t60 -150zM532 507q0 78 -45 117.5t-122 39.5h-201v-314h201q77 0 122 39.5t45 117.5z" />
    <glyph glyph-name="Q" unicode="Q" horiz-adv-x="651" 
d="M570 356q0 -124 -9 -177.5t-42 -94.5l84 -84l-36 -36l-84 83q-64 -53 -157 -53q-105 0 -173 68q-47 47 -59 101.5t-12 192.5t12 192.5t59 101.5q68 68 173 68t173 -68q47 -47 59 -101.5t12 -192.5zM516 356q0 122 -9.5 172.5t-45.5 86.5q-55 55 -135 55t-135 -55
q-36 -36 -45.5 -86.5t-9.5 -172.5t9.5 -172.5t45.5 -86.5q55 -55 135 -55q70 0 121 42l-100 100l36 36l98 -99q23 33 29 81.5t6 153.5z" />
    <glyph glyph-name="R" unicode="R" horiz-adv-x="657" 
d="M593 0h-63l-170 328h-196v-328h-54v712h271q90 0 147 -50.5t57 -140.5q0 -79 -44 -129t-120 -63zM531 520q0 72 -42.5 108t-114.5 36h-210v-288h210q72 0 114.5 36t42.5 108z" />
    <glyph glyph-name="S" unicode="S" horiz-adv-x="587" 
d="M528 191q0 -90 -64.5 -143.5t-175.5 -53.5q-78 0 -132.5 22t-104.5 72l38 38q47 -47 92 -65.5t110 -18.5q85 0 134 39t49 108q0 67 -39 100q-18 16 -38.5 23.5t-64.5 14.5l-83 13q-82 12 -127 51q-56 47 -56 132q0 90 59.5 142.5t161.5 52.5q64 0 111 -18t94 -59l-35 -35
q-69 66 -173 66q-78 0 -121.5 -39t-43.5 -108q0 -64 36 -94q37 -31 102 -41l83 -13q49 -7 75.5 -17.5t51.5 -31.5q61 -53 61 -137z" />
    <glyph glyph-name="T" unicode="T" horiz-adv-x="539" 
d="M509 664h-213v-664h-54v664h-212v48h479v-48z" />
    <glyph glyph-name="U" unicode="U" horiz-adv-x="688" 
d="M588 231q0 -104 -68.5 -170.5t-175.5 -66.5t-175.5 66.5t-68.5 170.5v481h54v-474q0 -89 52 -142.5t138 -53.5t138 53.5t52 142.5v474h54v-481z" />
    <glyph glyph-name="V" unicode="V" horiz-adv-x="534" 
d="M524 712l-234 -712h-46l-234 712h57l200 -617l200 617h57z" />
    <glyph glyph-name="W" unicode="W" horiz-adv-x="842" 
d="M822 712l-178 -712h-55l-168 620l-168 -620h-55l-178 712h57l150 -619l166 619h56l166 -619l150 619h57z" />
    <glyph glyph-name="X" unicode="X" horiz-adv-x="532" 
d="M514 0h-63l-186 317l-186 -317h-61l218 365l-204 347h63l170 -299l171 299h62l-204 -347z" />
    <glyph glyph-name="Y" unicode="Y" horiz-adv-x="494" 
d="M484 712l-210 -417v-295h-54v295l-210 417h58l181 -360l177 360h58z" />
    <glyph glyph-name="Z" unicode="Z" horiz-adv-x="559" 
d="M496 0h-433v57l375 607h-360v48h418v-48l-378 -616h378v-48z" />
    <glyph glyph-name="bracketleft" unicode="[" horiz-adv-x="290" 
d="M245 -74h-148v860h148v-45h-97v-770h97v-45z" />
    <glyph glyph-name="backslash" unicode="\" horiz-adv-x="338" 
d="M338 -74h-53l-285 860h53z" />
    <glyph glyph-name="bracketright" unicode="]" horiz-adv-x="293" 
d="M196 -74h-151v42h100v776h-100v42h151v-860z" />
    <glyph glyph-name="asciicircum" unicode="^" 
d="M438 422h-51l-130 242l-130 -242h-51l158 296h46z" />
    <glyph glyph-name="underscore" unicode="_" 
d="M514 -160h-514v38h514v-38z" />
    <glyph glyph-name="grave" unicode="`" horiz-adv-x="500" 
d="M297 590h-58l-106 147h67z" />
    <glyph glyph-name="a" unicode="a" horiz-adv-x="524" 
d="M431 0h-51v48q-30 -30 -62.5 -42t-84.5 -12q-99 0 -142 44q-35 35 -35 94q0 66 44.5 102.5t123.5 36.5h156v54q0 59 -32 88.5t-104 29.5q-50 0 -79.5 -14t-53.5 -47l-37 32q30 41 69.5 57.5t100.5 16.5q187 0 187 -158v-330zM380 168v62h-150q-123 0 -123 -97
q0 -48 30 -71t96 -23q81 0 120 37q27 26 27 92z" />
    <glyph glyph-name="b" unicode="b" horiz-adv-x="540" 
d="M471 241q0 -143 -62 -205q-42 -42 -118 -42q-45 0 -79 14.5t-64 53.5v-62h-51v712h51v-292q30 39 64 53.5t79 14.5q76 0 118 -42q62 -62 62 -205zM420 241q0 43 -5 75t-18.5 63t-42 47.5t-70.5 16.5t-70.5 -16.5t-42 -47.5t-18.5 -63t-5 -75t5 -75t18.5 -63t42 -47.5
t70.5 -16.5t70.5 16.5t42 47.5t18.5 63t5 75z" />
    <glyph glyph-name="c" unicode="c" horiz-adv-x="493" 
d="M440 68q-37 -42 -72.5 -58t-86.5 -16q-99 0 -155.5 66t-56.5 181t56.5 181t155.5 66q51 0 86.5 -16t72.5 -58l-35 -32q-31 34 -58 47.5t-66 13.5q-85 0 -128 -64q-33 -48 -33 -138t33 -138q43 -64 128 -64q38 0 65.5 13.5t58.5 47.5z" />
    <glyph glyph-name="d" unicode="d" horiz-adv-x="540" 
d="M443 0h-51v62q-30 -39 -64 -53.5t-79 -14.5q-76 0 -118 42q-62 62 -62 205t62 205q42 42 118 42q45 0 79 -14.5t64 -53.5v292h51v-712zM392 241q0 43 -5 75t-18.5 63t-42 47.5t-70.5 16.5t-70.5 -16.5t-42 -47.5t-18.5 -63t-5 -75t5 -75t18.5 -63t42 -47.5t70.5 -16.5
t70.5 16.5t42 47.5t18.5 63t5 75z" />
    <glyph glyph-name="e" unicode="e" horiz-adv-x="523" 
d="M455 230h-335q0 -93 40 -141.5t117 -48.5q42 0 72 13.5t61 44.5l38 -30q-39 -39 -78 -56.5t-96 -17.5q-100 0 -152.5 63t-52.5 184q0 117 51 182t142 65t142 -62t51 -173v-23zM404 271q-4 62 -17 91q-16 38 -49.5 59.5t-75.5 21.5t-75 -21.5t-50 -59.5q-13 -29 -17 -91
h284z" />
    <glyph glyph-name="f" unicode="f" horiz-adv-x="304" 
d="M272 444h-109v-444h-51v444h-66v38h66v104q0 57 30.5 91.5t85.5 34.5h44v-45h-35q-74 0 -74 -80v-105h109v-38z" />
    <glyph glyph-name="g" unicode="g" horiz-adv-x="540" 
d="M443 -27q0 -93 -52.5 -151t-144.5 -58q-52 0 -86 14.5t-73 49.5l34 34q32 -29 57 -41t68 -12q73 0 109.5 45.5t36.5 121.5v86q-30 -39 -64 -53.5t-79 -14.5q-76 0 -118 42q-62 62 -62 205t62 205q42 42 118 42q45 0 79 -14.5t64 -53.5v62h51v-509zM392 241q0 43 -5 75
t-18.5 63t-42 47.5t-70.5 16.5t-70.5 -16.5t-42 -47.5t-18.5 -63t-5 -75t5 -75t18.5 -63t42 -47.5t70.5 -16.5t70.5 16.5t42 47.5t18.5 63t5 75z" />
    <glyph glyph-name="h" unicode="h" horiz-adv-x="559" 
d="M468 0h-51v299q0 70 -34 107t-99 37t-100.5 -37t-35.5 -107v-299h-51v712h51v-287q54 63 142 63q83 0 130.5 -48t47.5 -132v-308z" />
    <glyph glyph-name="i" unicode="i" horiz-adv-x="245" 
d="M148 0h-51v482h51v-482zM154 649h-63v63h63v-63z" />
    <glyph glyph-name="j" unicode="j" horiz-adv-x="245" 
d="M148 -105q0 -59 -29 -92t-87 -33h-44v45h35q41 0 57.5 19t16.5 62v586h51v-587zM154 649h-63v63h63v-63z" />
    <glyph glyph-name="k" unicode="k" horiz-adv-x="527" 
d="M487 0h-63l-166 265l-110 -127v-138h-51v712h51v-502l239 272h65l-159 -180z" />
    <glyph glyph-name="l" unicode="l" horiz-adv-x="287" 
d="M255 0h-44q-58 0 -87 33t-29 92v587h51v-586q0 -43 16.5 -62t57.5 -19h35v-45z" />
    <glyph glyph-name="m" unicode="m" horiz-adv-x="878" 
d="M788 0h-51v299q0 70 -34 107t-99 37q-63 0 -99.5 -36.5t-36.5 -98.5v-308h-51v299q0 70 -34 107t-99 37t-100.5 -37.5t-35.5 -106.5v-299h-51v482h51v-57q54 63 143 63q110 0 155 -88q56 88 164 88q78 0 127 -46q51 -49 51 -134v-308z" />
    <glyph glyph-name="n" unicode="n" horiz-adv-x="559" 
d="M468 0h-51v299q0 70 -34 107t-99 37t-100.5 -37.5t-35.5 -106.5v-299h-51v482h51v-57q54 63 142 63q81 0 128 -46q50 -48 50 -134v-308z" />
    <glyph glyph-name="o" unicode="o" horiz-adv-x="526" 
d="M457 241q0 -134 -60 -194q-53 -53 -134 -53t-134 53q-60 60 -60 194t60 194q53 53 134 53t134 -53q60 -60 60 -194zM406 241q0 118 -43 161q-41 41 -100 41t-100 -41q-43 -43 -43 -161t43 -161q41 -41 100 -41t100 41q43 43 43 161z" />
    <glyph glyph-name="p" unicode="p" horiz-adv-x="540" 
d="M471 241q0 -143 -62 -205q-42 -42 -118 -42q-45 0 -79 14.5t-64 53.5v-292h-51v712h51v-62q30 39 64 53.5t79 14.5q76 0 118 -42q62 -62 62 -205zM420 241q0 43 -5 75t-18.5 63t-42 47.5t-70.5 16.5t-70.5 -16.5t-42 -47.5t-18.5 -63t-5 -75t5 -75t18.5 -63t42 -47.5
t70.5 -16.5t70.5 16.5t42 47.5t18.5 63t5 75z" />
    <glyph glyph-name="q" unicode="q" horiz-adv-x="540" 
d="M443 -230h-51v292q-30 -39 -64 -53.5t-79 -14.5q-76 0 -118 42q-62 62 -62 205t62 205q42 42 118 42q45 0 79 -14.5t64 -53.5v62h51v-712zM392 241q0 43 -5 75t-18.5 63t-42 47.5t-70.5 16.5t-70.5 -16.5t-42 -47.5t-18.5 -63t-5 -75t5 -75t18.5 -63t42 -47.5t70.5 -16.5
t70.5 16.5t42 47.5t18.5 63t5 75z" />
    <glyph glyph-name="r" unicode="r" horiz-adv-x="409" 
d="M368 405q-22 22 -41.5 30t-49.5 8q-60 0 -94.5 -42.5t-34.5 -103.5v-297h-51v482h51v-64q21 33 59 51.5t82 18.5q70 0 116 -46z" />
    <glyph glyph-name="s" unicode="s" horiz-adv-x="494" 
d="M438 137q0 -66 -52 -104.5t-141 -38.5q-123 0 -195 69l35 35q56 -59 158 -59q145 0 145 98q0 38 -22 57t-70 24l-80 7q-145 12 -145 126q0 63 47 100t126 37q100 0 169 -51l-34 -34q-56 41 -135 41q-60 0 -91.5 -24t-31.5 -69q0 -38 23.5 -57t74.5 -24l78 -7
q68 -7 104.5 -34t36.5 -92z" />
    <glyph glyph-name="t" unicode="t" horiz-adv-x="325" 
d="M269 0h-44q-55 0 -85.5 34.5t-30.5 91.5v318h-66v38h66v154h51v-154h109v-38h-109v-319q0 -80 74 -80h35v-45z" />
    <glyph glyph-name="u" unicode="u" horiz-adv-x="559" 
d="M462 0h-51v57q-54 -63 -142 -63q-81 0 -128 46q-50 48 -50 134v308h51v-299q0 -70 34 -107t99 -37t100.5 37.5t35.5 106.5v299h51v-482z" />
    <glyph glyph-name="v" unicode="v" horiz-adv-x="430" 
d="M416 482l-176 -482h-50l-176 482h56l145 -422l145 422h56z" />
    <glyph glyph-name="w" unicode="w" horiz-adv-x="712" 
d="M698 482l-154 -482h-52l-136 402l-136 -402h-52l-154 482h56l123 -422l138 422h50l138 -422l123 422h56z" />
    <glyph glyph-name="x" unicode="x" horiz-adv-x="460" 
d="M420 0h-62l-127 203l-129 -203h-62l163 246l-156 236h62l122 -194l120 194h62l-156 -236z" />
    <glyph glyph-name="y" unicode="y" horiz-adv-x="430" 
d="M416 482l-224 -613q-14 -40 -33 -56q-32 -31 -91 -31h-24v45h19q40 0 57.5 14t30.5 52l39 107l-176 482h56l145 -422l145 422h56z" />
    <glyph glyph-name="z" unicode="z" horiz-adv-x="452" 
d="M398 0h-344v48l290 389h-274v45h328v-48l-291 -389h291v-45z" />
    <glyph glyph-name="braceleft" unicode="{" horiz-adv-x="316" 
d="M266 -74h-14q-70 0 -97 27q-26 26 -26 95v207q0 42 -18 60q-19 19 -43 19h-18v44h18q24 0 43 19q18 18 18 60v207q0 69 26 95q27 27 97 27h14v-45h-13q-46 0 -59 -13q-14 -14 -14 -65v-207q0 -39 -14 -61.5t-47 -38.5q33 -16 47 -38.5t14 -61.5v-207q0 -51 14 -65
q13 -13 59 -13h13v-45z" />
    <glyph glyph-name="bar" unicode="|" horiz-adv-x="317" 
d="M184 -74h-51v860h51v-860z" />
    <glyph glyph-name="braceright" unicode="}" horiz-adv-x="316" 
d="M266 334h-18q-24 0 -43 -19q-18 -18 -18 -60v-207q0 -69 -26 -95q-27 -27 -97 -27h-14v45h13q46 0 59 13q14 14 14 65v207q0 39 14 61.5t47 38.5q-33 16 -47 38.5t-14 61.5v207q0 51 -14 65q-13 13 -59 13h-13v45h14q70 0 97 -27q26 -26 26 -95v-207q0 -42 18 -60
q19 -19 43 -19h18v-44z" />
    <glyph glyph-name="asciitilde" unicode="~" 
d="M461 277q-39 -39 -62 -50.5t-54 -11.5q-28 0 -102 31q-54 23 -76 23t-38 -8t-45 -37l-31 31q39 39 62 50.5t54 11.5q28 0 102 -31q54 -23 76 -23q23 0 38.5 8t44.5 37z" />
    <glyph glyph-name="uni00A0" unicode="&#xa0;" horiz-adv-x="255" 
 />
    <glyph glyph-name="exclamdown" unicode="&#xa1;" horiz-adv-x="304" 
d="M165 -230h-55l3 520h49zM171 415h-67v67h67v-67z" />
    <glyph glyph-name="cent" unicode="&#xa2;" horiz-adv-x="498" 
d="M440 193q-36 -40 -68.5 -56t-79.5 -18v-119h-43v121q-85 11 -132.5 75.5t-47.5 169.5t47.5 169.5t132.5 75.5v101h43v-99q47 -2 79.5 -18t68.5 -56l-35 -32q-29 32 -54 45.5t-59 15.5v-404q34 2 59 15.5t54 45.5zM249 565q-61 -10 -96 -61q-33 -48 -33 -138t33 -138
q35 -51 96 -61v398z" />
    <glyph glyph-name="sterling" unicode="&#xa3;" horiz-adv-x="537" 
d="M482 0h-368v342h-64v38h64v122q0 98 58 157t154 59q95 0 156 -61l-37 -37q-25 25 -50.5 37.5t-68.5 12.5q-77 0 -117.5 -46t-40.5 -133v-111h158v-38h-158v-294h314v-48z" />
    <glyph glyph-name="currency" unicode="&#xa4;" horiz-adv-x="657" 
d="M545 265q0 -81 -47 -137l74 -74l-32 -32l-75 74q-57 -48 -137 -48t-137 48l-74 -74l-32 32l74 74q-48 57 -48 137q0 81 48 138l-74 73l32 32l74 -73q56 47 137 47t137 -47l75 73l32 -32l-74 -73q47 -56 47 -138zM497 265q0 71 -49.5 120t-119.5 49t-119.5 -49t-49.5 -120
t49.5 -120t119.5 -49t119.5 49t49.5 120z" />
    <glyph glyph-name="yen" unicode="&#xa5;" horiz-adv-x="493" 
d="M483 712l-163 -326h108v-38h-127l-27 -53v-53h154v-38h-154v-204h-54v204h-155v38h155v53l-27 53h-128v38h109l-164 326h57l181 -361l179 361h56z" />
    <glyph glyph-name="brokenbar" unicode="&#xa6;" horiz-adv-x="328" 
d="M184 -74h-51v350h51v-350zM184 436h-51v350h51v-350z" />
    <glyph glyph-name="section" unicode="&#xa7;" horiz-adv-x="566" 
d="M469 247q0 -60 -31 -104t-79 -66q48 -16 75.5 -54.5t27.5 -91.5q0 -73 -50 -120t-129 -47q-77 0 -127.5 41t-56.5 114h54q10 -107 130 -107q58 0 91.5 31t33.5 88q0 40 -25.5 70t-68.5 42l-83 23q-63 18 -98.5 66.5t-35.5 114.5q0 60 31 104t79 66q-99 42 -99 141
q0 73 50.5 116.5t124.5 43.5q73 0 123.5 -40.5t54.5 -110.5h-53q-10 104 -125 104q-58 0 -90 -28.5t-32 -84.5q0 -81 91 -107l83 -23q62 -18 98 -67t36 -114zM415 247q0 66 -35 101q-41 41 -97 41q-59 0 -97 -41q-35 -38 -35 -101q0 -64 35 -101q38 -41 97 -41t97 41
q35 38 35 101z" />
    <glyph glyph-name="dieresis" unicode="&#xa8;" horiz-adv-x="500" 
d="M175 600h-58v77h58v-77zM383 600h-58v77h58v-77z" />
    <glyph glyph-name="copyright" unicode="&#xa9;" horiz-adv-x="894" 
d="M809 356q0 -150 -106 -256t-256 -106t-256 106t-106 256t106 256t256 106t256 -106t106 -256zM761 356q0 129 -92.5 223.5t-221.5 94.5t-221.5 -94.5t-92.5 -223.5t92.5 -223.5t221.5 -94.5t221.5 94.5t92.5 223.5zM582 202q-58 -52 -131 -52q-87 0 -132 58t-45 148
t45 148.5t132 58.5q41 0 70 -12t61 -41l-30 -30q-47 42 -101 42q-70 0 -101 -46t-31 -120q0 -165 132 -165q55 0 101 41z" />
    <glyph glyph-name="ordfeminine" unicode="&#xaa;" horiz-adv-x="447" 
d="M356 327h-43v36q-42 -41 -114 -41q-80 0 -112 35q-28 28 -28 75q0 53 35 82t98 29h121v42q0 46 -24.5 68.5t-80.5 22.5q-40 0 -63 -10.5t-41 -37.5l-32 27q25 34 56.5 47t79.5 13q148 0 148 -126v-262zM313 461v47h-116q-95 0 -95 -75q0 -37 23 -54.5t74 -17.5
q64 0 94 28q20 20 20 72z" />
    <glyph glyph-name="guillemotleft" unicode="&#xab;" horiz-adv-x="527" 
d="M238 69l-196 196l196 196v-66l-130 -130l130 -130v-66zM445 69l-196 196l196 196v-66l-130 -130l130 -130v-66z" />
    <glyph glyph-name="logicalnot" unicode="&#xac;" 
d="M461 107h-47v133h-361v47h408v-180z" />
    <glyph glyph-name="uni00AD" unicode="&#xad;" horiz-adv-x="426" 
d="M344 240h-262v47h262v-47z" />
    <glyph glyph-name="registered" unicode="&#xae;" horiz-adv-x="894" 
d="M809 356q0 -150 -106 -256t-256 -106t-256 106t-106 256t106 256t256 106t256 -106t106 -256zM762 356q0 130 -93 224.5t-222 94.5t-222 -94.5t-93 -224.5t93 -224.5t222 -94.5t222 94.5t93 224.5zM543 156l-99 167h-66v-167h-45v401h128q51 0 87.5 -34t36.5 -84
q0 -86 -91 -112l101 -171h-52zM540 439q0 33 -24 55t-60 22h-78v-153h78q36 0 60 21.5t24 54.5z" />
    <glyph glyph-name="macron" unicode="&#xaf;" horiz-adv-x="500" 
d="M398 610h-296v46h296v-46z" />
    <glyph glyph-name="degree" unicode="&#xb0;" horiz-adv-x="458" 
d="M386 562q0 -65 -46 -111t-111 -46t-111 46t-46 111t46 111t111 46t111 -46t46 -111zM341 562q0 48 -32.5 81.5t-80.5 33.5t-79.5 -32.5t-31.5 -82.5t32 -82.5t80 -32.5t80 32.5t32 82.5z" />
    <glyph glyph-name="plusminus" unicode="&#xb1;" 
d="M461 270h-180v-182h-47v182h-181v47h181v181h47v-181h180v-47zM461 0h-408v47h408v-47z" />
    <glyph glyph-name="twosuperior" unicode="&#xb2;" horiz-adv-x="313" 
d="M280 285h-236v40l168 213q23 31 23 62q0 36 -19 56t-54 20q-32 0 -53 -18.5t-21 -57.5h-44q0 52 32 84t86 32t86 -31t32 -85q0 -43 -34 -87l-149 -188h183v-40z" />
    <glyph glyph-name="threesuperior" unicode="&#xb3;" horiz-adv-x="313" 
d="M282 403q0 -57 -35 -89.5t-90 -32.5q-54 0 -89.5 29.5t-37.5 84.5h45q2 -37 25 -55.5t57 -18.5q35 0 58 22.5t23 59.5q0 81 -84 81h-8v39h8q37 0 56.5 20t19.5 56t-21.5 56.5t-52.5 20.5q-33 0 -53 -18.5t-23 -51.5h-44q4 51 37 80.5t83 29.5q53 0 85.5 -31.5t32.5 -84.5
q0 -68 -57 -94q65 -24 65 -103z" />
    <glyph glyph-name="acute" unicode="&#xb4;" horiz-adv-x="500" 
d="M367 737l-106 -147h-58l97 147h67z" />
    <glyph glyph-name="mu" unicode="&#xb5;" horiz-adv-x="556" 
d="M459 0h-51v57q-54 -63 -142 -63q-79 0 -127 45v-269h-51v712h51v-299q0 -70 34 -107t99 -37t100.5 37.5t35.5 106.5v299h51v-482z" />
    <glyph glyph-name="paragraph" unicode="&#xb6;" horiz-adv-x="579" 
d="M469 -230h-51v894h-123v-894h-51v562q-91 0 -145 57.5t-54 132.5q0 78 56.5 134t154.5 56h213v-942z" />
    <glyph glyph-name="periodcentered" unicode="&#xb7;" horiz-adv-x="264" 
d="M169 227h-74v74h74v-74z" />
    <glyph glyph-name="cedilla" unicode="&#xb8;" horiz-adv-x="500" 
d="M308 -70l-64 -150h-63l72 150h55z" />
    <glyph glyph-name="onesuperior" unicode="&#xb9;" horiz-adv-x="313" 
d="M196 285h-44v378l-80 -71v51l80 69h44v-427z" />
    <glyph glyph-name="ordmasculine" unicode="&#xba;" horiz-adv-x="452" 
d="M380 519q0 -106 -48 -154q-42 -42 -106 -42t-106 42q-48 48 -48 154t48 154q42 42 106 42t106 -42q48 -48 48 -154zM337 519q0 92 -33 125q-32 32 -78 32t-78 -32q-33 -33 -33 -125t33 -125q32 -32 78 -32t78 32q33 33 33 125z" />
    <glyph glyph-name="guillemotright" unicode="&#xbb;" horiz-adv-x="527" 
d="M278 265l-196 -196v66l130 130l-130 130v66zM485 265l-196 -196v66l130 130l-130 130v66z" />
    <glyph glyph-name="onequarter" unicode="&#xbc;" horiz-adv-x="803" 
d="M196 285h-44v378l-80 -71v51l80 69h44v-427zM590 712l-332 -712h-45l332 712h45zM780 67h-52v-67h-44v67h-170v40l154 320h47l-153 -320h122v120h44v-120h52v-40z" />
    <glyph glyph-name="onehalf" unicode="&#xbd;" horiz-adv-x="803" 
d="M196 285h-44v378l-80 -71v51l80 69h44v-427zM590 712l-332 -712h-45l332 712h45zM770 0h-236v40l168 213q23 31 23 62q0 36 -19 56t-54 20q-32 0 -53 -18.5t-21 -57.5h-44q0 51 32 83.5t86 32.5t86 -31t32 -85q0 -43 -34 -87l-149 -188h183v-40z" />
    <glyph glyph-name="threequarters" unicode="&#xbe;" horiz-adv-x="803" 
d="M282 403q0 -57 -35 -89.5t-90 -32.5q-54 0 -89.5 29.5t-37.5 84.5h45q2 -37 25 -55.5t57 -18.5q35 0 58 22.5t23 59.5q0 81 -84 81h-8v39h8q37 0 56.5 20t19.5 56t-21.5 56.5t-52.5 20.5q-33 0 -53 -18.5t-23 -51.5h-44q4 51 37 80.5t83 29.5q53 0 85.5 -31.5t32.5 -84.5
q0 -68 -57 -94q65 -24 65 -103zM590 712l-332 -712h-45l332 712h45zM780 67h-52v-67h-44v67h-170v40l154 320h47l-153 -320h122v120h44v-120h52v-40z" />
    <glyph glyph-name="questiondown" unicode="&#xbf;" horiz-adv-x="488" 
d="M408 -60q0 -74 -50 -125t-129 -51q-76 0 -127.5 50.5t-51.5 125.5q0 55 44 119l85 125q18 26 18 60v47h51v-45q0 -48 -29 -90l-84 -124q-13 -19 -18.5 -29.5t-10.5 -27.5t-5 -35q0 -56 36.5 -93.5t91.5 -37.5q57 0 92.5 38.5t35.5 92.5h51zM256 415h-67v67h67v-67z" />
    <glyph glyph-name="Agrave" unicode="&#xc0;" horiz-adv-x="602" 
d="M587 0h-58l-62 173h-332l-62 -173h-58l262 712h48zM301 640l-149 -419h298zM348 780h-58l-106 147h67z" />
    <glyph glyph-name="Aacute" unicode="&#xc1;" horiz-adv-x="602" 
d="M587 0h-58l-62 173h-332l-62 -173h-58l262 712h48zM301 640l-149 -419h298zM418 927l-106 -147h-58l97 147h67z" />
    <glyph glyph-name="Acircumflex" unicode="&#xc2;" horiz-adv-x="602" 
d="M587 0h-58l-62 173h-332l-62 -173h-58l262 712h48zM301 640l-149 -419h298zM451 780h-57l-93 109l-93 -109h-57l123 147h54z" />
    <glyph glyph-name="Atilde" unicode="&#xc3;" horiz-adv-x="602" 
d="M587 0h-58l-62 173h-332l-62 -173h-58l262 712h48zM301 640l-149 -419h298zM450 843q-48 -48 -89 -48q-28 0 -69 24q-36 21 -56 21q-26 0 -59 -33l-30 29q48 48 89 48q31 0 69 -24q34 -21 56 -21q26 0 59 33z" />
    <glyph glyph-name="Adieresis" unicode="&#xc4;" horiz-adv-x="602" 
d="M587 0h-58l-62 173h-332l-62 -173h-58l262 712h48zM301 640l-149 -419h298zM226 790h-58v77h58v-77zM434 790h-58v77h58v-77z" />
    <glyph glyph-name="Aring" unicode="&#xc5;" horiz-adv-x="602" 
d="M587 0h-58l-62 173h-332l-62 -173h-58l262 712h48zM301 640l-149 -419h298zM415 861q0 -47 -33.5 -81t-80.5 -34t-80.5 34t-33.5 81t33.5 80.5t80.5 33.5t80.5 -33.5t33.5 -80.5zM374 861q0 30 -21.5 51t-51.5 21t-51.5 -21t-21.5 -51t21.5 -51.5t51.5 -21.5t51.5 21.5
t21.5 51.5z" />
    <glyph glyph-name="AE" unicode="&#xc6;" horiz-adv-x="901" 
d="M845 0h-431v173h-255l-90 -173h-59l377 712h458v-48h-378v-284h322v-48h-322v-284h378v-48zM414 221v443l-232 -443h232z" />
    <glyph glyph-name="Ccedilla" unicode="&#xc7;" horiz-adv-x="644" 
d="M568 202q-18 -96 -83 -152t-159 -56q-105 0 -173 68q-47 47 -59 101.5t-12 192.5t12 192.5t59 101.5q68 68 173 68q95 0 159.5 -55.5t82.5 -152.5h-55q-16 74 -65.5 117t-121.5 43q-80 0 -135 -55q-36 -36 -45.5 -86.5t-9.5 -172.5t9.5 -172.5t45.5 -86.5q55 -55 135 -55
q72 0 122.5 43t66.5 117h53zM366 -70l-64 -150h-63l72 150h55z" />
    <glyph glyph-name="Egrave" unicode="&#xc8;" horiz-adv-x="598" 
d="M542 0h-432v712h432v-48h-378v-281h322v-48h-322v-287h378v-48zM361 780h-58l-106 147h67z" />
    <glyph glyph-name="Eacute" unicode="&#xc9;" horiz-adv-x="598" 
d="M542 0h-432v712h432v-48h-378v-281h322v-48h-322v-287h378v-48zM431 927l-106 -147h-58l97 147h67z" />
    <glyph glyph-name="Ecircumflex" unicode="&#xca;" horiz-adv-x="598" 
d="M542 0h-432v712h432v-48h-378v-281h322v-48h-322v-287h378v-48zM464 780h-57l-93 109l-93 -109h-57l123 147h54z" />
    <glyph glyph-name="Edieresis" unicode="&#xcb;" horiz-adv-x="598" 
d="M542 0h-432v712h432v-48h-378v-281h322v-48h-322v-287h378v-48zM239 790h-58v77h58v-77zM447 790h-58v77h58v-77z" />
    <glyph glyph-name="Igrave" unicode="&#xcc;" horiz-adv-x="274" 
d="M164 0h-54v712h54v-712zM171 780h-58l-106 147h67z" />
    <glyph glyph-name="Iacute" unicode="&#xcd;" horiz-adv-x="274" 
d="M267 927l-106 -147h-58l97 147h67zM164 0h-54v712h54v-712z" />
    <glyph glyph-name="Icircumflex" unicode="&#xce;" horiz-adv-x="274" 
d="M164 0h-54v712h54v-712zM289 780h-57l-93 109l-93 -109h-57l123 147h54z" />
    <glyph glyph-name="Idieresis" unicode="&#xcf;" horiz-adv-x="274" 
d="M164 0h-54v712h54v-712zM62 790h-58v77h58v-77zM270 790h-58v77h58v-77z" />
    <glyph glyph-name="Eth" unicode="&#xd0;" horiz-adv-x="689" 
d="M607 356q0 -70 -2.5 -110.5t-18.5 -94.5t-48 -86q-65 -65 -178 -65h-239v338h-81v42h81v332h239q113 0 178 -65q32 -32 48 -86t18.5 -94.5t2.5 -110.5zM553 356q0 64 -1.5 98.5t-14 81.5t-37.5 73q-52 55 -153 55h-172v-284h178v-42h-178v-290h172q101 0 153 55
q25 26 37.5 73t14 81.5t1.5 98.5z" />
    <glyph glyph-name="Ntilde" unicode="&#xd1;" horiz-adv-x="739" 
d="M629 0h-54l-411 619v-619h-54v712h54l411 -617v617h54v-712zM519 843q-48 -48 -89 -48q-28 0 -69 24q-36 21 -56 21q-26 0 -59 -33l-30 29q48 48 89 48q31 0 69 -24q34 -21 56 -21q26 0 59 33z" />
    <glyph glyph-name="Ograve" unicode="&#xd2;" horiz-adv-x="652" 
d="M570 356q0 -138 -12 -192.5t-59 -101.5q-68 -68 -173 -68t-173 68q-47 47 -59 101.5t-12 192.5t12 192.5t59 101.5q68 68 173 68t173 -68q47 -47 59 -101.5t12 -192.5zM516 356q0 122 -9.5 172.5t-45.5 86.5q-55 55 -135 55t-135 -55q-36 -36 -45.5 -86.5t-9.5 -172.5
t9.5 -172.5t45.5 -86.5q55 -55 135 -55t135 55q36 36 45.5 86.5t9.5 172.5zM373 780h-58l-106 147h67z" />
    <glyph glyph-name="Oacute" unicode="&#xd3;" horiz-adv-x="652" 
d="M570 356q0 -138 -12 -192.5t-59 -101.5q-68 -68 -173 -68t-173 68q-47 47 -59 101.5t-12 192.5t12 192.5t59 101.5q68 68 173 68t173 -68q47 -47 59 -101.5t12 -192.5zM516 356q0 122 -9.5 172.5t-45.5 86.5q-55 55 -135 55t-135 -55q-36 -36 -45.5 -86.5t-9.5 -172.5
t9.5 -172.5t45.5 -86.5q55 -55 135 -55t135 55q36 36 45.5 86.5t9.5 172.5zM443 927l-106 -147h-58l97 147h67z" />
    <glyph glyph-name="Ocircumflex" unicode="&#xd4;" horiz-adv-x="652" 
d="M570 356q0 -138 -12 -192.5t-59 -101.5q-68 -68 -173 -68t-173 68q-47 47 -59 101.5t-12 192.5t12 192.5t59 101.5q68 68 173 68t173 -68q47 -47 59 -101.5t12 -192.5zM516 356q0 122 -9.5 172.5t-45.5 86.5q-55 55 -135 55t-135 -55q-36 -36 -45.5 -86.5t-9.5 -172.5
t9.5 -172.5t45.5 -86.5q55 -55 135 -55t135 55q36 36 45.5 86.5t9.5 172.5zM476 780h-57l-93 109l-93 -109h-57l123 147h54z" />
    <glyph glyph-name="Otilde" unicode="&#xd5;" horiz-adv-x="652" 
d="M570 356q0 -138 -12 -192.5t-59 -101.5q-68 -68 -173 -68t-173 68q-47 47 -59 101.5t-12 192.5t12 192.5t59 101.5q68 68 173 68t173 -68q47 -47 59 -101.5t12 -192.5zM516 356q0 122 -9.5 172.5t-45.5 86.5q-55 55 -135 55t-135 -55q-36 -36 -45.5 -86.5t-9.5 -172.5
t9.5 -172.5t45.5 -86.5q55 -55 135 -55t135 55q36 36 45.5 86.5t9.5 172.5zM475 843q-48 -48 -89 -48q-28 0 -69 24q-36 21 -56 21q-26 0 -59 -33l-30 29q48 48 89 48q31 0 69 -24q34 -21 56 -21q26 0 59 33z" />
    <glyph glyph-name="Odieresis" unicode="&#xd6;" horiz-adv-x="652" 
d="M570 356q0 -138 -12 -192.5t-59 -101.5q-68 -68 -173 -68t-173 68q-47 47 -59 101.5t-12 192.5t12 192.5t59 101.5q68 68 173 68t173 -68q47 -47 59 -101.5t12 -192.5zM516 356q0 122 -9.5 172.5t-45.5 86.5q-55 55 -135 55t-135 -55q-36 -36 -45.5 -86.5t-9.5 -172.5
t9.5 -172.5t45.5 -86.5q55 -55 135 -55t135 55q36 36 45.5 86.5t9.5 172.5zM251 790h-58v77h58v-77zM459 790h-58v77h58v-77z" />
    <glyph glyph-name="multiply" unicode="&#xd7;" 
d="M443 109l-31 -31l-155 155l-155 -155l-31 31l155 155l-155 155l31 31l155 -155l155 155l31 -31l-155 -155z" />
    <glyph glyph-name="Oslash" unicode="&#xd8;" horiz-adv-x="652" 
d="M570 356q0 -138 -12 -192.5t-59 -101.5q-68 -68 -173 -68q-71 0 -130 35l-35 -73h-53l49 102q-51 49 -63 104t-12 194q0 138 12 192.5t59 101.5q68 68 173 68q73 0 130 -35l35 73h53l-49 -102q51 -50 63 -104.5t12 -193.5zM434 637q-48 33 -108 33q-80 0 -135 -55
q-36 -36 -45.5 -86.5t-9.5 -172.5q0 -115 7.5 -164.5t37.5 -83.5zM516 356q0 113 -8 163t-37 85l-253 -529q48 -33 108 -33q80 0 135 55q36 36 45.5 86.5t9.5 172.5z" />
    <glyph glyph-name="Ugrave" unicode="&#xd9;" horiz-adv-x="688" 
d="M588 231q0 -104 -68.5 -170.5t-175.5 -66.5t-175.5 66.5t-68.5 170.5v481h54v-474q0 -89 52 -142.5t138 -53.5t138 53.5t52 142.5v474h54v-481zM391 780h-58l-106 147h67z" />
    <glyph glyph-name="Uacute" unicode="&#xda;" horiz-adv-x="688" 
d="M588 231q0 -104 -68.5 -170.5t-175.5 -66.5t-175.5 66.5t-68.5 170.5v481h54v-474q0 -89 52 -142.5t138 -53.5t138 53.5t52 142.5v474h54v-481zM461 927l-106 -147h-58l97 147h67z" />
    <glyph glyph-name="Ucircumflex" unicode="&#xdb;" horiz-adv-x="688" 
d="M588 231q0 -104 -68.5 -170.5t-175.5 -66.5t-175.5 66.5t-68.5 170.5v481h54v-474q0 -89 52 -142.5t138 -53.5t138 53.5t52 142.5v474h54v-481zM494 780h-57l-93 109l-93 -109h-57l123 147h54z" />
    <glyph glyph-name="Udieresis" unicode="&#xdc;" horiz-adv-x="688" 
d="M588 231q0 -104 -68.5 -170.5t-175.5 -66.5t-175.5 66.5t-68.5 170.5v481h54v-474q0 -89 52 -142.5t138 -53.5t138 53.5t52 142.5v474h54v-481zM269 790h-58v77h58v-77zM477 790h-58v77h58v-77z" />
    <glyph glyph-name="Yacute" unicode="&#xdd;" horiz-adv-x="494" 
d="M484 712l-210 -417v-295h-54v295l-210 417h58l181 -360l177 360h58zM364 927l-106 -147h-58l97 147h67z" />
    <glyph glyph-name="Thorn" unicode="&#xde;" horiz-adv-x="646" 
d="M586 359q0 -95 -60 -150t-155 -55h-207v-154h-54v712h54v-148h207q95 0 155 -54.5t60 -150.5zM532 359q0 78 -45 117.5t-122 39.5h-201v-314h201q77 0 122 39.5t45 117.5z" />
    <glyph glyph-name="germandbls" unicode="&#xdf;" horiz-adv-x="550" 
d="M473 134q0 -63 -39 -100q-38 -34 -95 -34h-54v45h44q37 0 65 22t28 73v178q0 46 -23 68q-23 23 -65 23h-49v45h39q45 0 71.5 28t26.5 74q0 53 -35 85t-104 32t-102 -40t-33 -109v-524h-51v524q0 91 50.5 142.5t141.5 51.5q80 0 131.5 -41t51.5 -121t-63 -122
q37 -19 50.5 -46.5t13.5 -77.5v-176z" />
    <glyph glyph-name="agrave" unicode="&#xe0;" horiz-adv-x="524" 
d="M431 0h-51v48q-30 -30 -62.5 -42t-84.5 -12q-99 0 -142 44q-35 35 -35 94q0 66 44.5 102.5t123.5 36.5h156v54q0 59 -32 88.5t-104 29.5q-50 0 -79.5 -14t-53.5 -47l-37 32q30 41 69.5 57.5t100.5 16.5q187 0 187 -158v-330zM380 168v62h-150q-123 0 -123 -97
q0 -48 30 -71t96 -23q81 0 120 37q27 26 27 92zM296 590h-58l-106 147h67z" />
    <glyph glyph-name="aacute" unicode="&#xe1;" horiz-adv-x="524" 
d="M431 0h-51v48q-30 -30 -62.5 -42t-84.5 -12q-99 0 -142 44q-35 35 -35 94q0 66 44.5 102.5t123.5 36.5h156v54q0 59 -32 88.5t-104 29.5q-50 0 -79.5 -14t-53.5 -47l-37 32q30 41 69.5 57.5t100.5 16.5q187 0 187 -158v-330zM380 168v62h-150q-123 0 -123 -97
q0 -48 30 -71t96 -23q81 0 120 37q27 26 27 92zM366 737l-106 -147h-58l97 147h67z" />
    <glyph glyph-name="acircumflex" unicode="&#xe2;" horiz-adv-x="524" 
d="M431 0h-51v48q-30 -30 -62.5 -42t-84.5 -12q-99 0 -142 44q-35 35 -35 94q0 66 44.5 102.5t123.5 36.5h156v54q0 59 -32 88.5t-104 29.5q-50 0 -79.5 -14t-53.5 -47l-37 32q30 41 69.5 57.5t100.5 16.5q187 0 187 -158v-330zM380 168v62h-150q-123 0 -123 -97
q0 -48 30 -71t96 -23q81 0 120 37q27 26 27 92zM399 590h-57l-93 109l-93 -109h-57l123 147h54z" />
    <glyph glyph-name="atilde" unicode="&#xe3;" horiz-adv-x="524" 
d="M431 0h-51v48q-30 -30 -62.5 -42t-84.5 -12q-99 0 -142 44q-35 35 -35 94q0 66 44.5 102.5t123.5 36.5h156v54q0 59 -32 88.5t-104 29.5q-50 0 -79.5 -14t-53.5 -47l-37 32q30 41 69.5 57.5t100.5 16.5q187 0 187 -158v-330zM380 168v62h-150q-123 0 -123 -97
q0 -48 30 -71t96 -23q81 0 120 37q27 26 27 92zM398 653q-48 -48 -89 -48q-28 0 -69 24q-36 21 -56 21q-26 0 -59 -33l-30 29q48 48 89 48q31 0 69 -24q34 -21 56 -21q26 0 59 33z" />
    <glyph glyph-name="adieresis" unicode="&#xe4;" horiz-adv-x="524" 
d="M431 0h-51v48q-30 -30 -62.5 -42t-84.5 -12q-99 0 -142 44q-35 35 -35 94q0 66 44.5 102.5t123.5 36.5h156v54q0 59 -32 88.5t-104 29.5q-50 0 -79.5 -14t-53.5 -47l-37 32q30 41 69.5 57.5t100.5 16.5q187 0 187 -158v-330zM380 168v62h-150q-123 0 -123 -97
q0 -48 30 -71t96 -23q81 0 120 37q27 26 27 92zM174 600h-58v77h58v-77zM382 600h-58v77h58v-77z" />
    <glyph glyph-name="aring" unicode="&#xe5;" horiz-adv-x="524" 
d="M431 0h-51v48q-30 -30 -62.5 -42t-84.5 -12q-99 0 -142 44q-35 35 -35 94q0 66 44.5 102.5t123.5 36.5h156v54q0 59 -32 88.5t-104 29.5q-50 0 -79.5 -14t-53.5 -47l-37 32q30 41 69.5 57.5t100.5 16.5q187 0 187 -158v-330zM380 168v62h-150q-123 0 -123 -97
q0 -48 30 -71t96 -23q81 0 120 37q27 26 27 92zM363 677q0 -47 -33.5 -81t-80.5 -34t-80.5 34t-33.5 81t33.5 80.5t80.5 33.5t80.5 -33.5t33.5 -80.5zM322 677q0 30 -21.5 51t-51.5 21t-51.5 -21t-21.5 -51t21.5 -51.5t51.5 -21.5t51.5 21.5t21.5 51.5z" />
    <glyph glyph-name="ae" unicode="&#xe6;" horiz-adv-x="834" 
d="M766 230h-335q0 -93 40 -141.5t117 -48.5q42 0 72 13.5t61 44.5l38 -30q-39 -39 -78 -56.5t-97 -17.5q-122 0 -172 90q-30 -49 -71 -69.5t-108 -20.5q-99 0 -142 44q-35 35 -35 94q0 66 44.5 102.5t123.5 36.5h156v54q0 59 -32 88.5t-104 29.5q-50 0 -79.5 -14t-53.5 -47
l-37 32q30 41 69.5 57.5t100.5 16.5q136 0 173 -85q50 85 156 85q91 0 142 -62t51 -173v-23zM380 230h-150q-123 0 -123 -97q0 -48 30 -71t96 -23q81 0 120 37q27 26 27 92v62zM715 271q-4 62 -17 91q-16 38 -49.5 59.5t-75.5 21.5q-43 0 -76.5 -21.5t-48.5 -59.5
q-13 -35 -17 -91h284z" />
    <glyph glyph-name="ccedilla" unicode="&#xe7;" horiz-adv-x="493" 
d="M440 68q-37 -42 -72.5 -58t-86.5 -16q-99 0 -155.5 66t-56.5 181t56.5 181t155.5 66q51 0 86.5 -16t72.5 -58l-35 -32q-31 34 -58 47.5t-66 13.5q-85 0 -128 -64q-33 -48 -33 -138t33 -138q43 -64 128 -64q38 0 65.5 13.5t58.5 47.5zM308 -70l-64 -150h-63l72 150h55z
" />
    <glyph glyph-name="egrave" unicode="&#xe8;" horiz-adv-x="523" 
d="M455 230h-335q0 -93 40 -141.5t117 -48.5q42 0 72 13.5t61 44.5l38 -30q-39 -39 -78 -56.5t-96 -17.5q-100 0 -152.5 63t-52.5 184q0 117 51 182t142 65t142 -62t51 -173v-23zM404 271q-4 62 -17 91q-16 38 -49.5 59.5t-75.5 21.5t-75 -21.5t-50 -59.5q-13 -29 -17 -91
h284zM311 590h-58l-106 147h67z" />
    <glyph glyph-name="eacute" unicode="&#xe9;" horiz-adv-x="523" 
d="M455 230h-335q0 -93 40 -141.5t117 -48.5q42 0 72 13.5t61 44.5l38 -30q-39 -39 -78 -56.5t-96 -17.5q-100 0 -152.5 63t-52.5 184q0 117 51 182t142 65t142 -62t51 -173v-23zM404 271q-4 62 -17 91q-16 38 -49.5 59.5t-75.5 21.5t-75 -21.5t-50 -59.5q-13 -29 -17 -91
h284zM381 737l-106 -147h-58l97 147h67z" />
    <glyph glyph-name="ecircumflex" unicode="&#xea;" horiz-adv-x="523" 
d="M455 230h-335q0 -93 40 -141.5t117 -48.5q42 0 72 13.5t61 44.5l38 -30q-39 -39 -78 -56.5t-96 -17.5q-100 0 -152.5 63t-52.5 184q0 117 51 182t142 65t142 -62t51 -173v-23zM404 271q-4 62 -17 91q-16 38 -49.5 59.5t-75.5 21.5t-75 -21.5t-50 -59.5q-13 -29 -17 -91
h284zM414 590h-57l-93 109l-93 -109h-57l123 147h54z" />
    <glyph glyph-name="edieresis" unicode="&#xeb;" horiz-adv-x="523" 
d="M455 230h-335q0 -93 40 -141.5t117 -48.5q42 0 72 13.5t61 44.5l38 -30q-39 -39 -78 -56.5t-96 -17.5q-100 0 -152.5 63t-52.5 184q0 117 51 182t142 65t142 -62t51 -173v-23zM404 271q-4 62 -17 91q-16 38 -49.5 59.5t-75.5 21.5t-75 -21.5t-50 -59.5q-13 -29 -17 -91
h284zM189 600h-58v77h58v-77zM397 600h-58v77h58v-77z" />
    <glyph glyph-name="igrave" unicode="&#xec;" horiz-adv-x="245" 
d="M148 0h-51v482h51v-482zM148 590h-58l-106 147h67z" />
    <glyph glyph-name="iacute" unicode="&#xed;" horiz-adv-x="245" 
d="M148 0h-51v482h51v-482zM261 737l-106 -147h-58l97 147h67z" />
    <glyph glyph-name="icircumflex" unicode="&#xee;" horiz-adv-x="245" 
d="M148 0h-51v482h51v-482zM272 590h-57l-93 109l-93 -109h-57l123 147h54z" />
    <glyph glyph-name="idieresis" unicode="&#xef;" horiz-adv-x="245" 
d="M148 0h-51v482h51v-482zM47 600h-58v77h58v-77zM255 600h-58v77h58v-77z" />
    <glyph glyph-name="eth" unicode="&#xf0;" horiz-adv-x="526" 
d="M457 241q0 -134 -60 -194q-53 -53 -134 -53t-134 53q-60 60 -60 194t60 194q53 53 134 53q47 0 75 -17l-67 113h-117v38h95l-53 90h53l52 -90h79v-38h-57l72 -123q39 -68 50.5 -110.5t11.5 -109.5zM406 241q0 118 -43 161q-41 41 -100 41t-100 -41q-43 -43 -43 -161
t43 -161q41 -41 100 -41t100 41q43 43 43 161z" />
    <glyph glyph-name="ntilde" unicode="&#xf1;" horiz-adv-x="559" 
d="M468 0h-51v299q0 70 -34 107t-99 37t-100.5 -37.5t-35.5 -106.5v-299h-51v482h51v-57q54 63 142 63q81 0 128 -46q50 -48 50 -134v-308zM433 653q-48 -48 -89 -48q-28 0 -69 24q-36 21 -56 21q-26 0 -59 -33l-30 29q48 48 89 48q31 0 69 -24q34 -21 56 -21q26 0 59 33z
" />
    <glyph glyph-name="ograve" unicode="&#xf2;" horiz-adv-x="526" 
d="M457 241q0 -134 -60 -194q-53 -53 -134 -53t-134 53q-60 60 -60 194t60 194q53 53 134 53t134 -53q60 -60 60 -194zM406 241q0 118 -43 161q-41 41 -100 41t-100 -41q-43 -43 -43 -161t43 -161q41 -41 100 -41t100 41q43 43 43 161zM315 590h-58l-106 147h67z" />
    <glyph glyph-name="oacute" unicode="&#xf3;" horiz-adv-x="526" 
d="M457 241q0 -134 -60 -194q-53 -53 -134 -53t-134 53q-60 60 -60 194t60 194q53 53 134 53t134 -53q60 -60 60 -194zM406 241q0 118 -43 161q-41 41 -100 41t-100 -41q-43 -43 -43 -161t43 -161q41 -41 100 -41t100 41q43 43 43 161zM380 737l-106 -147h-58l97 147h67z
" />
    <glyph glyph-name="ocircumflex" unicode="&#xf4;" horiz-adv-x="526" 
d="M457 241q0 -134 -60 -194q-53 -53 -134 -53t-134 53q-60 60 -60 194t60 194q53 53 134 53t134 -53q60 -60 60 -194zM406 241q0 118 -43 161q-41 41 -100 41t-100 -41q-43 -43 -43 -161t43 -161q41 -41 100 -41t100 41q43 43 43 161zM413 590h-57l-93 109l-93 -109h-57
l123 147h54z" />
    <glyph glyph-name="otilde" unicode="&#xf5;" horiz-adv-x="526" 
d="M457 241q0 -134 -60 -194q-53 -53 -134 -53t-134 53q-60 60 -60 194t60 194q53 53 134 53t134 -53q60 -60 60 -194zM406 241q0 118 -43 161q-41 41 -100 41t-100 -41q-43 -43 -43 -161t43 -161q41 -41 100 -41t100 41q43 43 43 161zM412 653q-48 -48 -89 -48
q-28 0 -69 24q-36 21 -56 21q-26 0 -59 -33l-30 29q48 48 89 48q31 0 69 -24q34 -21 56 -21q26 0 59 33z" />
    <glyph glyph-name="odieresis" unicode="&#xf6;" horiz-adv-x="526" 
d="M457 241q0 -134 -60 -194q-53 -53 -134 -53t-134 53q-60 60 -60 194t60 194q53 53 134 53t134 -53q60 -60 60 -194zM406 241q0 118 -43 161q-41 41 -100 41t-100 -41q-43 -43 -43 -161t43 -161q41 -41 100 -41t100 41q43 43 43 161zM188 600h-58v77h58v-77zM396 600h-58
v77h58v-77z" />
    <glyph glyph-name="divide" unicode="&#xf7;" 
d="M222 60v70h70v-70h-70zM53 240v47h408v-47h-408zM222 397v70h70v-70h-70z" />
    <glyph glyph-name="oslash" unicode="&#xf8;" horiz-adv-x="526" 
d="M457 241q0 -134 -60 -194q-53 -53 -134 -53q-58 0 -105 29l-40 -67h-48l56 94q-57 61 -57 191q0 134 60 194q53 53 134 53q60 0 105 -30l40 68h48l-56 -94q57 -61 57 -191zM344 418q-35 25 -81 25q-59 0 -100 -41q-43 -43 -43 -161q0 -106 32 -148zM406 241
q0 106 -32 148l-192 -325q35 -25 81 -25q59 0 100 41q43 43 43 161z" />
    <glyph glyph-name="ugrave" unicode="&#xf9;" horiz-adv-x="559" 
d="M462 0h-51v57q-54 -63 -142 -63q-81 0 -128 46q-50 48 -50 134v308h51v-299q0 -70 34 -107t99 -37t100.5 37.5t35.5 106.5v299h51v-482zM323 590h-58l-106 147h67z" />
    <glyph glyph-name="uacute" unicode="&#xfa;" horiz-adv-x="559" 
d="M462 0h-51v57q-54 -63 -142 -63q-81 0 -128 46q-50 48 -50 134v308h51v-299q0 -70 34 -107t99 -37t100.5 37.5t35.5 106.5v299h51v-482zM393 737l-106 -147h-58l97 147h67z" />
    <glyph glyph-name="ucircumflex" unicode="&#xfb;" horiz-adv-x="559" 
d="M462 0h-51v57q-54 -63 -142 -63q-81 0 -128 46q-50 48 -50 134v308h51v-299q0 -70 34 -107t99 -37t100.5 37.5t35.5 106.5v299h51v-482zM426 590h-57l-93 109l-93 -109h-57l123 147h54z" />
    <glyph glyph-name="udieresis" unicode="&#xfc;" horiz-adv-x="559" 
d="M462 0h-51v57q-54 -63 -142 -63q-81 0 -128 46q-50 48 -50 134v308h51v-299q0 -70 34 -107t99 -37t100.5 37.5t35.5 106.5v299h51v-482zM201 600h-58v77h58v-77zM409 600h-58v77h58v-77z" />
    <glyph glyph-name="yacute" unicode="&#xfd;" horiz-adv-x="430" 
d="M416 482l-224 -613q-14 -40 -33 -56q-32 -31 -91 -31h-24v45h19q40 0 57.5 14t30.5 52l39 107l-176 482h56l145 -422l145 422h56zM332 737l-106 -147h-58l97 147h67z" />
    <glyph glyph-name="thorn" unicode="&#xfe;" horiz-adv-x="540" 
d="M471 241q0 -143 -62 -205q-42 -42 -118 -42q-45 0 -79 14.5t-64 53.5v-292h-51v942h51v-292q30 39 64 53.5t79 14.5q76 0 118 -42q62 -62 62 -205zM420 241q0 43 -5 75t-18.5 63t-42 47.5t-70.5 16.5t-70.5 -16.5t-42 -47.5t-18.5 -63t-5 -75t5 -75t18.5 -63t42 -47.5
t70.5 -16.5t70.5 16.5t42 47.5t18.5 63t5 75z" />
    <glyph glyph-name="ydieresis" unicode="&#xff;" horiz-adv-x="430" 
d="M416 482l-224 -613q-14 -40 -33 -56q-32 -31 -91 -31h-24v45h19q40 0 57.5 14t30.5 52l39 107l-176 482h56l145 -422l145 422h56zM140 600h-58v77h58v-77zM348 600h-58v77h58v-77z" />
    <glyph glyph-name="Amacron" unicode="&#x100;" horiz-adv-x="602" 
d="M587 0h-58l-62 173h-332l-62 -173h-58l262 712h48zM301 640l-149 -419h298zM449 800h-296v46h296v-46z" />
    <glyph glyph-name="amacron" unicode="&#x101;" horiz-adv-x="524" 
d="M431 0h-51v48q-30 -30 -62.5 -42t-84.5 -12q-99 0 -142 44q-35 35 -35 94q0 66 44.5 102.5t123.5 36.5h156v54q0 59 -32 88.5t-104 29.5q-50 0 -79.5 -14t-53.5 -47l-37 32q30 41 69.5 57.5t100.5 16.5q187 0 187 -158v-330zM380 168v62h-150q-123 0 -123 -97
q0 -48 30 -71t96 -23q81 0 120 37q27 26 27 92zM410 610h-296v46h296v-46z" />
    <glyph glyph-name="Abreve" unicode="&#x102;" horiz-adv-x="602" 
d="M587 0h-58l-62 173h-332l-62 -173h-58l262 712h48zM301 640l-149 -419h298zM466 927q-14 -135 -165 -135t-165 135h45q6 -42 37.5 -66t82.5 -24t82.5 24t37.5 66h45z" />
    <glyph glyph-name="abreve" unicode="&#x103;" horiz-adv-x="524" 
d="M431 0h-51v48q-30 -30 -62.5 -42t-84.5 -12q-99 0 -142 44q-35 35 -35 94q0 66 44.5 102.5t123.5 36.5h156v54q0 59 -32 88.5t-104 29.5q-50 0 -79.5 -14t-53.5 -47l-37 32q30 41 69.5 57.5t100.5 16.5q187 0 187 -158v-330zM380 168v62h-150q-123 0 -123 -97
q0 -48 30 -71t96 -23q81 0 120 37q27 26 27 92zM409 722q-14 -135 -165 -135t-165 135h45q6 -42 37.5 -66t82.5 -24t82.5 24t37.5 66h45z" />
    <glyph glyph-name="Aogonek" unicode="&#x104;" horiz-adv-x="602" 
d="M587 0h-58l-62 173h-332l-62 -173h-58l262 712h48zM301 640l-149 -419h298zM584 -70l-64 -150h-63l72 150h55z" />
    <glyph glyph-name="aogonek" unicode="&#x105;" horiz-adv-x="524" 
d="M431 0h-51v48q-30 -30 -62.5 -42t-84.5 -12q-99 0 -142 44q-35 35 -35 94q0 66 44.5 102.5t123.5 36.5h156v54q0 59 -32 88.5t-104 29.5q-50 0 -79.5 -14t-53.5 -47l-37 32q30 41 69.5 57.5t100.5 16.5q187 0 187 -158v-330zM380 168v62h-150q-123 0 -123 -97
q0 -48 30 -71t96 -23q81 0 120 37q27 26 27 92zM435 -70l-64 -150h-63l72 150h55z" />
    <glyph glyph-name="Cacute" unicode="&#x106;" horiz-adv-x="644" 
d="M568 202q-18 -96 -83 -152t-159 -56q-105 0 -173 68q-47 47 -59 101.5t-12 192.5t12 192.5t59 101.5q68 68 173 68q95 0 159.5 -55.5t82.5 -152.5h-55q-16 74 -65.5 117t-121.5 43q-80 0 -135 -55q-36 -36 -45.5 -86.5t-9.5 -172.5t9.5 -172.5t45.5 -86.5q55 -55 135 -55
q72 0 122.5 43t66.5 117h53zM439 927l-106 -147h-58l97 147h67z" />
    <glyph glyph-name="cacute" unicode="&#x107;" horiz-adv-x="493" 
d="M440 68q-37 -42 -72.5 -58t-86.5 -16q-99 0 -155.5 66t-56.5 181t56.5 181t155.5 66q51 0 86.5 -16t72.5 -58l-35 -32q-31 34 -58 47.5t-66 13.5q-85 0 -128 -64q-33 -48 -33 -138t33 -138q43 -64 128 -64q38 0 65.5 13.5t58.5 47.5zM398 737l-106 -147h-58l97 147h67z
" />
    <glyph glyph-name="Ccircumflex" unicode="&#x108;" horiz-adv-x="644" 
d="M568 202q-18 -96 -83 -152t-159 -56q-105 0 -173 68q-47 47 -59 101.5t-12 192.5t12 192.5t59 101.5q68 68 173 68q95 0 159.5 -55.5t82.5 -152.5h-55q-16 74 -65.5 117t-121.5 43q-80 0 -135 -55q-36 -36 -45.5 -86.5t-9.5 -172.5t9.5 -172.5t45.5 -86.5q55 -55 135 -55
q72 0 122.5 43t66.5 117h53zM476 780h-57l-93 109l-93 -109h-57l123 147h54z" />
    <glyph glyph-name="ccircumflex" unicode="&#x109;" horiz-adv-x="493" 
d="M440 68q-37 -42 -72.5 -58t-86.5 -16q-99 0 -155.5 66t-56.5 181t56.5 181t155.5 66q51 0 86.5 -16t72.5 -58l-35 -32q-31 34 -58 47.5t-66 13.5q-85 0 -128 -64q-33 -48 -33 -138t33 -138q43 -64 128 -64q38 0 65.5 13.5t58.5 47.5zM431 590h-57l-93 109l-93 -109h-57
l123 147h54z" />
    <glyph glyph-name="Cdotaccent" unicode="&#x10a;" horiz-adv-x="644" 
d="M568 202q-18 -96 -83 -152t-159 -56q-105 0 -173 68q-47 47 -59 101.5t-12 192.5t12 192.5t59 101.5q68 68 173 68q95 0 159.5 -55.5t82.5 -152.5h-55q-16 74 -65.5 117t-121.5 43q-80 0 -135 -55q-36 -36 -45.5 -86.5t-9.5 -172.5t9.5 -172.5t45.5 -86.5q55 -55 135 -55
q72 0 122.5 43t66.5 117h53zM357 800h-62v63h62v-63z" />
    <glyph glyph-name="cdotaccent" unicode="&#x10b;" horiz-adv-x="493" 
d="M440 68q-37 -42 -72.5 -58t-86.5 -16q-99 0 -155.5 66t-56.5 181t56.5 181t155.5 66q51 0 86.5 -16t72.5 -58l-35 -32q-31 34 -58 47.5t-66 13.5q-85 0 -128 -64q-33 -48 -33 -138t33 -138q43 -64 128 -64q38 0 65.5 13.5t58.5 47.5zM312 610h-62v63h62v-63z" />
    <glyph glyph-name="Ccaron" unicode="&#x10c;" horiz-adv-x="644" 
d="M568 202q-18 -96 -83 -152t-159 -56q-105 0 -173 68q-47 47 -59 101.5t-12 192.5t12 192.5t59 101.5q68 68 173 68q95 0 159.5 -55.5t82.5 -152.5h-55q-16 74 -65.5 117t-121.5 43q-80 0 -135 -55q-36 -36 -45.5 -86.5t-9.5 -172.5t9.5 -172.5t45.5 -86.5q55 -55 135 -55
q72 0 122.5 43t66.5 117h53zM472 927l-123 -147h-54l-123 147h57l93 -109l93 109h57z" />
    <glyph glyph-name="ccaron" unicode="&#x10d;" horiz-adv-x="493" 
d="M440 68q-37 -42 -72.5 -58t-86.5 -16q-99 0 -155.5 66t-56.5 181t56.5 181t155.5 66q51 0 86.5 -16t72.5 -58l-35 -32q-31 34 -58 47.5t-66 13.5q-85 0 -128 -64q-33 -48 -33 -138t33 -138q43 -64 128 -64q38 0 65.5 13.5t58.5 47.5zM431 737l-123 -147h-54l-123 147h57
l93 -109l93 109h57z" />
    <glyph glyph-name="Dcaron" unicode="&#x10e;" horiz-adv-x="678" 
d="M596 356q0 -70 -2.5 -110.5t-18.5 -94.5t-48 -86q-65 -65 -178 -65h-239v712h239q113 0 178 -65q32 -32 48 -86t18.5 -94.5t2.5 -110.5zM542 356q0 64 -1.5 98.5t-14 81.5t-37.5 73q-52 55 -153 55h-172v-616h172q101 0 153 55q25 26 37.5 73t14 81.5t1.5 98.5zM489 927
l-123 -147h-54l-123 147h57l93 -109l93 109h57z" />
    <glyph glyph-name="dcaron" unicode="&#x10f;" horiz-adv-x="540" 
d="M443 0h-51v62q-30 -39 -64 -53.5t-79 -14.5q-76 0 -118 42q-62 62 -62 205t62 205q42 42 118 42q45 0 79 -14.5t64 -53.5v292h51v-712zM392 241q0 43 -5 75t-18.5 63t-42 47.5t-70.5 16.5t-70.5 -16.5t-42 -47.5t-18.5 -63t-5 -75t5 -75t18.5 -63t42 -47.5t70.5 -16.5
t70.5 16.5t42 47.5t18.5 63t5 75zM601 712l-48 -148h-47l40 148h55z" />
    <glyph glyph-name="Dcroat" unicode="&#x110;" horiz-adv-x="689" 
d="M607 356q0 -70 -2.5 -110.5t-18.5 -94.5t-48 -86q-65 -65 -178 -65h-239v338h-81v42h81v332h239q113 0 178 -65q32 -32 48 -86t18.5 -94.5t2.5 -110.5zM553 356q0 64 -1.5 98.5t-14 81.5t-37.5 73q-52 55 -153 55h-172v-284h178v-42h-178v-290h172q101 0 153 55
q25 26 37.5 73t14 81.5t1.5 98.5z" />
    <glyph glyph-name="dcroat" unicode="&#x111;" horiz-adv-x="550" 
d="M508 574h-65v-574h-51v62q-51 -68 -143 -68q-76 0 -118 42q-62 62 -62 205t62 205q42 42 118 42q92 0 143 -68v154h-136v36h136v102h51v-102h65v-36zM392 241q0 43 -5 75t-18.5 63t-42 47.5t-70.5 16.5t-70.5 -16.5t-42 -47.5t-18.5 -63t-5 -75t5 -75t18.5 -63t42 -47.5
t70.5 -16.5t70.5 16.5t42 47.5t18.5 63t5 75z" />
    <glyph glyph-name="Emacron" unicode="&#x112;" horiz-adv-x="598" 
d="M542 0h-432v712h432v-48h-378v-281h322v-48h-322v-287h378v-48zM462 800h-296v46h296v-46z" />
    <glyph glyph-name="emacron" unicode="&#x113;" horiz-adv-x="523" 
d="M455 230h-335q0 -93 40 -141.5t117 -48.5q42 0 72 13.5t61 44.5l38 -30q-39 -39 -78 -56.5t-96 -17.5q-100 0 -152.5 63t-52.5 184q0 117 51 182t142 65t142 -62t51 -173v-23zM404 271q-4 62 -17 91q-16 38 -49.5 59.5t-75.5 21.5t-75 -21.5t-50 -59.5q-13 -29 -17 -91
h284zM409 610h-296v46h296v-46z" />
    <glyph glyph-name="Ebreve" unicode="&#x114;" horiz-adv-x="598" 
d="M542 0h-432v712h432v-48h-378v-281h322v-48h-322v-287h378v-48zM479 927q-14 -135 -165 -135t-165 135h45q6 -42 37.5 -66t82.5 -24t82.5 24t37.5 66h45z" />
    <glyph glyph-name="ebreve" unicode="&#x115;" horiz-adv-x="523" 
d="M455 230h-335q0 -93 40 -141.5t117 -48.5q42 0 72 13.5t61 44.5l38 -30q-39 -39 -78 -56.5t-96 -17.5q-100 0 -152.5 63t-52.5 184q0 117 51 182t142 65t142 -62t51 -173v-23zM404 271q-4 62 -17 91q-16 38 -49.5 59.5t-75.5 21.5t-75 -21.5t-50 -59.5q-13 -29 -17 -91
h284zM429 722q-14 -135 -165 -135t-165 135h45q6 -42 37.5 -66t82.5 -24t82.5 24t37.5 66h45z" />
    <glyph glyph-name="Edotaccent" unicode="&#x116;" horiz-adv-x="598" 
d="M542 0h-432v712h432v-48h-378v-281h322v-48h-322v-287h378v-48zM345 800h-62v63h62v-63z" />
    <glyph glyph-name="edotaccent" unicode="&#x117;" horiz-adv-x="523" 
d="M455 230h-335q0 -93 40 -141.5t117 -48.5q42 0 72 13.5t61 44.5l38 -30q-39 -39 -78 -56.5t-96 -17.5q-100 0 -152.5 63t-52.5 184q0 117 51 182t142 65t142 -62t51 -173v-23zM404 271q-4 62 -17 91q-16 38 -49.5 59.5t-75.5 21.5t-75 -21.5t-50 -59.5q-13 -29 -17 -91
h284zM292 610h-62v63h62v-63z" />
    <glyph glyph-name="Eogonek" unicode="&#x118;" horiz-adv-x="598" 
d="M542 0h-432v712h432v-48h-378v-281h322v-48h-322v-287h378v-48zM542 -70l-64 -150h-63l72 150h55z" />
    <glyph glyph-name="eogonek" unicode="&#x119;" horiz-adv-x="523" 
d="M455 230h-335q0 -93 40 -141.5t117 -48.5q42 0 72 13.5t61 44.5l38 -30q-39 -39 -78 -56.5t-96 -17.5q-100 0 -152.5 63t-52.5 184q0 117 51 182t142 65t142 -62t51 -173v-23zM404 271q-4 62 -17 91q-16 38 -49.5 59.5t-75.5 21.5t-75 -21.5t-50 -59.5q-13 -29 -17 -91
h284zM355 -70l-64 -150h-63l72 150h55z" />
    <glyph glyph-name="Ecaron" unicode="&#x11a;" horiz-adv-x="598" 
d="M542 0h-432v712h432v-48h-378v-281h322v-48h-322v-287h378v-48zM464 927l-123 -147h-54l-123 147h57l93 -109l93 109h57z" />
    <glyph glyph-name="ecaron" unicode="&#x11b;" horiz-adv-x="523" 
d="M455 230h-335q0 -93 40 -141.5t117 -48.5q42 0 72 13.5t61 44.5l38 -30q-39 -39 -78 -56.5t-96 -17.5q-100 0 -152.5 63t-52.5 184q0 117 51 182t142 65t142 -62t51 -173v-23zM404 271q-4 62 -17 91q-16 38 -49.5 59.5t-75.5 21.5t-75 -21.5t-50 -59.5q-13 -29 -17 -91
h284zM411 737l-123 -147h-54l-123 147h57l93 -109l93 109h57z" />
    <glyph glyph-name="Gcircumflex" unicode="&#x11c;" horiz-adv-x="651" 
d="M571 248q0 -107 -58 -172q-74 -82 -187 -82q-105 0 -173 68q-47 47 -59 101.5t-12 192.5t12 192.5t59 101.5q68 68 173 68q93 0 160 -57t83 -151h-54q-16 74 -66.5 117t-122.5 43q-80 0 -135 -55q-36 -36 -45.5 -86.5t-9.5 -172.5t9.5 -172.5t45.5 -86.5q55 -55 135 -55
q91 0 148 69q43 54 43 141v64h-191v48h245v-116zM476 780h-57l-93 109l-93 -109h-57l123 147h54z" />
    <glyph glyph-name="gcircumflex" unicode="&#x11d;" horiz-adv-x="540" 
d="M443 -27q0 -93 -52.5 -151t-144.5 -58q-52 0 -86 14.5t-73 49.5l34 34q32 -29 57 -41t68 -12q73 0 109.5 45.5t36.5 121.5v86q-30 -39 -64 -53.5t-79 -14.5q-76 0 -118 42q-62 62 -62 205t62 205q42 42 118 42q45 0 79 -14.5t64 -53.5v62h51v-509zM392 241q0 43 -5 75
t-18.5 63t-42 47.5t-70.5 16.5t-70.5 -16.5t-42 -47.5t-18.5 -63t-5 -75t5 -75t18.5 -63t42 -47.5t70.5 -16.5t70.5 16.5t42 47.5t18.5 63t5 75zM427 590h-57l-93 109l-93 -109h-57l123 147h54z" />
    <glyph glyph-name="Gbreve" unicode="&#x11e;" horiz-adv-x="651" 
d="M571 248q0 -107 -58 -172q-74 -82 -187 -82q-105 0 -173 68q-47 47 -59 101.5t-12 192.5t12 192.5t59 101.5q68 68 173 68q93 0 160 -57t83 -151h-54q-16 74 -66.5 117t-122.5 43q-80 0 -135 -55q-36 -36 -45.5 -86.5t-9.5 -172.5t9.5 -172.5t45.5 -86.5q55 -55 135 -55
q91 0 148 69q43 54 43 141v64h-191v48h245v-116zM488 927q-14 -135 -165 -135t-165 135h45q6 -42 37.5 -66t82.5 -24t82.5 24t37.5 66h45z" />
    <glyph glyph-name="gbreve" unicode="&#x11f;" horiz-adv-x="540" 
d="M443 -27q0 -93 -52.5 -151t-144.5 -58q-52 0 -86 14.5t-73 49.5l34 34q32 -29 57 -41t68 -12q73 0 109.5 45.5t36.5 121.5v86q-30 -39 -64 -53.5t-79 -14.5q-76 0 -118 42q-62 62 -62 205t62 205q42 42 118 42q45 0 79 -14.5t64 -53.5v62h51v-509zM392 241q0 43 -5 75
t-18.5 63t-42 47.5t-70.5 16.5t-70.5 -16.5t-42 -47.5t-18.5 -63t-5 -75t5 -75t18.5 -63t42 -47.5t70.5 -16.5t70.5 16.5t42 47.5t18.5 63t5 75zM421 722q-14 -135 -165 -135t-165 135h45q6 -42 37.5 -66t82.5 -24t82.5 24t37.5 66h45z" />
    <glyph glyph-name="Gdotaccent" unicode="&#x120;" horiz-adv-x="651" 
d="M571 248q0 -107 -58 -172q-74 -82 -187 -82q-105 0 -173 68q-47 47 -59 101.5t-12 192.5t12 192.5t59 101.5q68 68 173 68q93 0 160 -57t83 -151h-54q-16 74 -66.5 117t-122.5 43q-80 0 -135 -55q-36 -36 -45.5 -86.5t-9.5 -172.5t9.5 -172.5t45.5 -86.5q55 -55 135 -55
q91 0 148 69q43 54 43 141v64h-191v48h245v-116zM357 800h-62v63h62v-63z" />
    <glyph glyph-name="gdotaccent" unicode="&#x121;" horiz-adv-x="540" 
d="M443 -27q0 -93 -52.5 -151t-144.5 -58q-52 0 -86 14.5t-73 49.5l34 34q32 -29 57 -41t68 -12q73 0 109.5 45.5t36.5 121.5v86q-30 -39 -64 -53.5t-79 -14.5q-76 0 -118 42q-62 62 -62 205t62 205q42 42 118 42q45 0 79 -14.5t64 -53.5v62h51v-509zM392 241q0 43 -5 75
t-18.5 63t-42 47.5t-70.5 16.5t-70.5 -16.5t-42 -47.5t-18.5 -63t-5 -75t5 -75t18.5 -63t42 -47.5t70.5 -16.5t70.5 16.5t42 47.5t18.5 63t5 75zM287 610h-62v63h62v-63z" />
    <glyph glyph-name="Gcommaaccent" unicode="&#x122;" horiz-adv-x="651" 
d="M571 248q0 -107 -58 -172q-74 -82 -187 -82q-105 0 -173 68q-47 47 -59 101.5t-12 192.5t12 192.5t59 101.5q68 68 173 68q93 0 160 -57t83 -151h-54q-16 74 -66.5 117t-122.5 43q-80 0 -135 -55q-36 -36 -45.5 -86.5t-9.5 -172.5t9.5 -172.5t45.5 -86.5q55 -55 135 -55
q91 0 148 69q43 54 43 141v64h-191v48h245v-116zM358 -70l-64 -150h-63l72 150h55z" />
    <glyph glyph-name="gcommaaccent" unicode="&#x123;" horiz-adv-x="540" 
d="M443 -27q0 -93 -52.5 -151t-144.5 -58q-52 0 -86 14.5t-73 49.5l34 34q32 -29 57 -41t68 -12q73 0 109.5 45.5t36.5 121.5v86q-30 -39 -64 -53.5t-79 -14.5q-76 0 -118 42q-62 62 -62 205t62 205q42 42 118 42q45 0 79 -14.5t64 -53.5v62h51v-509zM392 241q0 43 -5 75
t-18.5 63t-42 47.5t-70.5 16.5t-70.5 -16.5t-42 -47.5t-18.5 -63t-5 -75t5 -75t18.5 -63t42 -47.5t70.5 -16.5t70.5 16.5t42 47.5t18.5 63t5 75zM387 737l-106 -147h-58l97 147h67z" />
    <glyph glyph-name="Hcircumflex" unicode="&#x124;" horiz-adv-x="699" 
d="M589 0h-54v335h-371v-335h-54v712h54v-329h371v329h54v-712zM500 780h-57l-93 109l-93 -109h-57l123 147h54z" />
    <glyph glyph-name="hcircumflex" unicode="&#x125;" horiz-adv-x="559" 
d="M468 0h-51v299q0 70 -34 107t-99 37t-100.5 -37t-35.5 -107v-299h-51v712h51v-287q54 63 142 63q83 0 130.5 -48t47.5 -132v-308zM273 780h-57l-93 109l-93 -109h-57l123 147h54z" />
    <glyph glyph-name="Hbar" unicode="&#x126;" horiz-adv-x="711" 
d="M595 0h-54v335h-371v-335h-54v517h-76v42h76v153h54v-153h371v153h54v-153h76v-42h-76v-517zM541 383v134h-371v-134h371z" />
    <glyph glyph-name="hbar" unicode="&#x127;" horiz-adv-x="569" 
d="M478 0h-51v299q0 70 -34.5 107t-98.5 37t-100 -38t-36 -106v-299h-51v574h-65v36h65v102h51v-102h136v-36h-136v-149q32 34 64.5 48.5t78.5 14.5q82 0 129.5 -48.5t47.5 -131.5v-308z" />
    <glyph glyph-name="Itilde" unicode="&#x128;" horiz-adv-x="274" 
d="M164 0h-54v712h54v-712zM286 843q-48 -48 -89 -48q-28 0 -69 24q-36 21 -56 21q-26 0 -59 -33l-30 29q48 48 89 48q31 0 69 -24q34 -21 56 -21q26 0 59 33z" />
    <glyph glyph-name="itilde" unicode="&#x129;" horiz-adv-x="245" 
d="M148 0h-51v482h51v-482zM274 653q-48 -48 -89 -48q-28 0 -69 24q-36 21 -56 21q-26 0 -59 -33l-30 29q48 48 89 48q31 0 69 -24q34 -21 56 -21q26 0 59 33z" />
    <glyph glyph-name="Imacron" unicode="&#x12a;" horiz-adv-x="274" 
d="M164 0h-54v712h54v-712zM285 800h-296v46h296v-46z" />
    <glyph glyph-name="imacron" unicode="&#x12b;" horiz-adv-x="245" 
d="M148 0h-51v482h51v-482zM271 610h-296v46h296v-46z" />
    <glyph glyph-name="Ibreve" unicode="&#x12c;" horiz-adv-x="274" 
d="M164 0h-54v712h54v-712zM302 927q-14 -135 -165 -135t-165 135h45q6 -42 37.5 -66t82.5 -24t82.5 24t37.5 66h45z" />
    <glyph glyph-name="ibreve" unicode="&#x12d;" horiz-adv-x="245" 
d="M148 0h-51v482h51v-482zM287 722q-14 -135 -165 -135t-165 135h45q6 -42 37.5 -66t82.5 -24t82.5 24t37.5 66h45z" />
    <glyph glyph-name="Iogonek" unicode="&#x12e;" horiz-adv-x="274" 
d="M164 0h-54v712h54v-712zM165 -70l-64 -150h-63l72 150h55z" />
    <glyph glyph-name="iogonek" unicode="&#x12f;" horiz-adv-x="245" 
d="M148 0h-51v482h51v-482zM154 649h-63v63h63v-63zM152 -70l-64 -150h-63l72 150h55z" />
    <glyph glyph-name="Idotaccent" unicode="&#x130;" horiz-adv-x="274" 
d="M164 0h-54v712h54v-712zM168 800h-62v63h62v-63z" />
    <glyph glyph-name="dotlessi" unicode="&#x131;" horiz-adv-x="245" 
d="M148 0h-51v482h51v-482z" />
    <glyph glyph-name="IJ" unicode="&#x132;" horiz-adv-x="772" 
d="M164 0h-54v712h54v-712zM672 210q0 -98 -58 -157t-154 -59q-95 0 -156 61l37 37q25 -25 50.5 -37.5t68.5 -12.5q77 0 117.5 46t40.5 133v491h54v-502z" />
    <glyph glyph-name="ij" unicode="&#x133;" horiz-adv-x="490" 
d="M148 0h-51v482h51v-482zM154 649h-63v63h63v-63zM393 -105q0 -59 -29 -92t-87 -33h-44v45h35q41 0 57.5 19t16.5 62v586h51v-587zM399 649h-63v63h63v-63z" />
    <glyph glyph-name="Jcircumflex" unicode="&#x134;" horiz-adv-x="498" 
d="M398 210q0 -98 -58 -157t-154 -59q-95 0 -156 61l37 37q25 -25 50.5 -37.5t68.5 -12.5q77 0 117.5 46t40.5 133v491h54v-502zM521 780h-57l-93 109l-93 -109h-57l123 147h54z" />
    <glyph glyph-name="jcircumflex" unicode="&#x135;" horiz-adv-x="245" 
d="M148 -105q0 -59 -29 -92t-87 -33h-44v45h35q41 0 57.5 19t16.5 62v586h51v-587zM272 590h-57l-93 109l-93 -109h-57l123 147h54z" />
    <glyph glyph-name="Kcommaaccent" unicode="&#x136;" horiz-adv-x="645" 
d="M627 0h-64l-229 399l-170 -206v-193h-54v712h54v-445l361 445h65l-220 -272zM381 -70l-64 -150h-63l72 150h55z" />
    <glyph glyph-name="kcommaaccent" unicode="&#x137;" horiz-adv-x="527" 
d="M487 0h-63l-166 265l-110 -127v-138h-51v712h51v-502l239 272h65l-159 -180zM321 -70l-64 -150h-63l72 150h55z" />
    <glyph glyph-name="kgreenlandic" unicode="&#x138;" horiz-adv-x="527" 
d="M487 0h-63l-166 265l-110 -127v-138h-51v482h51v-272l239 272h65l-159 -180z" />
    <glyph glyph-name="Lacute" unicode="&#x139;" horiz-adv-x="572" 
d="M542 0h-432v712h54v-664h378v-48zM267 927l-106 -147h-58l97 147h67z" />
    <glyph glyph-name="lacute" unicode="&#x13a;" horiz-adv-x="287" 
d="M255 0h-44q-58 0 -87 33t-29 92v587h51v-586q0 -43 16.5 -62t57.5 -19h35v-45zM259 927l-106 -147h-58l97 147h67z" />
    <glyph glyph-name="Lcommaaccent" unicode="&#x13b;" horiz-adv-x="572" 
d="M542 0h-432v712h54v-664h378v-48zM344 -70l-64 -150h-63l72 150h55z" />
    <glyph glyph-name="lcommaaccent" unicode="&#x13c;" horiz-adv-x="287" 
d="M255 0h-44q-58 0 -87 33t-29 92v587h51v-586q0 -43 16.5 -62t57.5 -19h35v-45zM202 -70l-64 -150h-63l72 150h55z" />
    <glyph glyph-name="Lcaron" unicode="&#x13d;" horiz-adv-x="572" 
d="M542 0h-432v712h54v-664h378v-48zM382 712l-48 -148h-47l40 148h55z" />
    <glyph glyph-name="lcaron" unicode="&#x13e;" horiz-adv-x="287" 
d="M255 0h-44q-58 0 -87 33t-29 92v587h51v-586q0 -43 16.5 -62t57.5 -19h35v-45zM303 712l-48 -148h-47l40 148h55z" />
    <glyph glyph-name="Ldot" unicode="&#x13f;" horiz-adv-x="572" 
d="M542 0h-432v712h54v-664h378v-48zM459 327h-62v63h62v-63z" />
    <glyph glyph-name="ldot" unicode="&#x140;" horiz-adv-x="293" 
d="M255 0h-44q-58 0 -87 33t-29 92v587h51v-586q0 -43 16.5 -62t57.5 -19h35v-45zM298 232h-62v63h62v-63z" />
    <glyph glyph-name="Lslash" unicode="&#x141;" horiz-adv-x="578" 
d="M548 0h-432v306l-76 -48v48l76 48v358h54v-324l164 104v-48l-164 -104v-292h378v-48z" />
    <glyph glyph-name="lslash" unicode="&#x142;" horiz-adv-x="308" 
d="M266 0h-44q-58 0 -87 33t-29 92v231l-66 -41v45l66 41v311h51v-279l88 55v-45l-88 -55v-262q0 -43 16.5 -62t57.5 -19h35v-45z" />
    <glyph glyph-name="Nacute" unicode="&#x143;" horiz-adv-x="739" 
d="M629 0h-54l-411 619v-619h-54v712h54l411 -617v617h54v-712zM486 927l-106 -147h-58l97 147h67z" />
    <glyph glyph-name="nacute" unicode="&#x144;" horiz-adv-x="559" 
d="M468 0h-51v299q0 70 -34 107t-99 37t-100.5 -37.5t-35.5 -106.5v-299h-51v482h51v-57q54 63 142 63q81 0 128 -46q50 -48 50 -134v-308zM396 737l-106 -147h-58l97 147h67z" />
    <glyph glyph-name="Ncommaaccent" unicode="&#x145;" horiz-adv-x="739" 
d="M629 0h-54l-411 619v-619h-54v712h54l411 -617v617h54v-712zM417 -70l-64 -150h-63l72 150h55z" />
    <glyph glyph-name="ncommaaccent" unicode="&#x146;" horiz-adv-x="559" 
d="M468 0h-51v299q0 70 -34 107t-99 37t-100.5 -37.5t-35.5 -106.5v-299h-51v482h51v-57q54 63 142 63q81 0 128 -46q50 -48 50 -134v-308zM337 -70l-64 -150h-63l72 150h55z" />
    <glyph glyph-name="Ncaron" unicode="&#x147;" horiz-adv-x="739" 
d="M629 0h-54l-411 619v-619h-54v712h54l411 -617v617h54v-712zM519 927l-123 -147h-54l-123 147h57l93 -109l93 109h57z" />
    <glyph glyph-name="ncaron" unicode="&#x148;" horiz-adv-x="559" 
d="M468 0h-51v299q0 70 -34 107t-99 37t-100.5 -37.5t-35.5 -106.5v-299h-51v482h51v-57q54 63 142 63q81 0 128 -46q50 -48 50 -134v-308zM429 737l-123 -147h-54l-123 147h57l93 -109l93 109h57z" />
    <glyph glyph-name="napostrophe" unicode="&#x149;" horiz-adv-x="559" 
d="M468 0h-51v299q0 70 -34 107t-99 37t-100.5 -37.5t-35.5 -106.5v-299h-51v482h51v-57q54 63 142 63q81 0 128 -46q50 -48 50 -134v-308zM97 584l-53 -56v184h53v-128z" />
    <glyph glyph-name="Eng" unicode="&#x14a;" horiz-adv-x="739" 
d="M629 -95q0 -59 -29 -92t-87 -33h-44v45h32q41 0 57.5 19t16.5 62v94l-411 619v-619h-54v712h54l411 -617v617h54v-807z" />
    <glyph glyph-name="eng" unicode="&#x14b;" horiz-adv-x="559" 
d="M468 -95q0 -59 -29 -92t-87 -33h-44v45h35q41 0 57.5 19t16.5 62v393q0 70 -34 107t-99 37t-100.5 -37.5t-35.5 -106.5v-299h-51v482h51v-57q54 63 142 63q81 0 128 -46q50 -48 50 -134v-403z" />
    <glyph glyph-name="Omacron" unicode="&#x14c;" horiz-adv-x="652" 
d="M570 356q0 -138 -12 -192.5t-59 -101.5q-68 -68 -173 -68t-173 68q-47 47 -59 101.5t-12 192.5t12 192.5t59 101.5q68 68 173 68t173 -68q47 -47 59 -101.5t12 -192.5zM516 356q0 122 -9.5 172.5t-45.5 86.5q-55 55 -135 55t-135 -55q-36 -36 -45.5 -86.5t-9.5 -172.5
t9.5 -172.5t45.5 -86.5q55 -55 135 -55t135 55q36 36 45.5 86.5t9.5 172.5zM474 800h-296v46h296v-46z" />
    <glyph glyph-name="omacron" unicode="&#x14d;" horiz-adv-x="526" 
d="M457 241q0 -134 -60 -194q-53 -53 -134 -53t-134 53q-60 60 -60 194t60 194q53 53 134 53t134 -53q60 -60 60 -194zM406 241q0 118 -43 161q-41 41 -100 41t-100 -41q-43 -43 -43 -161t43 -161q41 -41 100 -41t100 41q43 43 43 161zM411 610h-296v46h296v-46z" />
    <glyph glyph-name="Obreve" unicode="&#x14e;" horiz-adv-x="652" 
d="M570 356q0 -138 -12 -192.5t-59 -101.5q-68 -68 -173 -68t-173 68q-47 47 -59 101.5t-12 192.5t12 192.5t59 101.5q68 68 173 68t173 -68q47 -47 59 -101.5t12 -192.5zM516 356q0 122 -9.5 172.5t-45.5 86.5q-55 55 -135 55t-135 -55q-36 -36 -45.5 -86.5t-9.5 -172.5
t9.5 -172.5t45.5 -86.5q55 -55 135 -55t135 55q36 36 45.5 86.5t9.5 172.5zM491 927q-14 -135 -165 -135t-165 135h45q6 -42 37.5 -66t82.5 -24t82.5 24t37.5 66h45z" />
    <glyph glyph-name="obreve" unicode="&#x14f;" horiz-adv-x="526" 
d="M457 241q0 -134 -60 -194q-53 -53 -134 -53t-134 53q-60 60 -60 194t60 194q53 53 134 53t134 -53q60 -60 60 -194zM406 241q0 118 -43 161q-41 41 -100 41t-100 -41q-43 -43 -43 -161t43 -161q41 -41 100 -41t100 41q43 43 43 161zM403 697q-10 -120 -140 -120t-140 120
h51q8 -80 89 -80t89 80h51z" />
    <glyph glyph-name="Ohungarumlaut" unicode="&#x150;" horiz-adv-x="652" 
d="M570 356q0 -138 -12 -192.5t-59 -101.5q-68 -68 -173 -68t-173 68q-47 47 -59 101.5t-12 192.5t12 192.5t59 101.5q68 68 173 68t173 -68q47 -47 59 -101.5t12 -192.5zM516 356q0 122 -9.5 172.5t-45.5 86.5q-55 55 -135 55t-135 -55q-36 -36 -45.5 -86.5t-9.5 -172.5
t9.5 -172.5t45.5 -86.5q55 -55 135 -55t135 55q36 36 45.5 86.5t9.5 172.5zM370 927l-106 -147h-58l97 147h67zM517 927l-107 -147h-57l97 147h67z" />
    <glyph glyph-name="ohungarumlaut" unicode="&#x151;" horiz-adv-x="526" 
d="M457 241q0 -134 -60 -194q-53 -53 -134 -53t-134 53q-60 60 -60 194t60 194q53 53 134 53t134 -53q60 -60 60 -194zM406 241q0 118 -43 161q-41 41 -100 41t-100 -41q-43 -43 -43 -161t43 -161q41 -41 100 -41t100 41q43 43 43 161zM307 737l-106 -147h-58l97 147h67z
M454 737l-107 -147h-57l97 147h67z" />
    <glyph glyph-name="OE" unicode="&#x152;" horiz-adv-x="997" 
d="M941 0h-425v85q-73 -91 -190 -91q-105 0 -173 68q-47 47 -59 101.5t-12 192.5t12 192.5t59 101.5q68 68 173 68q117 0 190 -91v85h422v-47h-369q0 -48 0.5 -142.5t0.5 -142.5h313v-42h-313q0 -48 -0.5 -145t-0.5 -146h372v-47zM516 356q0 122 -9.5 172.5t-45.5 86.5
q-55 55 -135 55t-135 -55q-36 -36 -45.5 -86.5t-9.5 -172.5t9.5 -172.5t45.5 -86.5q55 -55 135 -55t135 55q36 36 45.5 86.5t9.5 172.5z" />
    <glyph glyph-name="oe" unicode="&#x153;" horiz-adv-x="860" 
d="M457 230q0 -93 40 -141.5t117 -48.5q42 0 72 13.5t61 44.5l38 -30q-39 -39 -78 -56.5t-96 -17.5q-129 0 -178 105q-23 -50 -68 -77.5t-102 -27.5q-81 0 -134 53q-60 60 -60 194t60 194q53 53 134 53q58 0 102.5 -27t67.5 -78q48 105 166 105q91 0 142 -62t51 -173v-23
h-335zM406 241q0 118 -43 161q-41 41 -100 41t-100 -41q-43 -43 -43 -161t43 -161q41 -41 100 -41t100 41q43 43 43 161zM741 271q-4 62 -17 91q-16 38 -49.5 59.5t-75.5 21.5t-76.5 -22t-48.5 -59t-17 -91h284z" />
    <glyph glyph-name="Racute" unicode="&#x154;" horiz-adv-x="657" 
d="M593 0h-63l-170 328h-196v-328h-54v712h271q90 0 147 -50.5t57 -140.5q0 -79 -44 -129t-120 -63zM531 520q0 72 -42.5 108t-114.5 36h-210v-288h210q72 0 114.5 36t42.5 108zM445 927l-106 -147h-58l97 147h67z" />
    <glyph glyph-name="racute" unicode="&#x155;" horiz-adv-x="409" 
d="M368 405q-22 22 -41.5 30t-49.5 8q-60 0 -94.5 -42.5t-34.5 -103.5v-297h-51v482h51v-64q21 33 59 51.5t82 18.5q70 0 116 -46zM322 737l-106 -147h-58l97 147h67z" />
    <glyph glyph-name="Rcommaaccent" unicode="&#x156;" horiz-adv-x="657" 
d="M593 0h-63l-170 328h-196v-328h-54v712h271q90 0 147 -50.5t57 -140.5q0 -79 -44 -129t-120 -63zM531 520q0 72 -42.5 108t-114.5 36h-210v-288h210q72 0 114.5 36t42.5 108zM385 -70l-64 -150h-63l72 150h55z" />
    <glyph glyph-name="rcommaaccent" unicode="&#x157;" horiz-adv-x="409" 
d="M368 405q-22 22 -41.5 30t-49.5 8q-60 0 -94.5 -42.5t-34.5 -103.5v-297h-51v482h51v-64q21 33 59 51.5t82 18.5q70 0 116 -46zM151 -70l-64 -150h-63l72 150h55z" />
    <glyph glyph-name="Rcaron" unicode="&#x158;" horiz-adv-x="657" 
d="M593 0h-63l-170 328h-196v-328h-54v712h271q90 0 147 -50.5t57 -140.5q0 -79 -44 -129t-120 -63zM531 520q0 72 -42.5 108t-114.5 36h-210v-288h210q72 0 114.5 36t42.5 108zM478 927l-123 -147h-54l-123 147h57l93 -109l93 109h57z" />
    <glyph glyph-name="rcaron" unicode="&#x159;" horiz-adv-x="409" 
d="M368 405q-22 22 -41.5 30t-49.5 8q-60 0 -94.5 -42.5t-34.5 -103.5v-297h-51v482h51v-64q21 33 59 51.5t82 18.5q70 0 116 -46zM355 737l-123 -147h-54l-123 147h57l93 -109l93 109h57z" />
    <glyph glyph-name="Sacute" unicode="&#x15a;" horiz-adv-x="587" 
d="M528 191q0 -90 -64.5 -143.5t-175.5 -53.5q-78 0 -132.5 22t-104.5 72l38 38q47 -47 92 -65.5t110 -18.5q85 0 134 39t49 108q0 67 -39 100q-18 16 -38.5 23.5t-64.5 14.5l-83 13q-82 12 -127 51q-56 47 -56 132q0 90 59.5 142.5t161.5 52.5q64 0 111 -18t94 -59l-35 -35
q-69 66 -173 66q-78 0 -121.5 -39t-43.5 -108q0 -64 36 -94q37 -31 102 -41l83 -13q49 -7 75.5 -17.5t51.5 -31.5q61 -53 61 -137zM410 927l-106 -147h-58l97 147h67z" />
    <glyph glyph-name="sacute" unicode="&#x15b;" horiz-adv-x="494" 
d="M438 137q0 -66 -52 -104.5t-141 -38.5q-123 0 -195 69l35 35q56 -59 158 -59q145 0 145 98q0 38 -22 57t-70 24l-80 7q-145 12 -145 126q0 63 47 100t126 37q100 0 169 -51l-34 -34q-56 41 -135 41q-60 0 -91.5 -24t-31.5 -69q0 -38 23.5 -57t74.5 -24l78 -7
q68 -7 104.5 -34t36.5 -92zM364 737l-106 -147h-58l97 147h67z" />
    <glyph glyph-name="Scircumflex" unicode="&#x15c;" horiz-adv-x="587" 
d="M528 191q0 -90 -64.5 -143.5t-175.5 -53.5q-78 0 -132.5 22t-104.5 72l38 38q47 -47 92 -65.5t110 -18.5q85 0 134 39t49 108q0 67 -39 100q-18 16 -38.5 23.5t-64.5 14.5l-83 13q-82 12 -127 51q-56 47 -56 132q0 90 59.5 142.5t161.5 52.5q64 0 111 -18t94 -59l-35 -35
q-69 66 -173 66q-78 0 -121.5 -39t-43.5 -108q0 -64 36 -94q37 -31 102 -41l83 -13q49 -7 75.5 -17.5t51.5 -31.5q61 -53 61 -137zM441 780h-57l-93 109l-93 -109h-57l123 147h54z" />
    <glyph glyph-name="scircumflex" unicode="&#x15d;" horiz-adv-x="494" 
d="M438 137q0 -66 -52 -104.5t-141 -38.5q-123 0 -195 69l35 35q56 -59 158 -59q145 0 145 98q0 38 -22 57t-70 24l-80 7q-145 12 -145 126q0 63 47 100t126 37q100 0 169 -51l-34 -34q-56 41 -135 41q-60 0 -91.5 -24t-31.5 -69q0 -38 23.5 -57t74.5 -24l78 -7
q68 -7 104.5 -34t36.5 -92zM400 590h-57l-93 109l-93 -109h-57l123 147h54z" />
    <glyph glyph-name="Scedilla" unicode="&#x15e;" horiz-adv-x="587" 
d="M528 191q0 -90 -64.5 -143.5t-175.5 -53.5q-78 0 -132.5 22t-104.5 72l38 38q47 -47 92 -65.5t110 -18.5q85 0 134 39t49 108q0 67 -39 100q-18 16 -38.5 23.5t-64.5 14.5l-83 13q-82 12 -127 51q-56 47 -56 132q0 90 59.5 142.5t161.5 52.5q64 0 111 -18t94 -59l-35 -35
q-69 66 -173 66q-78 0 -121.5 -39t-43.5 -108q0 -64 36 -94q37 -31 102 -41l83 -13q49 -7 75.5 -17.5t51.5 -31.5q61 -53 61 -137zM320 -70l-64 -150h-63l72 150h55z" />
    <glyph glyph-name="scedilla" unicode="&#x15f;" horiz-adv-x="494" 
d="M438 137q0 -66 -52 -104.5t-141 -38.5q-123 0 -195 69l35 35q56 -59 158 -59q145 0 145 98q0 38 -22 57t-70 24l-80 7q-145 12 -145 126q0 63 47 100t126 37q100 0 169 -51l-34 -34q-56 41 -135 41q-60 0 -91.5 -24t-31.5 -69q0 -38 23.5 -57t74.5 -24l78 -7
q68 -7 104.5 -34t36.5 -92zM277 -70l-64 -150h-63l72 150h55z" />
    <glyph glyph-name="Scaron" unicode="&#x160;" horiz-adv-x="587" 
d="M528 191q0 -90 -64.5 -143.5t-175.5 -53.5q-78 0 -132.5 22t-104.5 72l38 38q47 -47 92 -65.5t110 -18.5q85 0 134 39t49 108q0 67 -39 100q-18 16 -38.5 23.5t-64.5 14.5l-83 13q-82 12 -127 51q-56 47 -56 132q0 90 59.5 142.5t161.5 52.5q64 0 111 -18t94 -59l-35 -35
q-69 66 -173 66q-78 0 -121.5 -39t-43.5 -108q0 -64 36 -94q37 -31 102 -41l83 -13q49 -7 75.5 -17.5t51.5 -31.5q61 -53 61 -137zM437 927l-123 -147h-54l-123 147h57l93 -109l93 109h57z" />
    <glyph glyph-name="scaron" unicode="&#x161;" horiz-adv-x="494" 
d="M438 137q0 -66 -52 -104.5t-141 -38.5q-123 0 -195 69l35 35q56 -59 158 -59q145 0 145 98q0 38 -22 57t-70 24l-80 7q-145 12 -145 126q0 63 47 100t126 37q100 0 169 -51l-34 -34q-56 41 -135 41q-60 0 -91.5 -24t-31.5 -69q0 -38 23.5 -57t74.5 -24l78 -7
q68 -7 104.5 -34t36.5 -92zM394 737l-123 -147h-54l-123 147h57l93 -109l93 109h57z" />
    <glyph glyph-name="Tcommaaccent" unicode="&#x162;" horiz-adv-x="539" 
d="M509 664h-213v-664h-54v664h-212v48h479v-48zM297 -70l-64 -150h-63l72 150h55z" />
    <glyph glyph-name="tcommaaccent" unicode="&#x163;" horiz-adv-x="325" 
d="M269 0h-44q-55 0 -85.5 34.5t-30.5 91.5v318h-66v38h66v154h51v-154h109v-38h-109v-319q0 -80 74 -80h35v-45zM221 -70l-64 -150h-63l72 150h55z" />
    <glyph glyph-name="Tcaron" unicode="&#x164;" horiz-adv-x="539" 
d="M509 664h-213v-664h-54v664h-212v48h479v-48zM419 927l-123 -147h-54l-123 147h57l93 -109l93 109h57z" />
    <glyph glyph-name="tcaron" unicode="&#x165;" horiz-adv-x="325" 
d="M269 0h-44q-55 0 -85.5 34.5t-30.5 91.5v318h-66v38h66v154h51v-154h109v-38h-109v-319q0 -80 74 -80h35v-45zM318 712l-48 -148h-47l40 148h55z" />
    <glyph glyph-name="Tbar" unicode="&#x166;" horiz-adv-x="539" 
d="M509 664h-213v-284h129v-42h-129v-338h-54v338h-130v42h130v284h-212v48h479v-48z" />
    <glyph glyph-name="tbar" unicode="&#x167;" horiz-adv-x="325" 
d="M269 0h-44q-55 0 -85.5 34.5t-30.5 91.5v119h-66v38h66v161h-66v38h66v154h51v-154h109v-38h-109v-161h109v-38h-109v-120q0 -80 74 -80h35v-45z" />
    <glyph glyph-name="Utilde" unicode="&#x168;" horiz-adv-x="688" 
d="M588 231q0 -104 -68.5 -170.5t-175.5 -66.5t-175.5 66.5t-68.5 170.5v481h54v-474q0 -89 52 -142.5t138 -53.5t138 53.5t52 142.5v474h54v-481zM496 843q-48 -48 -89 -48q-28 0 -69 24q-36 21 -56 21q-26 0 -59 -33l-30 29q48 48 89 48q31 0 69 -24q34 -21 56 -21
q26 0 59 33z" />
    <glyph glyph-name="utilde" unicode="&#x169;" horiz-adv-x="559" 
d="M462 0h-51v57q-54 -63 -142 -63q-81 0 -128 46q-50 48 -50 134v308h51v-299q0 -70 34 -107t99 -37t100.5 37.5t35.5 106.5v299h51v-482zM428 653q-48 -48 -89 -48q-28 0 -69 24q-36 21 -56 21q-26 0 -59 -33l-30 29q48 48 89 48q31 0 69 -24q34 -21 56 -21q26 0 59 33z
" />
    <glyph glyph-name="Umacron" unicode="&#x16a;" horiz-adv-x="688" 
d="M588 231q0 -104 -68.5 -170.5t-175.5 -66.5t-175.5 66.5t-68.5 170.5v481h54v-474q0 -89 52 -142.5t138 -53.5t138 53.5t52 142.5v474h54v-481zM492 800h-296v46h296v-46z" />
    <glyph glyph-name="umacron" unicode="&#x16b;" horiz-adv-x="559" 
d="M462 0h-51v57q-54 -63 -142 -63q-81 0 -128 46q-50 48 -50 134v308h51v-299q0 -70 34 -107t99 -37t100.5 37.5t35.5 106.5v299h51v-482zM427 610h-296v46h296v-46z" />
    <glyph glyph-name="Ubreve" unicode="&#x16c;" horiz-adv-x="688" 
d="M588 231q0 -104 -68.5 -170.5t-175.5 -66.5t-175.5 66.5t-68.5 170.5v481h54v-474q0 -89 52 -142.5t138 -53.5t138 53.5t52 142.5v474h54v-481zM509 927q-14 -135 -165 -135t-165 135h45q6 -42 37.5 -66t82.5 -24t82.5 24t37.5 66h45z" />
    <glyph glyph-name="ubreve" unicode="&#x16d;" horiz-adv-x="559" 
d="M462 0h-51v57q-54 -63 -142 -63q-81 0 -128 46q-50 48 -50 134v308h51v-299q0 -70 34 -107t99 -37t100.5 37.5t35.5 106.5v299h51v-482zM440 722q-14 -135 -165 -135t-165 135h45q6 -42 37.5 -66t82.5 -24t82.5 24t37.5 66h45z" />
    <glyph glyph-name="Uring" unicode="&#x16e;" horiz-adv-x="688" 
d="M588 231q0 -104 -68.5 -170.5t-175.5 -66.5t-175.5 66.5t-68.5 170.5v481h54v-474q0 -89 52 -142.5t138 -53.5t138 53.5t52 142.5v474h54v-481zM458 867q0 -47 -33.5 -81t-80.5 -34t-80.5 34t-33.5 81t33.5 80.5t80.5 33.5t80.5 -33.5t33.5 -80.5zM417 867q0 30 -21.5 51
t-51.5 21t-51.5 -21t-21.5 -51t21.5 -51.5t51.5 -21.5t51.5 21.5t21.5 51.5z" />
    <glyph glyph-name="uring" unicode="&#x16f;" horiz-adv-x="559" 
d="M462 0h-51v57q-54 -63 -142 -63q-81 0 -128 46q-50 48 -50 134v308h51v-299q0 -70 34 -107t99 -37t100.5 37.5t35.5 106.5v299h51v-482zM393 677q0 -47 -33.5 -81t-80.5 -34t-80.5 34t-33.5 81t33.5 80.5t80.5 33.5t80.5 -33.5t33.5 -80.5zM352 677q0 30 -21.5 51
t-51.5 21t-51.5 -21t-21.5 -51t21.5 -51.5t51.5 -21.5t51.5 21.5t21.5 51.5z" />
    <glyph glyph-name="Uhungarumlaut" unicode="&#x170;" horiz-adv-x="688" 
d="M588 231q0 -104 -68.5 -170.5t-175.5 -66.5t-175.5 66.5t-68.5 170.5v481h54v-474q0 -89 52 -142.5t138 -53.5t138 53.5t52 142.5v474h54v-481zM388 927l-106 -147h-58l97 147h67zM535 927l-107 -147h-57l97 147h67z" />
    <glyph glyph-name="uhungarumlaut" unicode="&#x171;" horiz-adv-x="559" 
d="M462 0h-51v57q-54 -63 -142 -63q-81 0 -128 46q-50 48 -50 134v308h51v-299q0 -70 34 -107t99 -37t100.5 37.5t35.5 106.5v299h51v-482zM323 737l-106 -147h-58l97 147h67zM470 737l-107 -147h-57l97 147h67z" />
    <glyph glyph-name="Uogonek" unicode="&#x172;" horiz-adv-x="688" 
d="M588 231q0 -104 -68.5 -170.5t-175.5 -66.5t-175.5 66.5t-68.5 170.5v481h54v-474q0 -89 52 -142.5t138 -53.5t138 53.5t52 142.5v474h54v-481zM484 -70l-64 -150h-63l72 150h55z" />
    <glyph glyph-name="uogonek" unicode="&#x173;" horiz-adv-x="559" 
d="M462 0h-51v57q-54 -63 -142 -63q-81 0 -128 46q-50 48 -50 134v308h51v-299q0 -70 34 -107t99 -37t100.5 37.5t35.5 106.5v299h51v-482zM466 -70l-64 -150h-63l72 150h55z" />
    <glyph glyph-name="Wcircumflex" unicode="&#x174;" horiz-adv-x="842" 
d="M822 712l-178 -712h-55l-168 620l-168 -620h-55l-178 712h57l150 -619l166 619h56l166 -619l150 619h57zM571 780h-57l-93 109l-93 -109h-57l123 147h54z" />
    <glyph glyph-name="wcircumflex" unicode="&#x175;" horiz-adv-x="712" 
d="M698 482l-154 -482h-52l-136 402l-136 -402h-52l-154 482h56l123 -422l138 422h50l138 -422l123 422h56zM506 590h-57l-93 109l-93 -109h-57l123 147h54z" />
    <glyph glyph-name="Ycircumflex" unicode="&#x176;" horiz-adv-x="494" 
d="M484 712l-210 -417v-295h-54v295l-210 417h58l181 -360l177 360h58zM399 780h-57l-93 109l-93 -109h-57l123 147h54z" />
    <glyph glyph-name="ycircumflex" unicode="&#x177;" horiz-adv-x="430" 
d="M416 482l-224 -613q-14 -40 -33 -56q-32 -31 -91 -31h-24v45h19q40 0 57.5 14t30.5 52l39 107l-176 482h56l145 -422l145 422h56zM365 590h-57l-93 109l-93 -109h-57l123 147h54z" />
    <glyph glyph-name="Ydieresis" unicode="&#x178;" horiz-adv-x="494" 
d="M484 712l-210 -417v-295h-54v295l-210 417h58l181 -360l177 360h58zM172 790h-58v77h58v-77zM380 790h-58v77h58v-77z" />
    <glyph glyph-name="Zacute" unicode="&#x179;" horiz-adv-x="559" 
d="M496 0h-433v57l375 607h-360v48h418v-48l-378 -616h378v-48zM396 927l-106 -147h-58l97 147h67z" />
    <glyph glyph-name="zacute" unicode="&#x17a;" horiz-adv-x="452" 
d="M398 0h-344v48l290 389h-274v45h328v-48l-291 -389h291v-45zM343 737l-106 -147h-58l97 147h67z" />
    <glyph glyph-name="Zdotaccent" unicode="&#x17b;" horiz-adv-x="559" 
d="M496 0h-433v57l375 607h-360v48h418v-48l-378 -616h378v-48zM310 800h-62v63h62v-63z" />
    <glyph glyph-name="zdotaccent" unicode="&#x17c;" horiz-adv-x="452" 
d="M398 0h-344v48l290 389h-274v45h328v-48l-291 -389h291v-45zM257 610h-62v63h62v-63z" />
    <glyph glyph-name="Zcaron" unicode="&#x17d;" horiz-adv-x="559" 
d="M496 0h-433v57l375 607h-360v48h418v-48l-378 -616h378v-48zM437 927l-123 -147h-54l-123 147h57l93 -109l93 109h57z" />
    <glyph glyph-name="zcaron" unicode="&#x17e;" horiz-adv-x="452" 
d="M398 0h-344v48l290 389h-274v45h328v-48l-291 -389h291v-45zM384 737l-123 -147h-54l-123 147h57l93 -109l93 109h57z" />
    <glyph glyph-name="longs" unicode="&#x17f;" horiz-adv-x="245" 
d="M257 667h-35q-74 0 -74 -80v-587h-51v586q0 57 30.5 91.5t85.5 34.5h44v-45z" />
    <glyph glyph-name="uni018F" unicode="&#x18f;" horiz-adv-x="651" 
d="M569 356q0 -138 -12 -192.5t-59 -101.5q-68 -68 -173 -68q-113 0 -187 82q-58 65 -58 172v116h435q0 116 -9.5 165.5t-45.5 85.5q-55 55 -135 55q-72 0 -122.5 -43t-66.5 -117h-54q16 94 83 151t160 57q105 0 173 -68q47 -47 59 -101.5t12 -192.5zM515 316h-381v-64
q0 -87 43 -141q57 -69 148 -69q80 0 135 55q33 33 43.5 78.5t11.5 140.5z" />
    <glyph glyph-name="florin" unicode="&#x192;" horiz-adv-x="394" 
d="M364 667h-43q-74 0 -88 -80l-36 -207h109v-38h-116l-101 -572h-51l101 572h-109v38h116l36 206q10 57 46.5 91.5t91.5 34.5h44v-45z" />
    <glyph glyph-name="uni01B5" unicode="&#x1b5;" horiz-adv-x="559" 
d="M496 0h-433v57l173 281h-113v42h139l176 284h-360v48h418v-48l-174 -284h114v-42h-140l-178 -290h378v-48z" />
    <glyph glyph-name="uni01B6" unicode="&#x1b6;" horiz-adv-x="452" 
d="M398 0h-344v48l130 175h-84v36h111l133 178h-274v45h328v-48l-131 -175h84v-36h-111l-133 -178h291v-45z" />
    <glyph glyph-name="uni01C4" unicode="&#x1c4;" horiz-adv-x="1237" 
d="M596 356q0 -70 -2.5 -110.5t-18.5 -94.5t-48 -86q-65 -65 -178 -65h-239v712h239q113 0 178 -65q32 -32 48 -86t18.5 -94.5t2.5 -110.5zM542 356q0 64 -1.5 98.5t-14 81.5t-37.5 73q-52 55 -153 55h-172v-616h172q101 0 153 55q25 26 37.5 73t14 81.5t1.5 98.5zM1174 0
h-433v57l375 607h-360v48h418v-48l-378 -616h378v-48zM1115 927l-123 -147h-54l-123 147h57l93 -109l93 109h57z" />
    <glyph glyph-name="uni01C5" unicode="&#x1c5;" horiz-adv-x="1130" 
d="M596 356q0 -70 -2.5 -110.5t-18.5 -94.5t-48 -86q-65 -65 -178 -65h-239v712h239q113 0 178 -65q32 -32 48 -86t18.5 -94.5t2.5 -110.5zM542 356q0 64 -1.5 98.5t-14 81.5t-37.5 73q-52 55 -153 55h-172v-616h172q101 0 153 55q25 26 37.5 73t14 81.5t1.5 98.5zM1076 0
h-344v48l290 389h-274v45h328v-48l-291 -389h291v-45zM1062 737l-123 -147h-54l-123 147h57l93 -109l93 109h57z" />
    <glyph glyph-name="uni01C6" unicode="&#x1c6;" horiz-adv-x="992" 
d="M443 0h-51v62q-30 -39 -64 -53.5t-79 -14.5q-76 0 -118 42q-62 62 -62 205t62 205q42 42 118 42q45 0 79 -14.5t64 -53.5v292h51v-712zM392 241q0 43 -5 75t-18.5 63t-42 47.5t-70.5 16.5t-70.5 -16.5t-42 -47.5t-18.5 -63t-5 -75t5 -75t18.5 -63t42 -47.5t70.5 -16.5
t70.5 16.5t42 47.5t18.5 63t5 75zM938 0h-344v48l290 389h-274v45h328v-48l-291 -389h291v-45zM924 737l-123 -147h-54l-123 147h57l93 -109l93 109h57z" />
    <glyph glyph-name="uni01C7" unicode="&#x1c7;" horiz-adv-x="1070" 
d="M542 0h-432v712h54v-664h378v-48zM970 210q0 -98 -58 -157t-154 -59q-95 0 -156 61l37 37q25 -25 50.5 -37.5t68.5 -12.5q77 0 117.5 46t40.5 133v491h54v-502z" />
    <glyph glyph-name="uni01C8" unicode="&#x1c8;" horiz-adv-x="817" 
d="M542 0h-432v712h54v-664h378v-48zM720 -105q0 -59 -29 -92t-87 -33h-44v45h35q41 0 57.5 19t16.5 62v586h51v-587zM726 649h-63v63h63v-63z" />
    <glyph glyph-name="uni01C9" unicode="&#x1c9;" horiz-adv-x="532" 
d="M255 0h-44q-58 0 -87 33t-29 92v587h51v-586q0 -43 16.5 -62t57.5 -19h35v-45zM435 -105q0 -59 -29 -92t-87 -33h-44v45h35q41 0 57.5 19t16.5 62v586h51v-587zM441 649h-63v63h63v-63z" />
    <glyph glyph-name="uni01CA" unicode="&#x1ca;" horiz-adv-x="1237" 
d="M629 0h-54l-411 619v-619h-54v712h54l411 -617v617h54v-712zM1137 210q0 -98 -58 -157t-154 -59q-95 0 -156 61l37 37q25 -25 50.5 -37.5t68.5 -12.5q77 0 117.5 46t40.5 133v491h54v-502z" />
    <glyph glyph-name="uni01CB" unicode="&#x1cb;" horiz-adv-x="984" 
d="M629 0h-54l-411 619v-619h-54v712h54l411 -617v617h54v-712zM887 -105q0 -59 -29 -92t-87 -33h-44v45h35q41 0 57.5 19t16.5 62v586h51v-587zM893 649h-63v63h63v-63z" />
    <glyph glyph-name="uni01CC" unicode="&#x1cc;" horiz-adv-x="804" 
d="M468 0h-51v299q0 70 -34 107t-99 37t-100.5 -37.5t-35.5 -106.5v-299h-51v482h51v-57q54 63 142 63q81 0 128 -46q50 -48 50 -134v-308zM707 -105q0 -59 -29 -92t-87 -33h-44v45h35q41 0 57.5 19t16.5 62v586h51v-587zM713 649h-63v63h63v-63z" />
    <glyph glyph-name="uni01F1" unicode="&#x1f1;" horiz-adv-x="1237" 
d="M596 356q0 -70 -2.5 -110.5t-18.5 -94.5t-48 -86q-65 -65 -178 -65h-239v712h239q113 0 178 -65q32 -32 48 -86t18.5 -94.5t2.5 -110.5zM542 356q0 64 -1.5 98.5t-14 81.5t-37.5 73q-52 55 -153 55h-172v-616h172q101 0 153 55q25 26 37.5 73t14 81.5t1.5 98.5zM1174 0
h-433v57l375 607h-360v48h418v-48l-378 -616h378v-48z" />
    <glyph glyph-name="uni01F2" unicode="&#x1f2;" horiz-adv-x="1130" 
d="M596 356q0 -70 -2.5 -110.5t-18.5 -94.5t-48 -86q-65 -65 -178 -65h-239v712h239q113 0 178 -65q32 -32 48 -86t18.5 -94.5t2.5 -110.5zM542 356q0 64 -1.5 98.5t-14 81.5t-37.5 73q-52 55 -153 55h-172v-616h172q101 0 153 55q25 26 37.5 73t14 81.5t1.5 98.5zM1076 0
h-344v48l290 389h-274v45h328v-48l-291 -389h291v-45z" />
    <glyph glyph-name="uni01F3" unicode="&#x1f3;" horiz-adv-x="992" 
d="M443 0h-51v62q-30 -39 -64 -53.5t-79 -14.5q-76 0 -118 42q-62 62 -62 205t62 205q42 42 118 42q45 0 79 -14.5t64 -53.5v292h51v-712zM392 241q0 43 -5 75t-18.5 63t-42 47.5t-70.5 16.5t-70.5 -16.5t-42 -47.5t-18.5 -63t-5 -75t5 -75t18.5 -63t42 -47.5t70.5 -16.5
t70.5 16.5t42 47.5t18.5 63t5 75zM938 0h-344v48l290 389h-274v45h328v-48l-291 -389h291v-45z" />
    <glyph glyph-name="Aringacute" unicode="&#x1fa;" horiz-adv-x="602" 
d="M587 0h-58l-62 173h-332l-62 -173h-58l262 712h48zM301 640l-149 -419h298zM415 861q0 -47 -33.5 -81t-80.5 -34t-80.5 34t-33.5 81t33.5 80.5t80.5 33.5t80.5 -33.5t33.5 -80.5zM374 861q0 30 -21.5 51t-51.5 21t-51.5 -21t-21.5 -51t21.5 -51.5t51.5 -21.5t51.5 21.5
t21.5 51.5zM418 1132l-106 -147h-58l97 147h67z" />
    <glyph glyph-name="aringacute" unicode="&#x1fb;" horiz-adv-x="524" 
d="M431 0h-51v48q-30 -30 -62.5 -42t-84.5 -12q-99 0 -142 44q-35 35 -35 94q0 66 44.5 102.5t123.5 36.5h156v54q0 59 -32 88.5t-104 29.5q-50 0 -79.5 -14t-53.5 -47l-37 32q30 41 69.5 57.5t100.5 16.5q187 0 187 -158v-330zM380 168v62h-150q-123 0 -123 -97
q0 -48 30 -71t96 -23q81 0 120 37q27 26 27 92zM363 677q0 -47 -33.5 -81t-80.5 -34t-80.5 34t-33.5 81t33.5 80.5t80.5 33.5t80.5 -33.5t33.5 -80.5zM322 677q0 30 -21.5 51t-51.5 21t-51.5 -21t-21.5 -51t21.5 -51.5t51.5 -21.5t51.5 21.5t21.5 51.5zM366 948l-106 -147
h-58l97 147h67z" />
    <glyph glyph-name="AEacute" unicode="&#x1fc;" horiz-adv-x="901" 
d="M845 0h-431v173h-255l-90 -173h-59l377 712h458v-48h-378v-284h322v-48h-322v-284h378v-48zM414 221v443l-232 -443h232zM571 927l-106 -147h-58l97 147h67z" />
    <glyph glyph-name="aeacute" unicode="&#x1fd;" horiz-adv-x="834" 
d="M766 230h-335q0 -93 40 -141.5t117 -48.5q42 0 72 13.5t61 44.5l38 -30q-39 -39 -78 -56.5t-97 -17.5q-122 0 -172 90q-30 -49 -71 -69.5t-108 -20.5q-99 0 -142 44q-35 35 -35 94q0 66 44.5 102.5t123.5 36.5h156v54q0 59 -32 88.5t-104 29.5q-50 0 -79.5 -14t-53.5 -47
l-37 32q30 41 69.5 57.5t100.5 16.5q136 0 173 -85q50 85 156 85q91 0 142 -62t51 -173v-23zM380 230h-150q-123 0 -123 -97q0 -48 30 -71t96 -23q81 0 120 37q27 26 27 92v62zM715 271q-4 62 -17 91q-16 38 -49.5 59.5t-75.5 21.5q-43 0 -76.5 -21.5t-48.5 -59.5
q-13 -35 -17 -91h284zM544 737l-106 -147h-58l97 147h67z" />
    <glyph glyph-name="Oslashacute" unicode="&#x1fe;" horiz-adv-x="652" 
d="M570 356q0 -138 -12 -192.5t-59 -101.5q-68 -68 -173 -68q-71 0 -130 35l-35 -73h-53l49 102q-51 49 -63 104t-12 194q0 138 12 192.5t59 101.5q68 68 173 68q73 0 130 -35l35 73h53l-49 -102q51 -50 63 -104.5t12 -193.5zM434 637q-48 33 -108 33q-80 0 -135 -55
q-36 -36 -45.5 -86.5t-9.5 -172.5q0 -115 7.5 -164.5t37.5 -83.5zM516 356q0 113 -8 163t-37 85l-253 -529q48 -33 108 -33q80 0 135 55q36 36 45.5 86.5t9.5 172.5zM443 927l-106 -147h-58l97 147h67z" />
    <glyph glyph-name="oslashacute" unicode="&#x1ff;" horiz-adv-x="526" 
d="M457 241q0 -134 -60 -194q-53 -53 -134 -53q-58 0 -105 29l-40 -67h-48l56 94q-57 61 -57 191q0 134 60 194q53 53 134 53q60 0 105 -30l40 68h48l-56 -94q57 -61 57 -191zM344 418q-35 25 -81 25q-59 0 -100 -41q-43 -43 -43 -161q0 -106 32 -148zM406 241
q0 106 -32 148l-192 -325q35 -25 81 -25q59 0 100 41q43 43 43 161zM380 737l-106 -147h-58l97 147h67z" />
    <glyph glyph-name="Scommaaccent" unicode="&#x218;" horiz-adv-x="587" 
d="M528 191q0 -90 -64.5 -143.5t-175.5 -53.5q-78 0 -132.5 22t-104.5 72l38 38q47 -47 92 -65.5t110 -18.5q85 0 134 39t49 108q0 67 -39 100q-18 16 -38.5 23.5t-64.5 14.5l-83 13q-82 12 -127 51q-56 47 -56 132q0 90 59.5 142.5t161.5 52.5q64 0 111 -18t94 -59l-35 -35
q-69 66 -173 66q-78 0 -121.5 -39t-43.5 -108q0 -64 36 -94q37 -31 102 -41l83 -13q49 -7 75.5 -17.5t51.5 -31.5q61 -53 61 -137zM320 -70l-64 -150h-63l72 150h55z" />
    <glyph glyph-name="scommaaccent" unicode="&#x219;" horiz-adv-x="494" 
d="M438 137q0 -66 -52 -104.5t-141 -38.5q-123 0 -195 69l35 35q56 -59 158 -59q145 0 145 98q0 38 -22 57t-70 24l-80 7q-145 12 -145 126q0 63 47 100t126 37q100 0 169 -51l-34 -34q-56 41 -135 41q-60 0 -91.5 -24t-31.5 -69q0 -38 23.5 -57t74.5 -24l78 -7
q68 -7 104.5 -34t36.5 -92zM277 -70l-64 -150h-63l72 150h55z" />
    <glyph glyph-name="uni021A" unicode="&#x21a;" horiz-adv-x="539" 
d="M509 664h-213v-664h-54v664h-212v48h479v-48zM297 -70l-64 -150h-63l72 150h55z" />
    <glyph glyph-name="uni021B" unicode="&#x21b;" horiz-adv-x="325" 
d="M269 0h-44q-55 0 -85.5 34.5t-30.5 91.5v318h-66v38h66v154h51v-154h109v-38h-109v-319q0 -80 74 -80h35v-45zM221 -70l-64 -150h-63l72 150h55z" />
    <glyph glyph-name="uni0237" unicode="&#x237;" horiz-adv-x="245" 
d="M148 -105q0 -59 -29 -92t-87 -33h-44v45h35q41 0 57.5 19t16.5 62v586h51v-587z" />
    <glyph glyph-name="uni0259" unicode="&#x259;" horiz-adv-x="523" 
d="M68 252h335q0 93 -40 141.5t-117 48.5q-42 0 -72 -13.5t-61 -44.5l-38 30q39 39 78 56.5t96 17.5q100 0 152.5 -63t52.5 -184q0 -117 -51 -182t-142 -65t-142 62t-51 173v23zM119 211q4 -62 17 -91q16 -38 49.5 -59.5t75.5 -21.5t75 21.5t50 59.5q13 29 17 91h-284z" />
    <glyph glyph-name="uni02BB" unicode="&#x2bb;" horiz-adv-x="260" 
d="M165 642h-70v70l70 70v-140z" />
    <glyph glyph-name="afii57929" unicode="&#x2bc;" horiz-adv-x="260" 
d="M165 642l-70 -70v140h70v-70z" />
    <glyph glyph-name="circumflex" unicode="&#x2c6;" horiz-adv-x="500" 
d="M400 590h-57l-93 109l-93 -109h-57l123 147h54z" />
    <glyph glyph-name="caron" unicode="&#x2c7;" horiz-adv-x="500" 
d="M400 737l-123 -147h-54l-123 147h57l93 -109l93 109h57z" />
    <glyph glyph-name="breve" unicode="&#x2d8;" horiz-adv-x="500" 
d="M415 722q-14 -135 -165 -135t-165 135h45q6 -42 37.5 -66t82.5 -24t82.5 24t37.5 66h45z" />
    <glyph glyph-name="dotaccent" unicode="&#x2d9;" horiz-adv-x="500" 
d="M281 610h-62v63h62v-63z" />
    <glyph glyph-name="ring" unicode="&#x2da;" horiz-adv-x="500" 
d="M364 677q0 -47 -33.5 -81t-80.5 -34t-80.5 34t-33.5 81t33.5 80.5t80.5 33.5t80.5 -33.5t33.5 -80.5zM323 677q0 30 -21.5 51t-51.5 21t-51.5 -21t-21.5 -51t21.5 -51.5t51.5 -21.5t51.5 21.5t21.5 51.5z" />
    <glyph glyph-name="ogonek" unicode="&#x2db;" horiz-adv-x="500" 
d="M355 -70l-64 -150h-63l72 150h55z" />
    <glyph glyph-name="tilde" unicode="&#x2dc;" horiz-adv-x="500" 
d="M399 653q-48 -48 -89 -48q-27 0 -69 24q-36 21 -56 21q-26 0 -59 -33l-30 29q48 48 89 48q31 0 69 -24q34 -21 56 -21q26 0 59 33z" />
    <glyph glyph-name="hungarumlaut" unicode="&#x2dd;" horiz-adv-x="500" 
d="M294 737l-106 -147h-58l97 147h67zM441 737l-107 -147h-57l97 147h67z" />
    <glyph glyph-name="uni037E" unicode="&#x37e;" horiz-adv-x="292" 
d="M193 -68l-68 -68v204h68v-136zM197 312h-74v74h74v-74z" />
    <glyph glyph-name="tonos" unicode="&#x384;" horiz-adv-x="253" 
d="M159 615l-58 -33v130h58v-97z" />
    <glyph glyph-name="dieresistonos" unicode="&#x385;" horiz-adv-x="500" 
d="M383 600h-58v77h58v-77zM279 615l-58 -33v130h58v-97zM175 600h-58v77h58v-77z" />
    <glyph glyph-name="Alphatonos" unicode="&#x386;" horiz-adv-x="602" 
d="M587 0h-58l-62 173h-332l-62 -173h-58l262 712h48zM450 221l-149 419l-149 -419h298zM68 615l-58 -33v130h58v-97z" />
    <glyph glyph-name="anoteleia" unicode="&#x387;" horiz-adv-x="264" 
d="M169 227h-74v74h74v-74z" />
    <glyph glyph-name="Epsilontonos" unicode="&#x388;" horiz-adv-x="598" 
d="M542 0h-432v712h432v-48h-378v-281h322v-48h-322v-287h378v-48zM8 615l-58 -33v130h58v-97z" />
    <glyph glyph-name="Etatonos" unicode="&#x389;" horiz-adv-x="699" 
d="M589 0h-54v335h-371v-335h-54v712h54v-329h371v329h54v-712zM8 615l-58 -33v130h58v-97z" />
    <glyph glyph-name="Iotatonos" unicode="&#x38a;" horiz-adv-x="274" 
d="M164 0h-54v712h54v-712zM8 615l-58 -33v130h58v-97z" />
    <glyph glyph-name="Omicrontonos" unicode="&#x38c;" horiz-adv-x="652" 
d="M570 356q0 -138 -12 -192.5t-59 -101.5q-68 -68 -173 -68t-173 68q-47 47 -59 101.5t-12 192.5t12 192.5t59 101.5q68 68 173 68t173 -68q47 -47 59 -101.5t12 -192.5zM516 356q0 122 -9.5 172.5t-45.5 86.5q-55 55 -135 55t-135 -55q-36 -36 -45.5 -86.5t-9.5 -172.5
t9.5 -172.5t45.5 -86.5q55 -55 135 -55t135 55q36 36 45.5 86.5t9.5 172.5zM28 615l-58 -33v130h58v-97z" />
    <glyph glyph-name="Upsilontonos" unicode="&#x38e;" horiz-adv-x="494" 
d="M484 712l-210 -417v-295h-54v295l-210 417h58l181 -360l177 360h58zM-12 615l-58 -33v130h58v-97z" />
    <glyph glyph-name="Omegatonos" unicode="&#x38f;" horiz-adv-x="652" 
d="M570 356q0 -101 -5 -152t-24 -86q-20 -38 -62 -71h91v-47h-186v47q73 35 105 88q17 28 22 78t5 143q0 122 -9.5 172.5t-45.5 86.5q-55 55 -135 55t-135 -55q-36 -36 -45.5 -86.5t-9.5 -172.5q0 -93 5 -143t22 -78q32 -53 105 -88v-47h-186v47h91q-42 33 -62 71
q-19 35 -24 86t-5 152q0 138 12 192.5t59 101.5q68 68 173 68t173 -68q47 -47 59 -101.5t12 -192.5zM28 615l-58 -33v130h58v-97z" />
    <glyph glyph-name="iotadieresistonos" unicode="&#x390;" horiz-adv-x="287" 
d="M255 0h-44q-58 0 -87 33t-29 92v357h51v-356q0 -43 16.5 -62t57.5 -19h35v-45zM253 600h-58v77h58v-77zM149 615l-58 -33v130h58v-97zM45 600h-58v77h58v-77z" />
    <glyph glyph-name="Alpha" unicode="&#x391;" horiz-adv-x="602" 
d="M587 0h-58l-62 173h-332l-62 -173h-58l262 712h48zM450 221l-149 419l-149 -419h298z" />
    <glyph glyph-name="Beta" unicode="&#x392;" horiz-adv-x="671" 
d="M589 194q0 -93 -56.5 -143.5t-152.5 -50.5h-270v712h262q91 0 148.5 -50t57.5 -136q0 -57 -29.5 -100t-81.5 -60q58 -20 90 -65t32 -107zM535 194q0 68 -43.5 107t-117.5 39h-210v-292h210q74 0 117.5 39t43.5 107zM524 526q0 70 -44 104t-114 34h-202v-276h202
q70 0 114 34t44 104z" />
    <glyph glyph-name="Gamma" unicode="&#x393;" horiz-adv-x="554" 
d="M530 664h-358v-664h-54v712h412v-48z" />
    <glyph glyph-name="uni0394" unicode="&#x394;" horiz-adv-x="591" 
d="M581 0h-571l262 712h47zM511 48l-216 592l-215 -592h431z" />
    <glyph glyph-name="Epsilon" unicode="&#x395;" horiz-adv-x="598" 
d="M542 0h-432v712h432v-48h-378v-281h322v-48h-322v-287h378v-48z" />
    <glyph glyph-name="Zeta" unicode="&#x396;" horiz-adv-x="559" 
d="M496 0h-433v57l375 607h-360v48h418v-48l-378 -616h378v-48z" />
    <glyph glyph-name="Eta" unicode="&#x397;" horiz-adv-x="699" 
d="M589 0h-54v335h-371v-335h-54v712h54v-329h371v329h54v-712z" />
    <glyph glyph-name="Theta" unicode="&#x398;" horiz-adv-x="652" 
d="M570 356q0 -138 -12 -192.5t-59 -101.5q-68 -68 -173 -68t-173 68q-47 47 -59 101.5t-12 192.5t12 192.5t59 101.5q68 68 173 68t173 -68q47 -47 59 -101.5t12 -192.5zM516 335h-380q0 -107 10 -155.5t45 -82.5q55 -55 135 -55t135 55q34 34 44 82t11 156zM516 383
q-1 104 -11 151t-44 81q-55 55 -135 55t-135 -55q-34 -34 -44.5 -81.5t-10.5 -150.5h380z" />
    <glyph glyph-name="Iota" unicode="&#x399;" horiz-adv-x="274" 
d="M164 0h-54v712h54v-712z" />
    <glyph glyph-name="Kappa" unicode="&#x39a;" horiz-adv-x="645" 
d="M627 0h-64l-229 399l-170 -206v-193h-54v712h54v-445l361 445h65l-220 -272z" />
    <glyph glyph-name="Lambda" unicode="&#x39b;" horiz-adv-x="570" 
d="M545 0h-57l-203 640l-203 -640h-57l234 712h52z" />
    <glyph glyph-name="Mu" unicode="&#x39c;" horiz-adv-x="818" 
d="M708 0h-54v587l-216 -487h-54l-220 487v-587h-54v712h54l248 -549l242 549h54v-712z" />
    <glyph glyph-name="Nu" unicode="&#x39d;" horiz-adv-x="739" 
d="M629 0h-54l-411 619v-619h-54v712h54l411 -617v617h54v-712z" />
    <glyph glyph-name="Xi" unicode="&#x39e;" horiz-adv-x="564" 
d="M508 0h-452v48h199v287h-143v48h143v281h-199v48h452v-48h-199v-281h143v-48h-143v-287h199v-48z" />
    <glyph glyph-name="Omicron" unicode="&#x39f;" horiz-adv-x="652" 
d="M570 356q0 -138 -12 -192.5t-59 -101.5q-68 -68 -173 -68t-173 68q-47 47 -59 101.5t-12 192.5t12 192.5t59 101.5q68 68 173 68t173 -68q47 -47 59 -101.5t12 -192.5zM516 356q0 122 -9.5 172.5t-45.5 86.5q-55 55 -135 55t-135 -55q-36 -36 -45.5 -86.5t-9.5 -172.5
t9.5 -172.5t45.5 -86.5q55 -55 135 -55t135 55q36 36 45.5 86.5t9.5 172.5z" />
    <glyph glyph-name="Pi" unicode="&#x3a0;" horiz-adv-x="680" 
d="M569 0h-54v664h-351v-664h-54v712h459v-712z" />
    <glyph glyph-name="Rho" unicode="&#x3a1;" horiz-adv-x="631" 
d="M586 507q0 -95 -60 -150t-155 -55h-207v-302h-54v712h261q95 0 155 -55t60 -150zM532 507q0 78 -45 117.5t-122 39.5h-201v-314h201q77 0 122 39.5t45 117.5z" />
    <glyph glyph-name="Sigma" unicode="&#x3a3;" horiz-adv-x="552" 
d="M496 0h-433v57l199 324l-184 283v48h418v-48h-359l185 -282l-204 -334h378v-48z" />
    <glyph glyph-name="Tau" unicode="&#x3a4;" horiz-adv-x="539" 
d="M509 664h-213v-664h-54v664h-212v48h479v-48z" />
    <glyph glyph-name="Upsilon" unicode="&#x3a5;" horiz-adv-x="494" 
d="M484 712l-210 -417v-295h-54v295l-210 417h58l181 -360l177 360h58z" />
    <glyph glyph-name="Phi" unicode="&#x3a6;" horiz-adv-x="715" 
d="M649 361q0 -49 -2.5 -80.5t-17 -71.5t-42.5 -68q-77 -77 -202 -77v-64h-54v64q-125 0 -202 77q-40 40 -51 92t-11 128q0 49 2.5 80.5t17 71.5t42.5 68q77 77 202 77v54h54v-54q125 0 202 -77q40 -40 51 -92t11 -128zM331 112v498q-100 0 -159 -59q-23 -23 -35 -58.5
t-14 -62.5t-2 -69t2 -69t14 -62.5t35 -58.5q59 -59 159 -59zM595 361q0 42 -2 69t-14 62.5t-35 58.5q-59 59 -159 59v-498q100 0 159 59q23 23 35 58.5t14 62.5t2 69z" />
    <glyph glyph-name="Chi" unicode="&#x3a7;" horiz-adv-x="532" 
d="M514 0h-63l-186 317l-186 -317h-61l218 365l-204 347h63l170 -299l171 299h62l-204 -347z" />
    <glyph glyph-name="Psi" unicode="&#x3a8;" horiz-adv-x="654" 
d="M600 376q0 -53 -15.5 -88.5t-50.5 -70.5q-73 -73 -178 -73h-2v-144h-54v144h-2q-105 0 -178 73q-35 35 -50.5 70.5t-15.5 88.5v336h54v-336q0 -74 55 -129t135 -55h2v520h54v-520h2q80 0 135 55t55 129v336h54v-336z" />
    <glyph glyph-name="uni03A9" unicode="&#x3a9;" horiz-adv-x="652" 
d="M570 356q0 -101 -5 -152t-24 -86q-20 -38 -62 -71h91v-47h-186v47q73 35 105 88q17 28 22 78t5 143q0 122 -9.5 172.5t-45.5 86.5q-55 55 -135 55t-135 -55q-36 -36 -45.5 -86.5t-9.5 -172.5q0 -93 5 -143t22 -78q32 -53 105 -88v-47h-186v47h91q-42 33 -62 71
q-19 35 -24 86t-5 152q0 138 12 192.5t59 101.5q68 68 173 68t173 -68q47 -47 59 -101.5t12 -192.5z" />
    <glyph glyph-name="Iotadieresis" unicode="&#x3aa;" horiz-adv-x="274" 
d="M164 0h-54v712h54v-712zM62 790h-58v77h58v-77zM270 790h-58v77h58v-77z" />
    <glyph glyph-name="Upsilondieresis" unicode="&#x3ab;" horiz-adv-x="494" 
d="M484 712l-210 -417v-295h-54v295l-210 417h58l181 -360l177 360h58zM172 790h-58v77h58v-77zM380 790h-58v77h58v-77z" />
    <glyph glyph-name="alphatonos" unicode="&#x3ac;" horiz-adv-x="540" 
d="M443 0h-51v62q-30 -39 -64 -53.5t-79 -14.5q-76 0 -118 42q-62 62 -62 205t62 205q42 42 118 42q45 0 79 -14.5t64 -53.5v62h51v-482zM392 241q0 43 -5 75t-18.5 63t-42 47.5t-70.5 16.5t-70.5 -16.5t-42 -47.5t-18.5 -63t-5 -75t5 -75t18.5 -63t42 -47.5t70.5 -16.5
t70.5 16.5t42 47.5t18.5 63t5 75zM291 615l-58 -33v130h58v-97z" />
    <glyph glyph-name="epsilontonos" unicode="&#x3ad;" horiz-adv-x="492" 
d="M437 68q-43 -43 -89.5 -58.5t-107.5 -15.5q-75 0 -123.5 36t-48.5 100q0 44 19.5 70.5t62.5 44.5q-72 29 -72 108q0 61 49 98t119 37q123 0 190 -74l-34 -33q-60 63 -155 63q-43 0 -78.5 -25.5t-35.5 -66.5q0 -84 96 -84h82v-44h-82q-106 0 -106 -94q0 -42 34 -67t81 -25
q104 0 164 61zM291 615l-58 -33v130h58v-97z" />
    <glyph glyph-name="etatonos" unicode="&#x3ae;" horiz-adv-x="559" 
d="M311 615l-58 -33v130h58v-97zM468 0h-51v299q0 70 -34 107t-99 37t-100.5 -37.5t-35.5 -106.5v-299h-51v482h51v-57q54 63 142 63q81 0 128 -46q50 -48 50 -134v-308z" />
    <glyph glyph-name="iotatonos" unicode="&#x3af;" horiz-adv-x="287" 
d="M255 0h-44q-58 0 -87 33t-29 92v357h51v-356q0 -43 16.5 -62t57.5 -19h35v-45zM153 615l-58 -33v130h58v-97z" />
    <glyph glyph-name="upsilondieresistonos" unicode="&#x3b0;" horiz-adv-x="511" 
d="M255 -6q-88 0 -135 46q-50 48 -50 134v308h51v-295q0 -148 134 -148q66 0 100.5 37.5t34.5 110.5v295h51v-308q0 -85 -51 -134q-47 -46 -135 -46zM385 600h-58v77h58v-77zM281 615l-58 -33v130h58v-97zM177 600h-58v77h58v-77z" />
    <glyph glyph-name="alpha" unicode="&#x3b1;" horiz-adv-x="540" 
d="M443 0h-51v62q-30 -39 -64 -53.5t-79 -14.5q-76 0 -118 42q-62 62 -62 205t62 205q42 42 118 42q45 0 79 -14.5t64 -53.5v62h51v-482zM392 241q0 43 -5 75t-18.5 63t-42 47.5t-70.5 16.5t-70.5 -16.5t-42 -47.5t-18.5 -63t-5 -75t5 -75t18.5 -63t42 -47.5t70.5 -16.5
t70.5 16.5t42 47.5t18.5 63t5 75z" />
    <glyph glyph-name="beta" unicode="&#x3b2;" horiz-adv-x="540" 
d="M491 197q0 -83 -51.5 -143t-125.5 -60q-38 0 -60 3t-52 18.5t-55 47.5v-63h-50v538q0 75 50 124.5t130 49.5t128.5 -42.5t48.5 -121.5q0 -36 -7.5 -67.5t-32 -61.5t-64.5 -38q141 -17 141 -184zM442 200q0 50 -14 83.5t-41 49t-54 21t-64 5.5h-61v38h63q135 0 135 140
q0 68 -35.5 101t-91.5 33q-65 0 -98 -42t-33 -110v-319q0 -67 36 -115t108 -48q74 0 112 49t38 114z" />
    <glyph glyph-name="gamma" unicode="&#x3b3;" horiz-adv-x="430" 
d="M416 482l-175 -482v-230h-51v230l-176 482h56l145 -422l145 422h56z" />
    <glyph glyph-name="delta" unicode="&#x3b4;" horiz-adv-x="526" 
d="M457 241q0 -134 -60 -194q-53 -53 -134 -53t-134 53q-60 60 -60 194t60 194q53 53 134 53q45 0 73 -17l-213 202v39h285v-39h-229l179 -172q62 -59 80.5 -119.5t18.5 -140.5zM406 241q0 118 -43 161q-41 41 -100 41t-100 -41q-43 -43 -43 -161t43 -161q41 -41 100 -41
t100 41q43 43 43 161z" />
    <glyph glyph-name="epsilon" unicode="&#x3b5;" horiz-adv-x="492" 
d="M437 68q-43 -43 -89.5 -58.5t-107.5 -15.5q-75 0 -123.5 36t-48.5 100q0 44 19.5 70.5t62.5 44.5q-72 29 -72 108q0 61 49 98t119 37q123 0 190 -74l-34 -33q-60 63 -155 63q-43 0 -78.5 -25.5t-35.5 -66.5q0 -84 96 -84h82v-44h-82q-106 0 -106 -94q0 -42 34 -67t81 -25
q104 0 164 61z" />
    <glyph glyph-name="zeta" unicode="&#x3b6;" horiz-adv-x="458" 
d="M413 -52q0 -101 -125 -101v39q81 0 81 56q0 31 -20 44.5t-64 13.5h-36q-104 0 -149 24t-45 89q0 44 18.5 74t65.5 69l219 181h-274v45h328v-48l-242 -214q-41 -36 -51.5 -55t-10.5 -56t35 -50.5t106 -13.5h33q131 0 131 -97z" />
    <glyph glyph-name="eta" unicode="&#x3b7;" horiz-adv-x="559" 
d="M468 0h-51v299q0 70 -34 107t-99 37t-100.5 -37.5t-35.5 -106.5v-299h-51v482h51v-57q54 63 142 63q81 0 128 -46q50 -48 50 -134v-308z" />
    <glyph glyph-name="theta" unicode="&#x3b8;" horiz-adv-x="534" 
d="M464 356q0 -78 -2 -120.5t-17.5 -99.5t-46.5 -88q-54 -54 -131 -54t-131 54q-31 31 -46.5 88t-17.5 99.5t-2 120.5t2 120.5t17.5 99.5t46.5 88q54 54 131 54t131 -54q31 -31 46.5 -88t17.5 -99.5t2 -120.5zM413 353h-292q0 -73 2 -114.5t14 -88.5t35 -70q41 -41 95 -41
t95 41q33 33 42 98t9 175zM413 398q0 183 -51 234q-41 41 -95 41t-95 -41q-51 -51 -51 -234h292z" />
    <glyph glyph-name="iota" unicode="&#x3b9;" horiz-adv-x="287" 
d="M255 0h-44q-58 0 -87 33t-29 92v357h51v-356q0 -43 16.5 -62t57.5 -19h35v-45z" />
    <glyph glyph-name="kappa" unicode="&#x3ba;" horiz-adv-x="527" 
d="M487 0h-63l-166 265l-110 -127v-138h-51v482h51v-272l239 272h65l-159 -180z" />
    <glyph glyph-name="lambda" unicode="&#x3bb;" horiz-adv-x="465" 
d="M473 0h-24q-42 0 -76 31q-20 20 -31 56l-109 334l-159 -421h-56l191 481l-44 129q-12 37 -26 47t-55 10h-9v45h15q50 0 76 -17t41 -61l176 -523q12 -36 28 -51t44 -15h18v-45z" />
    <glyph glyph-name="uni03BC" unicode="&#x3bc;" horiz-adv-x="556" 
d="M408 0v57q-54 -63 -142 -63q-79 0 -127 45v-269h-51v712h51v-299q0 -70 34 -107t99 -37t100.5 37.5t35.5 106.5v299h51v-482h-51z" />
    <glyph glyph-name="nu" unicode="&#x3bd;" horiz-adv-x="430" 
d="M416 482l-176 -482h-50l-176 482h56l145 -422l145 422h56z" />
    <glyph glyph-name="xi" unicode="&#x3be;" horiz-adv-x="475" 
d="M455 614l-34 -33q-59 62 -139 62q-61 0 -97 -34.5t-36 -96.5q0 -121 131 -121h121v-45h-119q-73 0 -117.5 -42.5t-44.5 -111.5q0 -65 43.5 -106t108.5 -41h43q131 0 131 -97q0 -101 -125 -101v39q81 0 81 56q0 31 -20 44.5t-64 13.5h-46q-87 0 -145.5 54t-58.5 138
q0 70 35.5 116t88.5 62q-43 11 -70.5 51.5t-27.5 90.5q0 78 52.5 127t135.5 49q106 0 173 -74z" />
    <glyph glyph-name="omicron" unicode="&#x3bf;" horiz-adv-x="526" 
d="M457 241q0 -134 -60 -194q-53 -53 -134 -53t-134 53q-60 60 -60 194t60 194q53 53 134 53t134 -53q60 -60 60 -194zM406 241q0 118 -43 161q-41 41 -100 41t-100 -41q-43 -43 -43 -161t43 -161q41 -41 100 -41t100 41q43 43 43 161z" />
    <glyph glyph-name="pi" unicode="&#x3c0;" horiz-adv-x="559" 
d="M468 0h-51v437h-269v-437h-51v482h371v-482z" />
    <glyph glyph-name="rho" unicode="&#x3c1;" horiz-adv-x="513" 
d="M444 241q0 -142 -63 -205q-42 -42 -118 -42q-45 0 -79 14.5t-64 53.5v-292h-51v520q0 79 46.5 138.5t139.5 59.5q189 0 189 -247zM392 241q0 43 -4.5 74.5t-17.5 62.5t-41.5 47.5t-70.5 16.5q-138 0 -138 -196q0 -43 5 -75.5t18.5 -64.5t42 -49.5t70.5 -17.5t70.5 16.5
t42 47.5t18.5 63t5 75z" />
    <glyph glyph-name="sigma1" unicode="&#x3c2;" horiz-adv-x="493" 
d="M440 414l-35 -32q-31 34 -58 47.5t-66 13.5q-85 0 -128 -64q-33 -48 -33 -138t33 -138q23 -35 55 -46.5t81 -11.5q143 0 143 -97q0 -101 -126 -101v39q81 0 81 56q0 27 -16 40.5t-33 15.5t-49 2q-112 0 -166 63t-54 178t56.5 181t155.5 66q51 0 86.5 -16t72.5 -58z" />
    <glyph glyph-name="sigma" unicode="&#x3c3;" horiz-adv-x="536" 
d="M472 437h-92q79 -61 79 -196q0 -134 -60 -194q-53 -53 -134 -53t-134 53q-60 60 -60 194q0 130 58 188q53 53 134 53h209v-45zM408 241q0 110 -45 155q-41 41 -100 41t-100 -41q-19 -19 -28.5 -47.5t-11 -50t-1.5 -57.5q0 -118 43 -161q41 -41 100 -41t100 41
q43 43 43 161z" />
    <glyph glyph-name="tau" unicode="&#x3c4;" horiz-adv-x="349" 
d="M321 437h-121v-437h-51v437h-121v45h293v-45z" />
    <glyph glyph-name="upsilon" unicode="&#x3c5;" horiz-adv-x="511" 
d="M255 -6q-88 0 -135 46q-50 48 -50 134v308h51v-295q0 -148 134 -148q66 0 100.5 37.5t34.5 110.5v295h51v-308q0 -85 -51 -134q-47 -46 -135 -46z" />
    <glyph glyph-name="phi" unicode="&#x3c6;" horiz-adv-x="646" 
d="M577 243q0 -127 -50.5 -188t-179.5 -61v-224h-51v224q-127 0 -177 65t-50 184q0 168 116 239l14 -42q-79 -58 -79 -200q0 -35 3 -60t13 -53t28.5 -45.5t52 -29.5t79.5 -13v443h69q112 0 162 -58t50 -181zM526 246q0 46 -6 77t-24 59t-55 42t-94 14v-399q60 2 97.5 18
t54.5 48t22 62.5t5 78.5z" />
    <glyph glyph-name="chi" unicode="&#x3c7;" horiz-adv-x="460" 
d="M420 0h-62l-127 203l-129 -203h-62l163 246l-156 236h62l122 -194l120 194h62l-156 -236z" />
    <glyph glyph-name="psi" unicode="&#x3c8;" horiz-adv-x="614" 
d="M540 241q0 -125 -48.5 -183t-163.5 -63v-225h-51v225q-115 5 -163 63t-48 183v241h50v-241q0 -107 33.5 -152t127.5 -49v442h51v-442q94 4 127.5 49t33.5 152v241h51v-241z" />
    <glyph glyph-name="omega" unicode="&#x3c9;" horiz-adv-x="704" 
d="M635 233q0 -113 -36 -173q-40 -66 -124 -66q-43 0 -77 29.5t-46 72.5q-12 -43 -46 -72.5t-77 -29.5q-84 0 -124 66q-36 60 -36 173q0 50 13 102.5t34 79.5q50 66 110 73v-45q-22 -4 -44.5 -23.5t-33.5 -40.5q-29 -53 -29 -146q0 -104 26 -146q28 -48 84 -48q97 0 97 183
v128h52v-128q0 -183 97 -183q56 0 84 48q26 42 26 146q0 93 -29 146q-11 21 -33.5 40.5t-44.5 23.5v45q60 -7 110 -73q21 -27 34 -79.5t13 -102.5z" />
    <glyph glyph-name="iotadieresis" unicode="&#x3ca;" horiz-adv-x="287" 
d="M255 0h-44q-58 0 -87 33t-29 92v357h51v-356q0 -43 16.5 -62t57.5 -19h35v-45zM48 600h-58v77h58v-77zM256 600h-58v77h58v-77z" />
    <glyph glyph-name="upsilondieresis" unicode="&#x3cb;" horiz-adv-x="511" 
d="M255 -6q-88 0 -135 46q-50 48 -50 134v308h51v-295q0 -148 134 -148q66 0 100.5 37.5t34.5 110.5v295h51v-308q0 -85 -51 -134q-47 -46 -135 -46zM181 600h-58v77h58v-77zM389 600h-58v77h58v-77z" />
    <glyph glyph-name="omicrontonos" unicode="&#x3cc;" horiz-adv-x="526" 
d="M291 615l-58 -33v130h58v-97zM457 241q0 -134 -60 -194q-53 -53 -134 -53t-134 53q-60 60 -60 194t60 194q53 53 134 53t134 -53q60 -60 60 -194zM406 241q0 118 -43 161q-41 41 -100 41t-100 -41q-43 -43 -43 -161t43 -161q41 -41 100 -41t100 41q43 43 43 161z" />
    <glyph glyph-name="upsilontonos" unicode="&#x3cd;" horiz-adv-x="511" 
d="M255 -6q-88 0 -135 46q-50 48 -50 134v308h51v-295q0 -148 134 -148q66 0 100.5 37.5t34.5 110.5v295h51v-308q0 -85 -51 -134q-47 -46 -135 -46zM281 615l-58 -33v130h58v-97z" />
    <glyph glyph-name="omegatonos" unicode="&#x3ce;" horiz-adv-x="704" 
d="M635 233q0 -113 -36 -173q-40 -66 -124 -66q-43 0 -77 29.5t-46 72.5q-12 -43 -46 -72.5t-77 -29.5q-84 0 -124 66q-36 60 -36 173q0 50 13 102.5t34 79.5q50 66 110 73v-45q-22 -4 -44.5 -23.5t-33.5 -40.5q-29 -53 -29 -146q0 -104 26 -146q28 -48 84 -48q97 0 97 183
v128h52v-128q0 -183 97 -183q56 0 84 48q26 42 26 146q0 93 -29 146q-11 21 -33.5 40.5t-44.5 23.5v45q60 -7 110 -73q21 -27 34 -79.5t13 -102.5zM376 615l-58 -33v130h58v-97z" />
    <glyph glyph-name="uni03D0" unicode="&#x3d0;" horiz-adv-x="540" 
d="M491 197q0 -83 -51.5 -143t-125.5 -60q-39 0 -60 2.5t-51 18t-55 47.5v-292h-51v768q0 75 50 124.5t130 49.5t128.5 -42.5t48.5 -121.5q0 -36 -7.5 -67.5t-32 -61.5t-64.5 -38q141 -17 141 -184zM442 200q0 50 -14 83.5t-41 49t-54 21t-64 5.5h-61v38h63q135 0 135 140
q0 68 -35.5 101t-91.5 33q-65 0 -98 -42t-33 -110v-319q0 -67 36 -115t108 -48q74 0 112 49t38 114z" />
    <glyph glyph-name="uni0400" unicode="&#x400;" horiz-adv-x="598" 
d="M542 0h-432v712h432v-48h-378v-281h322v-48h-322v-287h378v-48zM361 780h-58l-106 147h67z" />
    <glyph glyph-name="afii10023" unicode="&#x401;" horiz-adv-x="598" 
d="M542 0h-432v712h432v-48h-378v-281h322v-48h-322v-287h378v-48zM239 790h-58v77h58v-77zM447 790h-58v77h58v-77z" />
    <glyph glyph-name="afii10051" unicode="&#x402;" horiz-adv-x="743" 
d="M646 216q0 -102 -58 -159t-157 -57h-40v48h34q81 0 124 42t43 125t-43 125t-124 42h-164v-382h-54v664h-182v48h479v-48h-243v-234h170q99 0 157 -56.5t58 -157.5z" />
    <glyph glyph-name="afii10052" unicode="&#x403;" horiz-adv-x="564" 
d="M540 664h-368v-664h-54v712h422v-48zM424 927l-106 -147h-58l97 147h67z" />
    <glyph glyph-name="afii10053" unicode="&#x404;" horiz-adv-x="644" 
d="M568 202q-18 -96 -83 -152t-159 -56q-105 0 -173 68q-47 47 -59 101.5t-12 192.5t12 192.5t59 101.5q68 68 173 68q95 0 159.5 -55.5t82.5 -152.5h-55q-16 74 -65.5 117t-121.5 43q-80 0 -135 -55q-34 -34 -44.5 -81.5t-10.5 -150.5h286v-48h-286q0 -107 10 -155.5
t45 -82.5q55 -55 135 -55q72 0 122.5 43t66.5 117h53z" />
    <glyph glyph-name="afii10054" unicode="&#x405;" horiz-adv-x="587" 
d="M528 191q0 -90 -64.5 -143.5t-175.5 -53.5q-78 0 -132.5 22t-104.5 72l38 38q47 -47 92 -65.5t110 -18.5q85 0 134 39t49 108q0 67 -39 100q-18 16 -38.5 23.5t-64.5 14.5l-83 13q-82 12 -127 51q-56 47 -56 132q0 90 59.5 142.5t161.5 52.5q64 0 111 -18t94 -59l-35 -35
q-69 66 -173 66q-78 0 -121.5 -39t-43.5 -108q0 -64 36 -94q37 -31 102 -41l83 -13q49 -7 75.5 -17.5t51.5 -31.5q61 -53 61 -137z" />
    <glyph glyph-name="afii10055" unicode="&#x406;" horiz-adv-x="274" 
d="M164 0h-54v712h54v-712z" />
    <glyph glyph-name="afii10056" unicode="&#x407;" horiz-adv-x="274" 
d="M164 0h-54v712h54v-712zM62 790h-58v77h58v-77zM270 790h-58v77h58v-77z" />
    <glyph glyph-name="afii10057" unicode="&#x408;" horiz-adv-x="498" 
d="M398 210q0 -98 -58 -157t-154 -59q-95 0 -156 61l37 37q25 -25 50.5 -37.5t68.5 -12.5q76 0 117 46.5t41 132.5v491h54v-502z" />
    <glyph glyph-name="afii10058" unicode="&#x409;" horiz-adv-x="1037" 
d="M238 664v-257q0 -219 -50.5 -313t-153.5 -94h-29v48h18q31 0 54 9t44 34.5t34.5 68t21.5 112t8 163.5v277h385v-302h209q98 0 156.5 -56t58.5 -149t-58.5 -149t-156.5 -56h-263v664h-278zM940 205q0 75 -43.5 116t-123.5 41h-203v-314h203q80 0 123.5 41t43.5 116z" />
    <glyph glyph-name="afii10059" unicode="&#x40a;" horiz-adv-x="1056" 
d="M1013 205q0 -93 -58.5 -149t-156.5 -56h-263v362h-371v-362h-54v712h54v-302h371v302h54v-302h209q98 0 156.5 -56t58.5 -149zM959 205q0 75 -43.5 116t-123.5 41h-203v-314h203q80 0 123.5 41t43.5 116z" />
    <glyph glyph-name="afii10060" unicode="&#x40b;" horiz-adv-x="743" 
d="M646 0h-54v225q0 75 -43.5 116t-123.5 41h-164v-382h-54v664h-182v48h479v-48h-243v-234h170q98 0 156.5 -56t58.5 -149v-225z" />
    <glyph glyph-name="afii10061" unicode="&#x40c;" horiz-adv-x="600" 
d="M600 0h-76l-354 371l331 341h72l-338 -340zM115 0v712h54v-712h-54zM429 927l-106 -147h-58l97 147h67z" />
    <glyph glyph-name="uni040D" unicode="&#x40d;" horiz-adv-x="720" 
d="M610 0h-54v624l-392 -624h-54v712h54v-622l392 622h54v-712zM392 780h-58l-106 147h67z" />
    <glyph glyph-name="afii10062" unicode="&#x40e;" horiz-adv-x="534" 
d="M407 880q-10 -120 -140 -120t-140 120h51q8 -80 89 -80t89 80h51zM522 712l-259 -604q-46 -108 -134 -108h-54v48h42q39 0 60.5 18t40.5 62l31 74l-237 510h58l207 -449l187 449h58z" />
    <glyph glyph-name="afii10145" unicode="&#x40f;" horiz-adv-x="699" 
d="M589 0h-212v-180h-54v180h-213v712h54v-664h371v664h54v-712z" />
    <glyph glyph-name="afii10017" unicode="&#x410;" horiz-adv-x="602" 
d="M587 0h-58l-62 173h-332l-62 -173h-58l262 712h48zM450 221l-149 419l-149 -419h298z" />
    <glyph glyph-name="afii10018" unicode="&#x411;" horiz-adv-x="657" 
d="M588 205q0 -93 -58.5 -149t-156.5 -56h-263v712h434v-48h-380v-254h209q98 0 156.5 -56t58.5 -149zM534 205q0 75 -43.5 116t-123.5 41h-203v-314h203q80 0 123.5 41t43.5 116z" />
    <glyph glyph-name="afii10019" unicode="&#x412;" horiz-adv-x="671" 
d="M589 192q0 -90 -55.5 -141t-153.5 -51h-270v712h262q92 0 149 -51t57 -133q0 -78 -54 -129q-21 -19 -57 -33q42 -17 66 -38q56 -51 56 -136zM535 194q0 67 -43.5 106.5t-117.5 39.5h-210v-292h210q74 0 117.5 39.5t43.5 106.5zM524 526q0 65 -42 101.5t-116 36.5h-202
v-276h202q75 0 116.5 36.5t41.5 101.5z" />
    <glyph glyph-name="afii10020" unicode="&#x413;" horiz-adv-x="564" 
d="M540 664h-368v-664h-54v712h422v-48z" />
    <glyph glyph-name="afii10021" unicode="&#x414;" horiz-adv-x="680" 
d="M640 -180h-54v180h-512v-180h-54v228h65q50 78 71 173t21 231v260h378v-664h85v-228zM501 48v616h-273v-260q0 -218 -83 -356h356z" />
    <glyph glyph-name="afii10022" unicode="&#x415;" horiz-adv-x="598" 
d="M542 0h-432v712h432v-48h-378v-281h322v-48h-322v-287h378v-48z" />
    <glyph glyph-name="afii10024" unicode="&#x416;" horiz-adv-x="886" 
d="M536 372l350 -372h-76l-339 371l316 341h72zM0 0l350 372l-323 340h72l316 -341l-339 -371h-76zM470 0h-54v712h54v-712z" />
    <glyph glyph-name="afii10025" unicode="&#x417;" horiz-adv-x="620" 
d="M538 192q0 -90 -66 -144t-166 -54q-91 0 -155 56t-81 152h53q16 -74 66.5 -117t122.5 -43q75 0 123.5 41t48.5 111q0 146 -158 146h-89v48h92q68 0 105.5 37t37.5 106q0 66 -43 102.5t-116 36.5q-72 0 -121.5 -43t-65.5 -117h-55q17 97 82 152.5t160 55.5q94 0 153.5 -51
t59.5 -135q0 -120 -107 -165q119 -41 119 -175z" />
    <glyph glyph-name="afii10026" unicode="&#x418;" horiz-adv-x="720" 
d="M610 0h-54v624l-392 -624h-54v712h54v-622l392 622h54v-712z" />
    <glyph glyph-name="afii10027" unicode="&#x419;" horiz-adv-x="720" 
d="M500 880q-10 -120 -140 -120t-140 120h51q8 -80 89 -80t89 80h51zM610 0h-54v624l-392 -624h-54v712h54v-622l392 622h54v-712z" />
    <glyph glyph-name="afii10028" unicode="&#x41a;" horiz-adv-x="600" 
d="M600 0h-76l-354 371l331 341h72l-338 -340zM115 0v712h54v-712h-54z" />
    <glyph glyph-name="afii10029" unicode="&#x41b;" horiz-adv-x="680" 
d="M570 0h-54v664h-278v-257q0 -219 -50.5 -313t-153.5 -94h-29v48h18q31 0 54 9t44 34.5t34.5 68t21.5 112t8 163.5v277h385v-712z" />
    <glyph glyph-name="afii10030" unicode="&#x41c;" horiz-adv-x="818" 
d="M708 0h-54v587l-216 -487h-54l-220 487v-587h-54v712h54l248 -549l242 549h54v-712z" />
    <glyph glyph-name="afii10031" unicode="&#x41d;" horiz-adv-x="699" 
d="M589 0h-54v335h-371v-335h-54v712h54v-329h371v329h54v-712z" />
    <glyph glyph-name="afii10032" unicode="&#x41e;" horiz-adv-x="652" 
d="M516 356q0 122 -9.5 172.5t-45.5 86.5q-55 55 -135 55t-135 -55q-36 -36 -45.5 -86.5t-9.5 -172.5t9.5 -172.5t45.5 -86.5q55 -55 135 -55t135 55q36 36 45.5 86.5t9.5 172.5zM570 356q0 -138 -12 -192.5t-59 -101.5q-68 -68 -173 -68t-173 68q-47 47 -59 101.5
t-12 192.5t12 192.5t59 101.5q68 68 173 68t173 -68q47 -47 59 -101.5t12 -192.5z" />
    <glyph glyph-name="afii10033" unicode="&#x41f;" horiz-adv-x="699" 
d="M589 0h-54v664h-371v-664h-54v712h479v-712z" />
    <glyph glyph-name="afii10034" unicode="&#x420;" horiz-adv-x="631" 
d="M586 507q0 -95 -60 -150t-155 -55h-207v-302h-54v712h261q95 0 155 -55t60 -150zM532 507q0 78 -45 117.5t-122 39.5h-201v-314h201q77 0 122 39.5t45 117.5z" />
    <glyph glyph-name="afii10035" unicode="&#x421;" horiz-adv-x="644" 
d="M568 202q-18 -96 -83 -152t-159 -56q-105 0 -173 68q-47 47 -59 101.5t-12 192.5t12 192.5t59 101.5q68 68 173 68q95 0 159.5 -55.5t82.5 -152.5h-55q-16 74 -65.5 117t-121.5 43q-80 0 -135 -55q-36 -36 -45.5 -86.5t-9.5 -172.5t9.5 -172.5t45.5 -86.5q55 -55 135 -55
q72 0 122.5 43t66.5 117h53z" />
    <glyph glyph-name="afii10036" unicode="&#x422;" horiz-adv-x="539" 
d="M509 664h-213v-664h-54v664h-212v48h479v-48z" />
    <glyph glyph-name="afii10037" unicode="&#x423;" horiz-adv-x="534" 
d="M522 712l-259 -604q-46 -108 -134 -108h-54v48h42q39 0 60.5 18t40.5 62l31 74l-237 510h58l207 -449l187 449h58z" />
    <glyph glyph-name="afii10038" unicode="&#x424;" horiz-adv-x="760" 
d="M704 380q0 -143 -71 -214.5t-226 -75.5v-93h-54v93q-155 4 -226 75.5t-71 214.5t71 214.5t226 75.5v65h54v-65q155 -4 226 -75.5t71 -214.5zM353 137v486q-134 -2 -188.5 -63.5t-54.5 -179.5t54.5 -179.5t188.5 -63.5zM650 380q0 118 -54.5 179.5t-188.5 63.5v-486
q134 2 188.5 63.5t54.5 179.5z" />
    <glyph glyph-name="afii10039" unicode="&#x425;" horiz-adv-x="532" 
d="M514 0h-63l-186 317l-186 -317h-61l218 365l-204 347h63l170 -299l171 299h62l-204 -347z" />
    <glyph glyph-name="afii10040" unicode="&#x426;" horiz-adv-x="714" 
d="M674 -180h-54v180h-510v712h54v-664h371v664h54v-664h85v-228z" />
    <glyph glyph-name="afii10041" unicode="&#x427;" horiz-adv-x="644" 
d="M534 0h-54v300q-141 -30 -208 -30q-84 0 -138 41.5t-54 137.5v263h54v-256q0 -80 41 -109t106 -29q56 0 199 28v366h54v-712z" />
    <glyph glyph-name="afii10042" unicode="&#x428;" horiz-adv-x="1000" 
d="M890 0h-780v712h54v-664h309v664h54v-664h309v664h54v-712z" />
    <glyph glyph-name="afii10043" unicode="&#x429;" horiz-adv-x="1015" 
d="M975 -180h-54v180h-811v712h54v-664h309v664h54v-664h309v664h54v-664h85v-228z" />
    <glyph glyph-name="afii10044" unicode="&#x42a;" horiz-adv-x="728" 
d="M685 205q0 -93 -58.5 -149t-156.5 -56h-263v664h-177v48h231v-302h209q98 0 156.5 -56t58.5 -149zM631 205q0 75 -43.5 116t-123.5 41h-203v-314h203q80 0 123.5 41t43.5 116z" />
    <glyph glyph-name="afii10045" unicode="&#x42b;" horiz-adv-x="854" 
d="M588 205q0 -93 -58.5 -149t-156.5 -56h-263v712h54v-302h209q98 0 156.5 -56t58.5 -149zM534 205q0 75 -43.5 116t-123.5 41h-203v-314h203q80 0 123.5 41t43.5 116zM744 0h-54v712h54v-712z" />
    <glyph glyph-name="afii10046" unicode="&#x42c;" horiz-adv-x="631" 
d="M588 205q0 -93 -58.5 -149t-156.5 -56h-263v712h54v-302h209q98 0 156.5 -56t58.5 -149zM534 205q0 75 -43.5 116t-123.5 41h-203v-314h203q80 0 123.5 41t43.5 116z" />
    <glyph glyph-name="afii10047" unicode="&#x42d;" horiz-adv-x="644" 
d="M562 356q0 -138 -12 -192.5t-59 -101.5q-68 -68 -173 -68q-94 0 -159 56t-83 152h53q16 -74 66.5 -117t122.5 -43q80 0 135 55q35 34 45 82.5t10 155.5h-286v48h286q0 103 -10.5 150.5t-44.5 81.5q-55 55 -135 55q-72 0 -121.5 -43t-65.5 -117h-55q18 97 82.5 152.5
t159.5 55.5q105 0 173 -68q47 -47 59 -101.5t12 -192.5z" />
    <glyph glyph-name="afii10048" unicode="&#x42e;" horiz-adv-x="900" 
d="M818 356q0 -138 -12 -192.5t-59 -101.5q-68 -68 -173 -68t-173 68q-46 46 -58.5 98.5t-12.5 174.5h-166v-335h-54v712h54v-329h166q0 118 12.5 169.5t58.5 97.5q68 68 173 68t173 -68q47 -47 59 -101.5t12 -192.5zM764 356q0 122 -9.5 172.5t-45.5 86.5q-55 55 -135 55
t-135 -55q-36 -36 -45.5 -86.5t-9.5 -172.5t9.5 -172.5t45.5 -86.5q55 -55 135 -55t135 55q36 36 45.5 86.5t9.5 172.5z" />
    <glyph glyph-name="afii10049" unicode="&#x42f;" horiz-adv-x="657" 
d="M547 0h-54v302h-200l-166 -302h-63l170 307q-75 14 -119 67.5t-44 132.5q0 93 58.5 149t156.5 56h261v-712zM493 350v314h-201q-80 0 -123.5 -41t-43.5 -116t43.5 -116t123.5 -41h201z" />
    <glyph glyph-name="afii10065" unicode="&#x430;" horiz-adv-x="524" 
d="M431 0h-51v48q-30 -30 -62.5 -42t-84.5 -12q-99 0 -142 44q-35 37 -35 94q0 66 44.5 102.5t123.5 36.5h156v54q0 59 -32 88.5t-104 29.5q-51 0 -80.5 -14t-52.5 -47l-37 32q30 41 69.5 57.5t100.5 16.5q187 0 187 -158v-330zM380 168v62h-150q-123 0 -123 -97
q0 -48 30.5 -71t95.5 -23q82 0 120 37q27 26 27 92z" />
    <glyph glyph-name="afii10066" unicode="&#x431;" horiz-adv-x="528" 
d="M461 241q0 -136 -59 -195q-50 -52 -132 -52q-72 0 -121 39.5t-64 108.5q-10 43 -10 148q0 191 9 253t49 102q19 19 46.5 32.5t65 20.5t61 10t67.5 5.5t53 3.5v-49q-9 -1 -57 -3.5t-75.5 -5.5t-64 -15t-56.5 -32q-31 -31 -40 -77t-9 -125q16 33 60 55t89 22q80 0 125 -44
q63 -60 63 -202zM410 236q0 67 -9 104.5t-33 61.5q-38 40 -98 40q-58 0 -98 -40q-46 -48 -46 -164q0 -112 46 -159q40 -40 98 -40q60 0 98 40q23 23 32.5 58.5t9.5 98.5z" />
    <glyph glyph-name="afii10067" unicode="&#x432;" horiz-adv-x="535" 
d="M463 131q0 -61 -37.5 -96t-104.5 -35h-224v482h219q62 0 100.5 -34t38.5 -90q0 -82 -82 -108q41 -13 65.5 -44t24.5 -75zM412 135q0 42 -27 67.5t-75 25.5h-162v-185h162q48 0 75 25t27 67zM404 355q0 40 -26 62t-73 22h-157v-169h157q47 0 73 22.5t26 62.5z" />
    <glyph glyph-name="afii10068" unicode="&#x433;" horiz-adv-x="411" 
d="M401 437h-249v-437h-51v482h300v-45z" />
    <glyph glyph-name="afii10069" unicode="&#x434;" horiz-adv-x="551" 
d="M515 -150h-51v150h-388v-150h-51v195h59q34 48 52 112.5t18 184.5v140h286v-437h75v-195zM389 45v392h-186v-108q0 -198 -61 -284h247z" />
    <glyph glyph-name="afii10070" unicode="&#x435;" horiz-adv-x="523" 
d="M455 230h-335q0 -93 40 -141.5t117 -48.5q42 0 72 13.5t61 44.5l38 -30q-39 -39 -78 -56.5t-96 -17.5q-100 0 -152.5 63t-52.5 184q0 117 51 182t142 65t142 -62t51 -173v-23zM404 271q-4 62 -17 91q-16 38 -49.5 59.5t-75.5 21.5t-75 -21.5t-50 -59.5q-13 -29 -17 -91
h284z" />
    <glyph glyph-name="afii10072" unicode="&#x436;" horiz-adv-x="699" 
d="M376 249l225 233h66l-225 -229l248 -253h-70zM98 482l225 -233l-244 -249h-70l248 253l-225 229h66zM375 0h-51v482h51v-482z" />
    <glyph glyph-name="afii10073" unicode="&#x437;" horiz-adv-x="477" 
d="M405 133q0 -62 -53 -100t-129 -38q-59 0 -101.5 15.5t-84.5 53.5l35 35q34 -33 66.5 -46t81.5 -13q52 0 94 26t42 68q0 44 -30.5 68t-80.5 24h-69v43h71q45 0 72.5 23t27.5 65q0 41 -32 63.5t-87 22.5q-78 0 -139 -42l-30 36q73 51 169 51q74 0 121.5 -34.5t47.5 -95.5
q0 -38 -21 -67.5t-60 -41.5q41 -11 65 -42.5t24 -73.5z" />
    <glyph glyph-name="afii10074" unicode="&#x438;" horiz-adv-x="573" 
d="M476 0h-51v408l-277 -408h-51v482h51v-408l277 408h51v-482z" />
    <glyph glyph-name="afii10075" unicode="&#x439;" horiz-adv-x="573" 
d="M427 697q-10 -120 -140 -120t-140 120h51q8 -80 89 -80t89 80h51zM476 0h-51v408l-277 -408h-51v482h51v-408l277 408h51v-482z" />
    <glyph glyph-name="afii10076" unicode="&#x43a;" horiz-adv-x="485" 
d="M154 249l233 233h66l-233 -229l256 -253h-70zM153 482v-482h-51v482h51z" />
    <glyph glyph-name="afii10077" unicode="&#x43b;" horiz-adv-x="533" 
d="M145 482h291v-482h-51v439h-190v-187q0 -139 -41 -195.5t-112 -56.5h-22v43h15q21 0 36.5 6.5t34 27.5t29 70t10.5 124v211z" />
    <glyph glyph-name="afii10078" unicode="&#x43c;" horiz-adv-x="648" 
d="M551 0h-51v378l-151 -310h-48l-153 310v-378h-51v482h51l178 -363l174 363h51v-482z" />
    <glyph glyph-name="afii10079" unicode="&#x43d;" horiz-adv-x="559" 
d="M462 0h-51v227h-263v-227h-51v482h51v-210h263v210h51v-482z" />
    <glyph glyph-name="afii10080" unicode="&#x43e;" horiz-adv-x="526" 
d="M457 241q0 -134 -60 -194q-53 -53 -134 -53t-134 53q-60 60 -60 194t60 194q53 53 134 53t134 -53q60 -60 60 -194zM406 241q0 118 -43 161q-41 41 -100 41t-100 -41q-43 -43 -43 -161t43 -161q41 -41 100 -41t100 41q43 43 43 161z" />
    <glyph glyph-name="afii10081" unicode="&#x43f;" horiz-adv-x="553" 
d="M462 0h-51v437h-263v-437h-51v482h365v-482z" />
    <glyph glyph-name="afii10082" unicode="&#x440;" horiz-adv-x="540" 
d="M471 241q0 -143 -62 -205q-42 -42 -118 -42q-45 0 -79 14.5t-64 53.5v-292h-51v712h51v-62q30 39 64 53.5t79 14.5q76 0 118 -42q62 -62 62 -205zM420 241q0 43 -5 75t-18.5 63t-42 47.5t-70.5 16.5t-70.5 -16.5t-42 -47.5t-18.5 -63t-5 -75t5 -75t18.5 -63t42 -47.5
t70.5 -16.5t70.5 16.5t42 47.5t18.5 63t5 75z" />
    <glyph glyph-name="afii10083" unicode="&#x441;" horiz-adv-x="493" 
d="M440 68q-37 -42 -72.5 -58t-86.5 -16q-99 0 -155.5 66t-56.5 181t56.5 181t155.5 66q51 0 86.5 -16t72.5 -58l-35 -32q-31 34 -58 47.5t-66 13.5q-85 0 -128 -64q-33 -48 -33 -138t33 -138q43 -64 128 -64q38 0 65.5 13.5t58.5 47.5z" />
    <glyph glyph-name="afii10084" unicode="&#x442;" horiz-adv-x="409" 
d="M399 437h-164v-437h-51v437h-174v45h389v-45z" />
    <glyph glyph-name="afii10085" unicode="&#x443;" horiz-adv-x="430" 
d="M416 482l-224 -613q-14 -40 -33 -56q-32 -31 -91 -31h-24v45h19q40 0 57.5 14t30.5 52l39 107l-176 482h56l145 -422l145 422h56z" />
    <glyph glyph-name="afii10086" unicode="&#x444;" horiz-adv-x="667" 
d="M607 241q0 -116 -64.5 -179t-183.5 -68v-224h-51v224q-119 5 -183.5 68t-64.5 179t64.5 179t183.5 68v224h51v-224q119 -5 183.5 -68t64.5 -179zM308 39v404q-96 -3 -146.5 -57.5t-50.5 -144.5t50.5 -144.5t146.5 -57.5zM556 241q0 90 -50.5 144.5t-146.5 57.5v-404
q96 3 146.5 57.5t50.5 144.5z" />
    <glyph glyph-name="afii10087" unicode="&#x445;" horiz-adv-x="460" 
d="M420 0h-62l-127 203l-129 -203h-62l163 246l-156 236h62l122 -194l120 194h62l-156 -236z" />
    <glyph glyph-name="afii10088" unicode="&#x446;" horiz-adv-x="573" 
d="M537 -150h-51v150h-389v482h51v-439h263v439h51v-439h75v-193z" />
    <glyph glyph-name="afii10089" unicode="&#x447;" horiz-adv-x="530" 
d="M433 0h-51v195q-100 -21 -160 -21q-143 0 -143 140v168h51v-163q0 -97 101 -97q65 0 151 18v242h51v-482z" />
    <glyph glyph-name="afii10090" unicode="&#x448;" horiz-adv-x="793" 
d="M696 0h-599v482h51v-437h223v437h51v-437h223v437h51v-482z" />
    <glyph glyph-name="afii10091" unicode="&#x449;" horiz-adv-x="807" 
d="M771 -150h-51v150h-623v482h51v-437h223v437h51v-437h223v437h51v-437h75v-195z" />
    <glyph glyph-name="afii10092" unicode="&#x44a;" horiz-adv-x="543" 
d="M503 142q0 -64 -40.5 -103t-108.5 -39h-212v439h-132v43h183v-198h161q68 0 108.5 -39t40.5 -103zM452 142q0 97 -106 97h-153v-194h153q106 0 106 97z" />
    <glyph glyph-name="afii10093" unicode="&#x44b;" horiz-adv-x="679" 
d="M448 142q0 -64 -40.5 -103t-108.5 -39h-202v482h51v-198h151q68 0 108.5 -39t40.5 -103zM397 142q0 97 -106 97h-143v-194h143q106 0 106 97zM582 0h-51v482h51v-482z" />
    <glyph glyph-name="afii10094" unicode="&#x44c;" horiz-adv-x="498" 
d="M458 142q0 -64 -40.5 -103t-108.5 -39h-212v482h51v-198h161q68 0 108.5 -39t40.5 -103zM407 142q0 97 -106 97h-153v-194h153q106 0 106 97z" />
    <glyph glyph-name="afii10095" unicode="&#x44d;" horiz-adv-x="493" 
d="M424 241q0 -115 -57 -181t-158 -66q-52 0 -85 16.5t-71 57.5l35 32q30 -32 56.5 -46.5t66.5 -14.5q83 0 122.5 53.5t39.5 137.5h-229v41h228q-4 77 -45 124.5t-117 47.5q-39 0 -66 -14.5t-56 -46.5l-35 32q39 41 72 57.5t84 16.5q101 0 158 -66t57 -181z" />
    <glyph glyph-name="afii10096" unicode="&#x44e;" horiz-adv-x="712" 
d="M643 241q0 -134 -60 -194q-53 -53 -134 -53t-134 53q-58 57 -60 179h-107v-226h-51v482h51v-213h107q6 112 60 166q53 53 134 53t134 -53q60 -60 60 -194zM592 241q0 118 -43 161q-41 41 -100 41t-100 -41q-43 -43 -43 -161t43 -161q41 -41 100 -41t100 41q43 43 43 161z
" />
    <glyph glyph-name="afii10097" unicode="&#x44f;" horiz-adv-x="524" 
d="M427 0h-51v196h-135l-114 -196h-60l118 198q-56 8 -88.5 46.5t-32.5 95.5q0 64 40.5 103t108.5 39h214v-482zM376 239v200h-153q-52 0 -79.5 -26t-27.5 -74t27.5 -74t79.5 -26h153z" />
    <glyph glyph-name="uni0450" unicode="&#x450;" horiz-adv-x="523" 
d="M455 230h-335q0 -93 40 -141.5t117 -48.5q42 0 72 13.5t61 44.5l38 -30q-39 -39 -78 -56.5t-96 -17.5q-100 0 -152.5 63t-52.5 184q0 117 51 182t142 65t142 -62t51 -173v-23zM404 271q-4 62 -17 91q-16 38 -49.5 59.5t-75.5 21.5t-75 -21.5t-50 -59.5q-13 -29 -17 -91
h284zM311 590h-58l-106 147h67z" />
    <glyph glyph-name="afii10071" unicode="&#x451;" horiz-adv-x="523" 
d="M455 230h-335q0 -93 40 -141.5t117 -48.5q42 0 72 13.5t61 44.5l38 -30q-39 -39 -78 -56.5t-96 -17.5q-100 0 -152.5 63t-52.5 184q0 117 51 182t142 65t142 -62t51 -173v-23zM404 271q-4 62 -17 91q-16 38 -49.5 59.5t-75.5 21.5t-75 -21.5t-50 -59.5q-13 -29 -17 -91
h284zM189 600h-58v77h58v-77zM397 600h-58v77h58v-77z" />
    <glyph glyph-name="afii10099" unicode="&#x452;" horiz-adv-x="559" 
d="M468 -85q0 -63 -35 -104t-101 -41h-44v45h35q43 0 68.5 28.5t25.5 72.5v383q0 144 -128 144q-65 0 -103 -38t-38 -106v-299h-51v564h-61v38h61v110h51v-110h254v-38h-254v-139q60 63 148 63q81 0 126.5 -48t45.5 -132v-393z" />
    <glyph glyph-name="afii10100" unicode="&#x453;" horiz-adv-x="411" 
d="M401 437h-249v-437h-51v482h300v-45zM348 737l-106 -147h-58l97 147h67z" />
    <glyph glyph-name="afii10101" unicode="&#x454;" horiz-adv-x="493" 
d="M440 68q-38 -41 -71 -57.5t-85 -16.5q-101 0 -158 66t-57 181t57 181t158 66q51 0 84 -16.5t72 -57.5l-35 -32q-29 32 -56 46.5t-66 14.5q-76 0 -117 -47.5t-45 -124.5h228v-41h-229q0 -84 39.5 -137.5t122.5 -53.5q40 0 66.5 14.5t56.5 46.5z" />
    <glyph glyph-name="afii10102" unicode="&#x455;" horiz-adv-x="494" 
d="M438 137q0 -66 -52 -104.5t-141 -38.5q-123 0 -195 69l35 35q56 -59 158 -59q145 0 145 98q0 38 -22 57t-70 24l-80 7q-145 12 -145 126q0 63 47 100t126 37q100 0 169 -51l-34 -34q-56 41 -135 41q-60 0 -91.5 -24t-31.5 -69q0 -38 23.5 -57t74.5 -24l78 -7
q68 -7 104.5 -34t36.5 -92z" />
    <glyph glyph-name="afii10103" unicode="&#x456;" horiz-adv-x="245" 
d="M148 0h-51v482h51v-482zM154 649h-63v63h63v-63z" />
    <glyph glyph-name="afii10104" unicode="&#x457;" horiz-adv-x="245" 
d="M148 0h-51v482h51v-482zM48 600h-58v77h58v-77zM256 600h-58v77h58v-77z" />
    <glyph glyph-name="afii10105" unicode="&#x458;" horiz-adv-x="245" 
d="M148 -105q0 -59 -29 -92t-87 -33h-44v45h35q41 0 57.5 19t16.5 62v586h51v-587zM154 649h-63v63h63v-63z" />
    <glyph glyph-name="afii10106" unicode="&#x459;" horiz-adv-x="797" 
d="M757 142q0 -64 -40.5 -103t-108.5 -39h-212v439h-201v-187q0 -139 -41 -195.5t-112 -56.5h-22v43h15q21 0 36.5 6.5t34 27.5t29 70t10.5 124v211h302v-198h161q68 0 108.5 -39t40.5 -103zM706 142q0 48 -27.5 73.5t-78.5 25.5h-153v-198h153q52 0 79 25.5t27 73.5z" />
    <glyph glyph-name="afii10107" unicode="&#x45a;" horiz-adv-x="812" 
d="M772 142q0 -64 -40.5 -103t-108.5 -39h-212v241h-263v-241h-51v482h51v-198h263v198h51v-198h161q68 0 108.5 -39t40.5 -103zM721 142q0 48 -27.5 73.5t-78.5 25.5h-153v-198h153q52 0 79 25.5t27 73.5z" />
    <glyph glyph-name="afii10108" unicode="&#x45b;" horiz-adv-x="559" 
d="M468 0h-51v299q0 70 -34.5 107t-98.5 37t-100 -38t-36 -106v-299h-51v564h-61v38h61v110h51v-110h254v-38h-254v-139q32 34 64.5 48.5t78.5 14.5q82 0 129.5 -48.5t47.5 -131.5v-308z" />
    <glyph glyph-name="afii10109" unicode="&#x45c;" horiz-adv-x="485" 
d="M154 249l233 233h66l-233 -229l256 -253h-70zM153 482v-482h-51v482h51zM374 737l-106 -147h-58l97 147h67z" />
    <glyph glyph-name="uni045D" unicode="&#x45d;" horiz-adv-x="573" 
d="M476 0h-51v408l-277 -408h-51v482h51v-408l277 408h51v-482zM317 590h-58l-106 147h67z" />
    <glyph glyph-name="afii10110" unicode="&#x45e;" horiz-adv-x="430" 
d="M416 482l-224 -613q-14 -40 -33 -56q-32 -31 -91 -31h-24v45h19q40 0 57.5 14t30.5 52l39 107l-176 482h56l145 -422l145 422h56zM355 697q-10 -120 -140 -120t-140 120h51q8 -80 89 -80t89 80h51z" />
    <glyph glyph-name="afii10193" unicode="&#x45f;" horiz-adv-x="559" 
d="M462 0h-157v-150h-51v150h-157v482h51v-439h263v439h51v-482z" />
    <glyph glyph-name="afii10146" unicode="&#x462;" horiz-adv-x="642" 
d="M599 205q0 -93 -58.5 -149t-156.5 -56h-263v559h-81v42h81v111h54v-111h178v-42h-178v-149h209q98 0 156.5 -56t58.5 -149zM545 205q0 75 -43.5 116t-123.5 41h-203v-314h203q80 0 123.5 41t43.5 116z" />
    <glyph glyph-name="afii10194" unicode="&#x463;" horiz-adv-x="498" 
d="M458 142q0 -64 -40.5 -103t-108.5 -39h-212v390h-65v36h65v56h51v-56h136v-36h-136v-106h161q68 0 108.5 -39t40.5 -103zM407 142q0 48 -27.5 73.5t-78.5 25.5h-153v-198h153q52 0 79 25.5t27 73.5z" />
    <glyph glyph-name="afii10147" unicode="&#x472;" horiz-adv-x="652" 
d="M570 356q0 -138 -12 -192.5t-59 -101.5q-68 -68 -173 -68t-173 68q-47 47 -59 101.5t-12 192.5t12 192.5t59 101.5q68 68 173 68t173 -68q47 -47 59 -101.5t12 -192.5zM516 335h-380q0 -107 10 -155.5t45 -82.5q55 -55 135 -55t135 55q34 34 44 82t11 156zM516 383
q-1 104 -11 151t-44 81q-55 55 -135 55t-135 -55q-34 -34 -44.5 -81.5t-10.5 -150.5h380z" />
    <glyph glyph-name="afii10195" unicode="&#x473;" horiz-adv-x="526" 
d="M457 241q0 -134 -60 -194q-53 -53 -134 -53t-134 53q-60 60 -60 194t60 194q53 53 134 53t134 -53q60 -60 60 -194zM363 80q41 41 43 150h-286q0 -108 43 -150q41 -41 100 -41t100 41zM163 402q-39 -39 -43 -131h285q-2 91 -42 131q-41 41 -100 41t-100 -41z" />
    <glyph glyph-name="afii10148" unicode="&#x474;" horiz-adv-x="534" 
d="M620 664h-37q-74 0 -101 -80l-192 -584h-46l-234 712h57l200 -617l165 509q16 50 50.5 79t83.5 29h54v-48z" />
    <glyph glyph-name="afii10196" unicode="&#x475;" horiz-adv-x="430" 
d="M478 439h-19q-36 0 -52.5 -13t-30.5 -53l-136 -373h-50l-176 482h56l145 -422l115 335q13 37 33 56q34 31 91 31h24v-43z" />
    <glyph glyph-name="afii10050" unicode="&#x490;" horiz-adv-x="564" 
d="M540 664h-368v-664h-54v712h368v170h54v-218z" />
    <glyph glyph-name="afii10098" unicode="&#x491;" horiz-adv-x="411" 
d="M401 439h-249v-439h-51v482h249v160h51v-203z" />
    <glyph glyph-name="uni0492" unicode="&#x492;" horiz-adv-x="558" 
d="M534 664h-368v-284h178v-42h-178v-338h-54v338h-81v42h81v332h422v-48z" />
    <glyph glyph-name="uni0493" unicode="&#x493;" horiz-adv-x="397" 
d="M387 439h-249v-157h136v-36h-136v-246h-51v246h-65v36h65v200h300v-43z" />
    <glyph glyph-name="uni0496" unicode="&#x496;" horiz-adv-x="886" 
d="M886 -180h-54v180h-22l-339 371l316 341h72l-323 -340l305 -324h45v-228zM0 0l350 372l-323 340h72l316 -341l-339 -371h-76zM470 0h-54v712h54v-712z" />
    <glyph glyph-name="uni0497" unicode="&#x497;" horiz-adv-x="699" 
d="M690 -150h-51v150h-19l-244 249l225 233h66l-225 -229l204 -208h44v-195zM98 482l225 -233l-244 -249h-70l248 253l-225 229h66zM375 0h-51v482h51v-482z" />
    <glyph glyph-name="uni049A" unicode="&#x49a;" horiz-adv-x="600" 
d="M600 -180h-54v180h-22l-354 371l331 341h72l-338 -340l318 -324h47v-228zM115 0v712h54v-712h-54z" />
    <glyph glyph-name="uni049B" unicode="&#x49b;" horiz-adv-x="485" 
d="M476 -150h-51v150h-19l-252 249l233 233h66l-233 -229l210 -208h46v-195zM153 482v-482h-51v482h51z" />
    <glyph glyph-name="uni049C" unicode="&#x49c;" horiz-adv-x="642" 
d="M211 184v161h-42v-345h-54v712h54v-319h42v161h53v-161h27l252 319h72l-278 -340l305 -372h-76l-272 345h-30v-161h-53z" />
    <glyph glyph-name="uni049D" unicode="&#x49d;" horiz-adv-x="530" 
d="M193 94v134h-40v-228h-51v482h51v-211h40v134h50v-134h25l164 211h66l-183 -229l206 -253h-70l-184 228h-24v-134h-50z" />
    <glyph glyph-name="uni04A2" unicode="&#x4a2;" horiz-adv-x="699" 
d="M616 -180h-54v180h-27v335h-371v-335h-54v712h54v-329h371v329h54v-664h27v-228z" />
    <glyph glyph-name="uni04A3" unicode="&#x4a3;" horiz-adv-x="559" 
d="M487 -150h-51v150h-25v227h-263v-227h-51v482h51v-210h263v210h51v-437h25v-195z" />
    <glyph glyph-name="uni04AE" unicode="&#x4ae;" horiz-adv-x="494" 
d="M484 712l-210 -417v-295h-54v295l-210 417h58l181 -360l177 360h58z" />
    <glyph glyph-name="uni04AF" unicode="&#x4af;" horiz-adv-x="430" 
d="M416 482l-175 -482v-230h-51v230l-176 482h56l145 -422l145 422h56z" />
    <glyph glyph-name="uni04B0" unicode="&#x4b0;" horiz-adv-x="494" 
d="M484 712l-210 -417h129v-42h-129v-253h-54v253h-129v42h129l-210 417h58l181 -360l177 360h58z" />
    <glyph glyph-name="uni04B1" unicode="&#x4b1;" horiz-adv-x="430" 
d="M416 482l-175 -482h95v-36h-95v-194h-51v194h-95v36h95l-176 482h56l145 -422l145 422h56z" />
    <glyph glyph-name="uni04B2" unicode="&#x4b2;" horiz-adv-x="532" 
d="M514 -180h-54v180h-9l-186 317l-186 -317h-61l218 365l-204 347h63l170 -299l171 299h62l-204 -347l191 -317h29v-228z" />
    <glyph glyph-name="uni04B3" unicode="&#x4b3;" horiz-adv-x="460" 
d="M420 -150h-51v150h-11l-127 203l-129 -203h-62l163 246l-156 236h62l122 -194l120 194h62l-156 -236l133 -201h30v-195z" />
    <glyph glyph-name="uni04B6" unicode="&#x4b6;" horiz-adv-x="644" 
d="M561 -180h-54v180h-27v300q-141 -30 -208 -30q-84 0 -138 41.5t-54 137.5v263h54v-256q0 -80 41 -109t106 -29q56 0 199 28v366h54v-664h27v-228z" />
    <glyph glyph-name="uni04B7" unicode="&#x4b7;" horiz-adv-x="530" 
d="M458 -150h-51v150h-25v195q-100 -21 -160 -21q-143 0 -143 140v168h51v-163q0 -97 101 -97q65 0 151 18v242h51v-437h25v-195z" />
    <glyph glyph-name="uni04B8" unicode="&#x4b8;" horiz-adv-x="644" 
d="M281 107v163h-9q-84 0 -138 41.5t-54 137.5v263h54v-256q0 -80 41 -109t106 -29v162h53v-159q38 5 146 25v366h54v-712h-54v300q-84 -18 -146 -26v-167h-53z" />
    <glyph glyph-name="uni04B9" unicode="&#x4b9;" horiz-adv-x="530" 
d="M231 42v132h-9q-143 0 -143 140v168h51v-163q0 -97 101 -97v132h50v-130q45 4 101 16v242h51v-482h-51v195q-47 -11 -101 -17v-136h-50z" />
    <glyph glyph-name="uni04BA" unicode="&#x4ba;" horiz-adv-x="644" 
d="M564 0h-54v256q0 80 -41 109t-106 29q-56 0 -199 -28v-366h-54v712h54v-300q141 30 208 30q84 0 138 -41.5t54 -137.5v-263z" />
    <glyph glyph-name="uni04BB" unicode="&#x4bb;" horiz-adv-x="530" 
d="M451 0h-51v163q0 97 -101 97q-65 0 -151 -18v-242h-51v482h51v-195q100 21 160 21q143 0 143 -140v-168z" />
    <glyph glyph-name="uni04C0" unicode="&#x4c0;" horiz-adv-x="274" 
d="M164 0h-54v712h54v-712z" />
    <glyph glyph-name="uni04CF" unicode="&#x4cf;" horiz-adv-x="241" 
d="M146 0h-51v712h51v-712z" />
    <glyph glyph-name="uni04D8" unicode="&#x4d8;" horiz-adv-x="651" 
d="M569 356q0 -138 -12 -192.5t-59 -101.5q-68 -68 -173 -68q-113 0 -187 82q-58 65 -58 172v116h435q0 116 -9.5 165.5t-45.5 85.5q-55 55 -135 55q-72 0 -122.5 -43t-66.5 -117h-54q16 94 83 151t160 57q105 0 173 -68q47 -47 59 -101.5t12 -192.5zM515 316h-381v-64
q0 -87 43 -141q57 -69 148 -69q80 0 135 55q33 33 43.5 78.5t11.5 140.5z" />
    <glyph glyph-name="afii10846" unicode="&#x4d9;" horiz-adv-x="523" 
d="M403 252q0 93 -40 141.5t-117 48.5q-42 0 -72 -13.5t-61 -44.5l-38 30q39 39 78 56.5t96 17.5q100 0 152.5 -63t52.5 -184q0 -117 -51 -182t-142 -65t-142 62t-51 173v23h335zM403 211h-284q4 -62 17 -91q16 -38 49.5 -59.5t75.5 -21.5t75.5 21.5t49.5 59.5q13 33 17 91z
" />
    <glyph glyph-name="uni04E2" unicode="&#x4e2;" horiz-adv-x="720" 
d="M610 0h-54v624l-392 -624h-54v712h54v-622l392 622h54v-712zM508 800h-296v46h296v-46z" />
    <glyph glyph-name="uni04E3" unicode="&#x4e3;" horiz-adv-x="573" 
d="M476 0h-51v408l-277 -408h-51v482h51v-408l277 408h51v-482zM434 610h-296v46h296v-46z" />
    <glyph glyph-name="uni04E8" unicode="&#x4e8;" horiz-adv-x="652" 
d="M570 356q0 -138 -12 -192.5t-59 -101.5q-68 -68 -173 -68t-173 68q-47 47 -59 101.5t-12 192.5t12 192.5t59 101.5q68 68 173 68t173 -68q47 -47 59 -101.5t12 -192.5zM516 335h-380q0 -107 10 -155.5t45 -82.5q55 -55 135 -55t135 55q34 34 44 82t11 156zM516 383
q-1 104 -11 151t-44 81q-55 55 -135 55t-135 -55q-34 -34 -44.5 -81.5t-10.5 -150.5h380z" />
    <glyph glyph-name="uni04E9" unicode="&#x4e9;" horiz-adv-x="526" 
d="M457 241q0 -134 -60 -194q-53 -53 -134 -53t-134 53q-60 60 -60 194t60 194q53 53 134 53t134 -53q60 -60 60 -194zM363 80q41 41 43 150h-286q0 -108 43 -150q41 -41 100 -41t100 41zM163 402q-39 -39 -43 -131h285q-2 91 -42 131q-41 41 -100 41t-100 -41z" />
    <glyph glyph-name="uni04EE" unicode="&#x4ee;" horiz-adv-x="534" 
d="M522 712l-259 -604q-46 -108 -134 -108h-54v48h42q39 0 60.5 18t40.5 62l31 74l-237 510h58l207 -449l187 449h58zM425 800h-296v46h296v-46z" />
    <glyph glyph-name="uni04EF" unicode="&#x4ef;" horiz-adv-x="430" 
d="M363 610h-296v46h296v-46zM416 482l-224 -613q-14 -40 -33 -56q-32 -31 -91 -31h-24v45h19q40 0 57.5 14t30.5 52l39 107l-176 482h56l145 -422l145 422h56z" />
    <glyph glyph-name="Wgrave" unicode="&#x1e80;" horiz-adv-x="842" 
d="M822 712l-178 -712h-55l-168 620l-168 -620h-55l-178 712h57l150 -619l166 619h56l166 -619l150 619h57zM447 780h-58l-106 147h67z" />
    <glyph glyph-name="wgrave" unicode="&#x1e81;" horiz-adv-x="712" 
d="M698 482l-154 -482h-52l-136 402l-136 -402h-52l-154 482h56l123 -422l138 422h50l138 -422l123 422h56zM387 590h-58l-106 147h67z" />
    <glyph glyph-name="Wacute" unicode="&#x1e82;" horiz-adv-x="842" 
d="M822 712l-178 -712h-55l-168 620l-168 -620h-55l-178 712h57l150 -619l166 619h56l166 -619l150 619h57zM558 927l-106 -147h-58l97 147h67z" />
    <glyph glyph-name="wacute" unicode="&#x1e83;" horiz-adv-x="712" 
d="M698 482l-154 -482h-52l-136 402l-136 -402h-52l-154 482h56l123 -422l138 422h50l138 -422l123 422h56zM490 737l-106 -147h-58l97 147h67z" />
    <glyph glyph-name="Wdieresis" unicode="&#x1e84;" horiz-adv-x="842" 
d="M822 712l-178 -712h-55l-168 620l-168 -620h-55l-178 712h57l150 -619l166 619h56l166 -619l150 619h57zM345 790h-58v77h58v-77zM553 790h-58v77h58v-77z" />
    <glyph glyph-name="wdieresis" unicode="&#x1e85;" horiz-adv-x="712" 
d="M698 482l-154 -482h-52l-136 402l-136 -402h-52l-154 482h56l123 -422l138 422h50l138 -422l123 422h56zM281 600h-58v77h58v-77zM489 600h-58v77h58v-77z" />
    <glyph glyph-name="uni1E8A" unicode="&#x1e8a;" horiz-adv-x="532" 
d="M514 0h-63l-186 317l-186 -317h-61l218 365l-204 347h63l170 -299l171 299h62l-204 -347zM296 800h-62v63h62v-63z" />
    <glyph glyph-name="uni1E8B" unicode="&#x1e8b;" horiz-adv-x="460" 
d="M420 0h-62l-127 203l-129 -203h-62l163 246l-156 236h62l122 -194l120 194h62l-156 -236zM262 610h-62v63h62v-63z" />
    <glyph glyph-name="Ygrave" unicode="&#x1ef2;" horiz-adv-x="494" 
d="M484 712l-210 -417v-295h-54v295l-210 417h58l181 -360l177 360h58zM283 780h-58l-106 147h67z" />
    <glyph glyph-name="ygrave" unicode="&#x1ef3;" horiz-adv-x="430" 
d="M416 482l-224 -613q-14 -40 -33 -56q-32 -31 -91 -31h-24v45h19q40 0 57.5 14t30.5 52l39 107l-176 482h56l145 -422l145 422h56zM237 590h-58l-106 147h67z" />
    <glyph glyph-name="uni2007" unicode="&#x2007;" 
 />
    <glyph glyph-name="uni2008" unicode="&#x2008;" horiz-adv-x="264" 
 />
    <glyph glyph-name="uni200B" unicode="&#x200b;" horiz-adv-x="0" 
 />
    <glyph glyph-name="endash" unicode="&#x2013;" 
d="M461 240h-408v47h408v-47z" />
    <glyph glyph-name="emdash" unicode="&#x2014;" horiz-adv-x="873" 
d="M791 240h-709v47h709v-47z" />
    <glyph glyph-name="afii00208" unicode="&#x2015;" horiz-adv-x="873" 
d="M791 240h-709v47h709v-47z" />
    <glyph glyph-name="quoteleft" unicode="&#x2018;" horiz-adv-x="260" 
d="M165 642h-70v70l70 70v-140z" />
    <glyph glyph-name="quoteright" unicode="&#x2019;" horiz-adv-x="260" 
d="M165 642l-70 -70v140h70v-70z" />
    <glyph glyph-name="quotesinglbase" unicode="&#x201a;" horiz-adv-x="260" 
d="M165 0l-70 -70v140h70v-70z" />
    <glyph glyph-name="quotedblleft" unicode="&#x201c;" horiz-adv-x="416" 
d="M165 642h-70v70l70 70v-140zM321 642h-70v70l70 70v-140z" />
    <glyph glyph-name="quotedblright" unicode="&#x201d;" horiz-adv-x="416" 
d="M165 642l-70 -70v140h70v-70zM321 642l-70 -70v140h70v-70z" />
    <glyph glyph-name="quotedblbase" unicode="&#x201e;" horiz-adv-x="416" 
d="M165 0l-70 -70v140h70v-70zM321 0l-70 -70v140h70v-70z" />
    <glyph glyph-name="dagger" unicode="&#x2020;" horiz-adv-x="614" 
d="M534 457h-203v-457h-51v457h-200v45h200v210h51v-210h203v-45z" />
    <glyph glyph-name="daggerdbl" unicode="&#x2021;" horiz-adv-x="614" 
d="M534 -20h-203v-210h-51v210h-200v45h200v432h-200v45h200v210h51v-210h203v-45h-203v-432h203v-45z" />
    <glyph glyph-name="bullet" unicode="&#x2022;" horiz-adv-x="546" 
d="M436 334q0 -68 -48 -115.5t-115 -47.5t-115 47.5t-48 115.5t48 115.5t115 47.5t115 -47.5t48 -115.5z" />
    <glyph glyph-name="ellipsis" unicode="&#x2026;" horiz-adv-x="724" 
d="M95 0v74h74v-74h-74zM325 0v74h74v-74h-74zM555 0v74h74v-74h-74z" />
    <glyph glyph-name="perthousand" unicode="&#x2030;" horiz-adv-x="1168" 
d="M288 480v103q0 98 -87 98q-88 0 -88 -98v-103q0 -97 88 -97q87 0 87 97zM332 478q0 -60 -36 -96.5t-95 -36.5t-95.5 36.5t-36.5 96.5v107q0 60 36.5 97t95.5 37t95 -37t36 -97v-107zM271 0h-45l332 712h45zM715 128v103q0 98 -87 98q-88 0 -88 -98v-103q0 -97 88 -97
q87 0 87 97zM759 126q0 -60 -36 -96.5t-95 -36.5t-95.5 36.5t-36.5 96.5v107q0 60 36.5 97t95.5 37t95 -37t36 -97v-107zM1055 128v103q0 98 -87 98q-88 0 -88 -98v-103q0 -97 88 -97q87 0 87 97zM1099 126q0 -60 -36 -96.5t-95 -36.5t-95.5 36.5t-36.5 96.5v107
q0 60 36.5 97t95.5 37t95 -37t36 -97v-107z" />
    <glyph glyph-name="guilsinglleft" unicode="&#x2039;" horiz-adv-x="320" 
d="M238 69l-196 196l196 196v-66l-130 -130l130 -130v-66z" />
    <glyph glyph-name="guilsinglright" unicode="&#x203a;" horiz-adv-x="320" 
d="M278 265l-196 -196v66l130 130l-130 130v66z" />
    <glyph glyph-name="fraction" unicode="&#x2044;" horiz-adv-x="177" 
d="M277 712l-332 -712h-45l332 712h45z" />
    <glyph glyph-name="uni2070" unicode="&#x2070;" horiz-adv-x="313" 
d="M274 399q0 -53 -33 -85.5t-84 -32.5t-84 32.5t-33 85.5v199q0 53 33 85.5t84 32.5t84 -32.5t33 -85.5v-199zM230 401v195q0 36 -19.5 58.5t-53.5 22.5t-53.5 -22.5t-19.5 -58.5v-195q0 -36 19 -58t54 -22q34 0 53.5 22t19.5 58z" />
    <glyph glyph-name="uni2074" unicode="&#x2074;" horiz-adv-x="313" 
d="M290 352h-52v-67h-44v67h-170v40l154 320h47l-153 -320h122v120h44v-120h52v-40z" />
    <glyph glyph-name="uni2075" unicode="&#x2075;" horiz-adv-x="313" 
d="M278 426q0 -79 -34 -113q-32 -32 -86 -32q-56 0 -86 30q-27 27 -30 75h44q8 -65 72 -65q34 0 53 19q23 23 23 86q0 103 -72 103q-57 0 -70 -42h-40v225h216v-40h-176v-133q25 28 76 28q48 0 74 -26q36 -37 36 -115z" />
    <glyph glyph-name="uni2076" unicode="&#x2076;" horiz-adv-x="313" 
d="M276 408q0 -56 -32 -91.5t-86 -35.5t-86.5 34t-32.5 90q0 40 26 95l105 212h46l-95 -191q17 8 44 8q49 0 80 -34t31 -87zM232 406q0 37 -20 61.5t-55 24.5q-34 0 -54 -23t-20 -63q0 -39 20 -62t54 -23t54.5 23t20.5 62z" />
    <glyph glyph-name="uni2077" unicode="&#x2077;" horiz-adv-x="313" 
d="M283 673l-148 -388h-44l148 387h-151v-71h-43v111h238v-39z" />
    <glyph glyph-name="uni2078" unicode="&#x2078;" horiz-adv-x="313" 
d="M283 403q0 -54 -36 -88t-90 -34t-90 34t-36 88q0 68 64 104q-56 31 -56 94q0 50 33.5 82.5t84.5 32.5t84.5 -32.5t33.5 -82.5q0 -64 -56 -94q64 -36 64 -104zM239 403q0 35 -23.5 59t-58.5 24t-58.5 -24t-23.5 -59t23.5 -58.5t58.5 -23.5t58.5 23.5t23.5 58.5zM231 601
q0 33 -20.5 54t-53.5 21t-53.5 -21t-20.5 -54t20.5 -54.5t53.5 -21.5t53.5 21.5t20.5 54.5z" />
    <glyph glyph-name="uni2079" unicode="&#x2079;" horiz-adv-x="313" 
d="M275 592q0 -40 -27 -94l-105 -213h-46l96 191q-21 -8 -45 -8q-50 0 -80.5 34t-30.5 87q0 56 32.5 91.5t86.5 35.5t86.5 -34t32.5 -90zM231 591q0 39 -20.5 62t-54.5 23t-54.5 -23t-20.5 -62q0 -37 20 -61.5t55 -24.5q34 0 54.5 23.5t20.5 62.5z" />
    <glyph glyph-name="uni2080" unicode="&#x2080;" horiz-adv-x="313" 
d="M274 -36q0 -53 -33 -85.5t-84 -32.5t-84 32.5t-33 85.5v199q0 53 33 85.5t84 32.5t84 -32.5t33 -85.5v-199zM230 -34v195q0 36 -19.5 58.5t-53.5 22.5t-53.5 -22.5t-19.5 -58.5v-195q0 -36 19 -58t54 -22q34 0 53.5 22t19.5 58z" />
    <glyph glyph-name="uni2081" unicode="&#x2081;" horiz-adv-x="313" 
d="M196 -150h-44v378l-80 -71v51l80 69h44v-427z" />
    <glyph glyph-name="uni2082" unicode="&#x2082;" horiz-adv-x="313" 
d="M280 -150h-236v40l168 213q23 31 23 62q0 36 -19 56t-54 20q-32 0 -53 -18.5t-21 -57.5h-44q0 51 32 83.5t86 32.5t86 -31t32 -85q0 -43 -34 -87l-149 -188h183v-40z" />
    <glyph glyph-name="uni2083" unicode="&#x2083;" horiz-adv-x="313" 
d="M287 -32q0 -57 -35 -89.5t-90 -32.5q-54 0 -89.5 29.5t-37.5 84.5h45q2 -37 25 -55.5t57 -18.5q35 0 58 22.5t23 59.5q0 81 -84 81h-8v39h8q37 0 56.5 20t19.5 56t-21.5 56.5t-52.5 20.5q-33 0 -53 -18.5t-23 -51.5h-44q4 51 37 80.5t83 29.5q53 0 85.5 -31.5t32.5 -84.5
q0 -69 -57 -94q65 -24 65 -103z" />
    <glyph glyph-name="uni2084" unicode="&#x2084;" horiz-adv-x="313" 
d="M290 -83h-52v-67h-44v67h-170v40l154 320h47l-153 -320h122v120h44v-120h52v-40z" />
    <glyph glyph-name="uni2085" unicode="&#x2085;" horiz-adv-x="313" 
d="M278 -9q0 -79 -34 -113q-32 -32 -86 -32q-56 0 -86 30q-27 27 -30 75h44q8 -65 72 -65q34 0 53 19q23 23 23 86q0 103 -72 103q-57 0 -70 -42h-40v225h216v-40h-176v-133q25 28 76 28q48 0 74 -26q36 -37 36 -115z" />
    <glyph glyph-name="uni2086" unicode="&#x2086;" horiz-adv-x="313" 
d="M276 -27q0 -56 -32 -91.5t-86 -35.5t-86.5 34t-32.5 90q0 40 26 95l105 212h46l-95 -191q17 8 44 8q49 0 80 -34t31 -87zM232 -29q0 37 -20 61.5t-55 24.5q-34 0 -54 -23t-20 -63q0 -39 20 -62t54 -23t54.5 23t20.5 62z" />
    <glyph glyph-name="uni2087" unicode="&#x2087;" horiz-adv-x="313" 
d="M283 238l-148 -388h-44l148 387h-151v-71h-43v111h238v-39z" />
    <glyph glyph-name="uni2088" unicode="&#x2088;" horiz-adv-x="313" 
d="M283 -32q0 -54 -36 -88t-90 -34t-90 34t-36 88q0 68 64 104q-56 31 -56 94q0 50 33.5 82.5t84.5 32.5t84.5 -32.5t33.5 -82.5q0 -64 -56 -94q64 -36 64 -104zM239 -32q0 35 -23.5 59t-58.5 24t-58.5 -24t-23.5 -59t23.5 -58.5t58.5 -23.5t58.5 23.5t23.5 58.5zM231 166
q0 33 -20.5 54t-53.5 21t-53.5 -21t-20.5 -54t20.5 -54.5t53.5 -21.5t53.5 21.5t20.5 54.5z" />
    <glyph glyph-name="uni2089" unicode="&#x2089;" horiz-adv-x="313" 
d="M275 157q0 -40 -27 -94l-105 -213h-46l96 191q-21 -8 -45 -8q-50 0 -80.5 34t-30.5 87q0 56 32.5 91.5t86.5 35.5t86.5 -34t32.5 -90zM231 156q0 39 -20.5 62t-54.5 23t-54.5 -23t-20.5 -62q0 -37 20 -61.5t55 -24.5q34 0 54.5 23t20.5 63z" />
    <glyph glyph-name="Euro" unicode="&#x20ac;" horiz-adv-x="676" 
d="M600 202q-18 -96 -83 -152t-159 -56q-105 0 -173 68q-39 39 -53.5 82t-16.5 124h-65v38h64v106h-64v38h65q2 77 16.5 119t53.5 81q68 68 173 68q95 0 159.5 -55.5t82.5 -152.5h-55q-16 74 -65.5 117t-121.5 43q-80 0 -135 -55q-28 -28 -39.5 -64t-14.5 -101h244v-38h-245
v-106h245v-38h-244q2 -68 13.5 -105.5t40.5 -65.5q55 -55 135 -55q72 0 122.5 43t66.5 117h53z" />
    <glyph glyph-name="uni20B4" unicode="&#x20b4;" horiz-adv-x="651" 
d="M601 412h-77q-9 -12 -21 -21q-45 -39 -127 -51l-83 -13q-58 -9 -80 -21h388v-38h-430q-20 -30 -20 -79q0 -69 49 -108t134 -39q65 0 110 18.5t92 65.5l38 -38q-50 -50 -104.5 -72t-132.5 -22q-111 0 -175.5 53.5t-64.5 143.5q0 43 15 77h-62v38h86q10 12 22 22
q25 21 51.5 31.5t75.5 17.5l83 13q42 7 72 22h-390v38h437q19 28 19 75q0 69 -43.5 108t-121.5 39q-104 0 -173 -66l-35 35q47 41 94 59t111 18q102 0 161.5 -52.5t59.5 -142.5q0 -39 -13 -73h55v-38z" />
    <glyph glyph-name="afii61352" unicode="&#x2116;" horiz-adv-x="940" 
d="M548 0h-51l-361 616v-616h-51v712h51l361 -614v614h51v-712zM834 542q0 82 -25 107q-24 24 -60 24t-60 -24q-25 -25 -25 -107t25 -107q24 -24 60 -24t60 24q25 25 25 107zM881 542q0 -98 -41 -139q-35 -35 -91 -35t-91 35q-41 41 -41 139t41 139q35 35 91 35t91 -35
q41 -41 41 -139zM879 285h-262v44h262v-44z" />
    <glyph glyph-name="trademark" unicode="&#x2122;" horiz-adv-x="809" 
d="M753 285h-44v328l-110 -218h-46l-110 218v-328h-44v427h44l133 -270l133 270h44v-427zM320 671h-122v-386h-44v386h-122v41h288v-41z" />
    <glyph glyph-name="Omega" unicode="&#x2126;" horiz-adv-x="652" 
d="M570 356q0 -101 -5 -152t-24 -86q-20 -38 -62 -71h91v-47h-186v47q73 35 105 88q17 28 22 78t5 143q0 122 -9.5 172.5t-45.5 86.5q-55 55 -135 55t-135 -55q-36 -36 -45.5 -86.5t-9.5 -172.5q0 -93 5 -143t22 -78q32 -53 105 -88v-47h-186v47h91q-42 33 -62 71
q-19 35 -24 86t-5 152q0 138 12 192.5t59 101.5q68 68 173 68t173 -68q47 -47 59 -101.5t12 -192.5z" />
    <glyph glyph-name="uni2150" unicode="&#x2150;" horiz-adv-x="803" 
d="M196 285h-44v378l-80 -71v51l80 69h44v-427zM590 712l-332 -712h-45l332 712h45zM773 388l-148 -388h-44l148 387h-151v-71h-43v111h238v-39z" />
    <glyph glyph-name="uni2151" unicode="&#x2151;" horiz-adv-x="803" 
d="M196 285h-44v378l-80 -71v51l80 69h44v-427zM590 712l-332 -712h-45l332 712h45zM765 307q0 -40 -27 -94l-105 -213h-46l96 191q-21 -8 -45 -8q-50 0 -80.5 34t-30.5 87q0 56 32.5 91.5t86.5 35.5t86.5 -34t32.5 -90zM721 306q0 39 -20.5 62t-54.5 23t-54.5 -23
t-20.5 -62q0 -37 20 -61.5t55 -24.5q34 0 54.5 23t20.5 63z" />
    <glyph glyph-name="uni2152" unicode="&#x2152;" horiz-adv-x="1116" 
d="M196 285h-44v378l-80 -71v51l80 69h44v-427zM590 712l-332 -712h-45l332 712h45zM686 0h-44v378l-80 -71v51l80 69h44v-427zM1077 114q0 -53 -33 -85.5t-84 -32.5t-84 32.5t-33 85.5v199q0 53 33 85.5t84 32.5t84 -32.5t33 -85.5v-199zM1033 116v195q0 36 -19.5 58.5
t-53.5 22.5t-53.5 -22.5t-19.5 -58.5v-195q0 -36 19 -58t54 -22q34 0 53.5 22t19.5 58z" />
    <glyph glyph-name="onethird" unicode="&#x2153;" horiz-adv-x="803" 
d="M196 285h-44v378l-80 -71v51l80 69h44v-427zM590 712l-332 -712h-45l332 712h45zM772 118q0 -57 -35 -89.5t-90 -32.5q-54 0 -89.5 29.5t-37.5 84.5h45q2 -37 25 -55.5t57 -18.5q35 0 58 22.5t23 59.5q0 81 -84 81h-8v39h8q37 0 56.5 20t19.5 56t-21.5 56.5t-52.5 20.5
q-33 0 -53 -18.5t-23 -51.5h-44q4 51 37 80.5t83 29.5q53 0 85.5 -31.5t32.5 -84.5q0 -69 -57 -94q65 -24 65 -103z" />
    <glyph glyph-name="twothirds" unicode="&#x2154;" horiz-adv-x="803" 
d="M280 285h-236v40l168 213q23 31 23 62q0 36 -19 56t-54 20q-32 0 -53 -18.5t-21 -57.5h-44q0 52 32 84t86 32t86 -31t32 -85q0 -43 -34 -87l-149 -188h183v-40zM590 712l-332 -712h-45l332 712h45zM772 118q0 -57 -35 -89.5t-90 -32.5q-54 0 -89.5 29.5t-37.5 84.5h45
q2 -37 25 -55.5t57 -18.5q35 0 58 22.5t23 59.5q0 81 -84 81h-8v39h8q37 0 56.5 20t19.5 56t-21.5 56.5t-52.5 20.5q-33 0 -53 -18.5t-23 -51.5h-44q4 51 37 80.5t83 29.5q53 0 85.5 -31.5t32.5 -84.5q0 -69 -57 -94q65 -24 65 -103z" />
    <glyph glyph-name="uni2155" unicode="&#x2155;" horiz-adv-x="803" 
d="M196 285h-44v378l-80 -71v51l80 69h44v-427zM590 712l-332 -712h-45l332 712h45zM768 141q0 -79 -34 -113q-32 -32 -86 -32q-56 0 -86 30q-27 27 -30 75h44q8 -65 72 -65q34 0 53 19q23 23 23 86q0 103 -72 103q-57 0 -70 -42h-40v225h216v-40h-176v-133q25 28 76 28
q48 0 74 -26q36 -37 36 -115z" />
    <glyph glyph-name="uni2156" unicode="&#x2156;" horiz-adv-x="803" 
d="M280 285h-236v40l168 213q23 31 23 62q0 36 -19 56t-54 20q-32 0 -53 -18.5t-21 -57.5h-44q0 52 32 84t86 32t86 -31t32 -85q0 -43 -34 -87l-149 -188h183v-40zM590 712l-332 -712h-45l332 712h45zM768 141q0 -79 -34 -113q-32 -32 -86 -32q-56 0 -86 30q-27 27 -30 75
h44q8 -65 72 -65q34 0 53 19q23 23 23 86q0 103 -72 103q-57 0 -70 -42h-40v225h216v-40h-176v-133q25 28 76 28q48 0 74 -26q36 -37 36 -115z" />
    <glyph glyph-name="uni2157" unicode="&#x2157;" horiz-adv-x="803" 
d="M282 403q0 -57 -35 -89.5t-90 -32.5q-54 0 -89.5 29.5t-37.5 84.5h45q2 -37 25 -55.5t57 -18.5q35 0 58 22.5t23 59.5q0 81 -84 81h-8v39h8q37 0 56.5 20t19.5 56t-21.5 56.5t-52.5 20.5q-33 0 -53 -18.5t-23 -51.5h-44q4 51 37 80.5t83 29.5q53 0 85.5 -31.5t32.5 -84.5
q0 -68 -57 -94q65 -24 65 -103zM590 712l-332 -712h-45l332 712h45zM768 141q0 -79 -34 -113q-32 -32 -86 -32q-56 0 -86 30q-27 27 -30 75h44q8 -65 72 -65q34 0 53 19q23 23 23 86q0 103 -72 103q-57 0 -70 -42h-40v225h216v-40h-176v-133q25 28 76 28q48 0 74 -26
q36 -37 36 -115z" />
    <glyph glyph-name="uni2158" unicode="&#x2158;" horiz-adv-x="803" 
d="M290 352h-52v-67h-44v67h-170v40l154 320h47l-153 -320h122v120h44v-120h52v-40zM590 712l-332 -712h-45l332 712h45zM768 141q0 -79 -34 -113q-32 -32 -86 -32q-56 0 -86 30q-27 27 -30 75h44q8 -65 72 -65q34 0 53 19q23 23 23 86q0 103 -72 103q-57 0 -70 -42h-40v225
h216v-40h-176v-133q25 28 76 28q48 0 74 -26q36 -37 36 -115z" />
    <glyph glyph-name="uni2159" unicode="&#x2159;" horiz-adv-x="803" 
d="M196 285h-44v378l-80 -71v51l80 69h44v-427zM590 712l-332 -712h-45l332 712h45zM766 123q0 -56 -32 -91.5t-86 -35.5t-86.5 34t-32.5 90q0 40 26 95l105 212h46l-95 -191q17 8 44 8q49 0 80 -34t31 -87zM722 121q0 37 -20 61.5t-55 24.5q-34 0 -54 -23t-20 -63
q0 -39 20 -62t54 -23t54.5 23t20.5 62z" />
    <glyph glyph-name="uni215A" unicode="&#x215a;" horiz-adv-x="803" 
d="M278 426q0 -79 -34 -113q-32 -32 -86 -32q-56 0 -86 30q-27 27 -30 75h44q8 -65 72 -65q34 0 53 19q23 23 23 86q0 103 -72 103q-57 0 -70 -42h-40v225h216v-40h-176v-133q25 28 76 28q48 0 74 -26q36 -37 36 -115zM590 712l-332 -712h-45l332 712h45zM766 123
q0 -56 -32 -91.5t-86 -35.5t-86.5 34t-32.5 90q0 40 26 95l105 212h46l-95 -191q17 8 44 8q49 0 80 -34t31 -87zM722 121q0 37 -20 61.5t-55 24.5q-34 0 -54 -23t-20 -63q0 -39 20 -62t54 -23t54.5 23t20.5 62z" />
    <glyph glyph-name="oneeighth" unicode="&#x215b;" horiz-adv-x="803" 
d="M196 285h-44v378l-80 -71v51l80 69h44v-427zM590 712l-332 -712h-45l332 712h45zM773 118q0 -54 -36 -88t-90 -34t-90 34t-36 88q0 68 64 104q-56 31 -56 94q0 50 33.5 82.5t84.5 32.5t84.5 -32.5t33.5 -82.5q0 -64 -56 -94q64 -36 64 -104zM729 118q0 35 -23.5 59
t-58.5 24t-58.5 -24t-23.5 -59t23.5 -58.5t58.5 -23.5t58.5 23.5t23.5 58.5zM721 316q0 33 -20.5 54t-53.5 21t-53.5 -21t-20.5 -54t20.5 -54.5t53.5 -21.5t53.5 21.5t20.5 54.5z" />
    <glyph glyph-name="threeeighths" unicode="&#x215c;" horiz-adv-x="803" 
d="M282 403q0 -57 -35 -89.5t-90 -32.5q-54 0 -89.5 29.5t-37.5 84.5h45q2 -37 25 -55.5t57 -18.5q35 0 58 22.5t23 59.5q0 81 -84 81h-8v39h8q37 0 56.5 20t19.5 56t-21.5 56.5t-52.5 20.5q-33 0 -53 -18.5t-23 -51.5h-44q4 51 37 80.5t83 29.5q53 0 85.5 -31.5t32.5 -84.5
q0 -68 -57 -94q65 -24 65 -103zM590 712l-332 -712h-45l332 712h45zM773 118q0 -54 -36 -88t-90 -34t-90 34t-36 88q0 68 64 104q-56 31 -56 94q0 50 33.5 82.5t84.5 32.5t84.5 -32.5t33.5 -82.5q0 -64 -56 -94q64 -36 64 -104zM729 118q0 35 -23.5 59t-58.5 24t-58.5 -24
t-23.5 -59t23.5 -58.5t58.5 -23.5t58.5 23.5t23.5 58.5zM721 316q0 33 -20.5 54t-53.5 21t-53.5 -21t-20.5 -54t20.5 -54.5t53.5 -21.5t53.5 21.5t20.5 54.5z" />
    <glyph glyph-name="fiveeighths" unicode="&#x215d;" horiz-adv-x="803" 
d="M278 426q0 -79 -34 -113q-32 -32 -86 -32q-56 0 -86 30q-27 27 -30 75h44q8 -65 72 -65q34 0 53 19q23 23 23 86q0 103 -72 103q-57 0 -70 -42h-40v225h216v-40h-176v-133q25 28 76 28q48 0 74 -26q36 -37 36 -115zM590 712l-332 -712h-45l332 712h45zM773 118
q0 -54 -36 -88t-90 -34t-90 34t-36 88q0 68 64 104q-56 31 -56 94q0 50 33.5 82.5t84.5 32.5t84.5 -32.5t33.5 -82.5q0 -64 -56 -94q64 -36 64 -104zM729 118q0 35 -23.5 59t-58.5 24t-58.5 -24t-23.5 -59t23.5 -58.5t58.5 -23.5t58.5 23.5t23.5 58.5zM721 316
q0 33 -20.5 54t-53.5 21t-53.5 -21t-20.5 -54t20.5 -54.5t53.5 -21.5t53.5 21.5t20.5 54.5z" />
    <glyph glyph-name="seveneighths" unicode="&#x215e;" horiz-adv-x="803" 
d="M283 673l-148 -388h-44l148 387h-151v-71h-43v111h238v-39zM590 712l-332 -712h-45l332 712h45zM773 118q0 -54 -36 -88t-90 -34t-90 34t-36 88q0 68 64 104q-56 31 -56 94q0 50 33.5 82.5t84.5 32.5t84.5 -32.5t33.5 -82.5q0 -64 -56 -94q64 -36 64 -104zM729 118
q0 35 -23.5 59t-58.5 24t-58.5 -24t-23.5 -59t23.5 -58.5t58.5 -23.5t58.5 23.5t23.5 58.5zM721 316q0 33 -20.5 54t-53.5 21t-53.5 -21t-20.5 -54t20.5 -54.5t53.5 -21.5t53.5 21.5t20.5 54.5z" />
    <glyph glyph-name="uni215F" unicode="&#x215f;" horiz-adv-x="490" 
d="M196 285h-44v378l-80 -71v51l80 69h44v-427zM590 712l-332 -712h-45l332 712h45z" />
    <glyph glyph-name="uni2189" unicode="&#x2189;" horiz-adv-x="803" 
d="M274 399q0 -53 -33 -85.5t-84 -32.5t-84 32.5t-33 85.5v199q0 53 33 85.5t84 32.5t84 -32.5t33 -85.5v-199zM230 401v195q0 36 -19.5 58.5t-53.5 22.5t-53.5 -22.5t-19.5 -58.5v-195q0 -36 19 -58t54 -22q34 0 53.5 22t19.5 58zM590 712l-332 -712h-45l332 712h45z
M772 118q0 -57 -35 -89.5t-90 -32.5q-54 0 -89.5 29.5t-37.5 84.5h45q2 -37 25 -55.5t57 -18.5q35 0 58 22.5t23 59.5q0 81 -84 81h-8v39h8q37 0 56.5 20t19.5 56t-21.5 56.5t-52.5 20.5q-33 0 -53 -18.5t-23 -51.5h-44q4 51 37 80.5t83 29.5q53 0 85.5 -31.5t32.5 -84.5
q0 -69 -57 -94q65 -24 65 -103z" />
    <glyph glyph-name="arrowleft" unicode="&#x2190;" horiz-adv-x="1027" 
d="M971 238h-819l379 -379h-69l-404 404l404 404h69l-379 -379h819v-50z" />
    <glyph glyph-name="arrowup" unicode="&#x2191;" horiz-adv-x="1027" 
d="M918 247l-379 379v-819h-50v819l-379 -379v69l404 404l404 -404v-69z" />
    <glyph glyph-name="arrowright" unicode="&#x2192;" horiz-adv-x="1027" 
d="M971 263l-404 -404h-69l379 379h-819v50h819l-379 379h69z" />
    <glyph glyph-name="arrowdown" unicode="&#x2193;" horiz-adv-x="1027" 
d="M918 211l-404 -404l-404 404v69l379 -379v819h50v-819l379 379v-69z" />
    <glyph glyph-name="uni2196" unicode="&#x2196;" horiz-adv-x="1027" 
d="M854 -42l-35 -35l-580 579v-536l-48 48v572h571l49 -49h-536z" />
    <glyph glyph-name="uni2197" unicode="&#x2197;" horiz-adv-x="1027" 
d="M836 14l-48 -48v536l-580 -579l-35 35l579 579h-536l49 49h571v-572z" />
    <glyph glyph-name="uni2198" unicode="&#x2198;" horiz-adv-x="1027" 
d="M836 -77h-571l-49 48h536l-579 579l35 36l580 -579v536l48 -49v-571z" />
    <glyph glyph-name="uni2199" unicode="&#x2199;" horiz-adv-x="1027" 
d="M854 550l-579 -579h536l-49 -48h-571v571l48 49v-536l580 579z" />
    <glyph glyph-name="partialdiff" unicode="&#x2202;" horiz-adv-x="540" 
d="M443 241q0 -134 -58 -194q-51 -53 -129 -53t-129 53q-58 60 -58 194q0 139 58 197q50 50 122 50q92 0 143 -68v86q0 75 -36.5 121t-109.5 46q-42 0 -67.5 -12t-57.5 -41l-33 33q41 36 74 50.5t84 14.5q93 0 145 -57t52 -152v-268zM392 241q0 118 -41 161q-39 41 -95 41
t-95 -41q-41 -43 -41 -161t41 -161q39 -41 95 -41t95 41q41 43 41 161z" />
    <glyph glyph-name="Delta" unicode="&#x2206;" horiz-adv-x="591" 
d="M581 0h-571l262 712h47zM511 48l-216 592l-215 -592h431z" />
    <glyph glyph-name="product" unicode="&#x220f;" horiz-adv-x="699" 
d="M589 -230h-54v942h-371v-942h-54v990h479v-990z" />
    <glyph glyph-name="summation" unicode="&#x2211;" horiz-adv-x="551" 
d="M495 -230h-432v48l207 461l-207 433v48h432v-48h-371l195 -409v-48l-195 -437h371v-48z" />
    <glyph glyph-name="minus" unicode="&#x2212;" 
d="M461 240h-408v47h408v-47z" />
    <glyph glyph-name="uni2219" unicode="&#x2219;" 
d="M420 334q0 -68 -48 -115.5t-115 -47.5t-115 47.5t-48 115.5t48 115.5t115 47.5t115 -47.5t48 -115.5z" />
    <glyph glyph-name="radical" unicode="&#x221a;" horiz-adv-x="550" 
d="M520 664h-88l-217 -664h-46l-159 482h56l126 -387l199 617h129v-48z" />
    <glyph glyph-name="infinity" unicode="&#x221e;" horiz-adv-x="792" 
d="M720 260q0 -64 -41.5 -106t-105.5 -42q-51 0 -90.5 24.5t-86.5 83.5q-47 -59 -87 -84t-89 -25q-64 0 -106 42.5t-42 106.5t42 107t106 43q48 0 88.5 -25.5t87.5 -84.5q48 60 87 85t90 25q64 0 105.5 -43t41.5 -107zM366 260q-46 56 -76 80.5t-67 24.5q-46 0 -74.5 -29.5
t-28.5 -75.5t28.5 -74t74.5 -28q37 0 67.5 24t75.5 78zM672 260q0 46 -28.5 74.5t-74.5 28.5q-37 0 -67.5 -24t-75.5 -79q45 -54 75.5 -78t67.5 -24q46 0 74.5 28t28.5 74z" />
    <glyph glyph-name="integral" unicode="&#x222b;" horiz-adv-x="329" 
d="M299 667h-35q-74 0 -74 -80v-691q0 -57 -30.5 -91.5t-85.5 -34.5h-44v45h35q74 0 74 80v691q0 57 30.5 91.5t85.5 34.5h44v-45z" />
    <glyph glyph-name="approxequal" unicode="&#x2248;" 
d="M461 357q-39 -39 -62 -50.5t-54 -11.5q-28 0 -102 31q-54 23 -76 23t-38 -8t-45 -37l-31 31q39 39 62 50.5t54 11.5q28 0 102 -31q54 -23 76 -23t38 8t45 37zM461 197q-39 -39 -62 -50.5t-54 -11.5q-28 0 -102 31q-54 23 -76 23t-38 -8t-45 -37l-31 31q39 39 62 50.5
t54 11.5q28 0 102 -31q54 -23 76 -23t38 8t45 37z" />
    <glyph glyph-name="notequal" unicode="&#x2260;" 
d="M461 163h-271l-104 -104l-33 33l71 71h-71v47h118l106 106h-224v47h271l104 104l33 -33l-71 -71h71v-47h-118l-106 -106h224v-47z" />
    <glyph glyph-name="lessequal" unicode="&#x2264;" 
d="M409 119l-304 161v48l304 161v-55l-254 -130l254 -130v-55zM409 -6l-304 161v55l304 -161v-55z" />
    <glyph glyph-name="greaterequal" unicode="&#x2265;" 
d="M409 280l-304 -161v55l254 130l-254 130v55l304 -161v-48zM409 155l-304 -161v55l304 161v-55z" />
    <glyph glyph-name="dotmath" unicode="&#x22c5;" 
d="M294 227h-74v74h74v-74z" />
    <glyph glyph-name="lozenge" unicode="&#x25ca;" horiz-adv-x="654" 
d="M582 356l-255 -363l-255 363l255 363zM525 356l-198 285l-198 -285l198 -287z" />
    <glyph glyph-name="fi" unicode="&#xfb01;" horiz-adv-x="547" 
d="M272 444h-109v-444h-51v444h-66v38h66v104q0 57 30.5 91.5t85.5 34.5h44v-45h-35q-74 0 -74 -80v-105h109v-38zM450 0h-51v482h51v-482zM456 649h-63v63h63v-63z" />
    <glyph glyph-name="fl" unicode="&#xfb02;" horiz-adv-x="586" 
d="M272 444h-109v-444h-51v444h-66v38h66v104q0 57 30.5 91.5t85.5 34.5h44v-45h-35q-74 0 -74 -80v-105h109v-38zM554 0h-44q-58 0 -87 33t-29 92v587h51v-586q0 -43 16.5 -62t57.5 -19h35v-45z" />
    <glyph glyph-name="uniFEFF" unicode="&#xfeff;" horiz-adv-x="0" 
 />
    <glyph glyph-name="i.latn_TRK" horiz-adv-x="245" 
d="M148 0h-51v482h51v-482zM154 649h-63v63h63v-63z" />
    <glyph glyph-name="Ldot.latn_CAT" horiz-adv-x="572" 
d="M542 0h-432v712h54v-664h378v-48zM459 327h-62v63h62v-63z" />
    <glyph glyph-name="ldot.latn_CAT" horiz-adv-x="293" 
d="M255 0h-44q-58 0 -87 33t-29 92v587h51v-586q0 -43 16.5 -62t57.5 -19h35v-45zM298 232h-62v63h62v-63z" />
    <glyph glyph-name="zero.numr" horiz-adv-x="313" 
d="M274 399q0 -53 -33 -85.5t-84 -32.5t-84 32.5t-33 85.5v199q0 53 33 85.5t84 32.5t84 -32.5t33 -85.5v-199zM230 401v195q0 36 -19.5 58.5t-53.5 22.5t-53.5 -22.5t-19.5 -58.5v-195q0 -36 19 -58t54 -22q34 0 53.5 22t19.5 58z" />
    <glyph glyph-name="one.numr" horiz-adv-x="313" 
d="M196 285h-44v378l-80 -71v51l80 69h44v-427z" />
    <glyph glyph-name="two.numr" horiz-adv-x="313" 
d="M280 285h-236v40l168 213q23 31 23 62q0 36 -19 56t-54 20q-32 0 -53 -18.5t-21 -57.5h-44q0 52 32 84t86 32t86 -31t32 -85q0 -43 -34 -87l-149 -188h183v-40z" />
    <glyph glyph-name="three.numr" horiz-adv-x="313" 
d="M282 403q0 -57 -35 -89.5t-90 -32.5q-54 0 -89.5 29.5t-37.5 84.5h45q2 -37 25 -55.5t57 -18.5q35 0 58 22.5t23 59.5q0 81 -84 81h-8v39h8q37 0 56.5 20t19.5 56t-21.5 56.5t-52.5 20.5q-33 0 -53 -18.5t-23 -51.5h-44q4 51 37 80.5t83 29.5q53 0 85.5 -31.5t32.5 -84.5
q0 -68 -57 -94q65 -24 65 -103z" />
    <glyph glyph-name="four.numr" horiz-adv-x="313" 
d="M290 352h-52v-67h-44v67h-170v40l154 320h47l-153 -320h122v120h44v-120h52v-40z" />
    <glyph glyph-name="five.numr" horiz-adv-x="313" 
d="M278 426q0 -79 -34 -113q-32 -32 -86 -32q-56 0 -86 30q-27 27 -30 75h44q8 -65 72 -65q34 0 53 19q23 23 23 86q0 103 -72 103q-57 0 -70 -42h-40v225h216v-40h-176v-133q25 28 76 28q48 0 74 -26q36 -37 36 -115z" />
    <glyph glyph-name="six.numr" horiz-adv-x="313" 
d="M276 408q0 -56 -32 -91.5t-86 -35.5t-86.5 34t-32.5 90q0 40 26 95l105 212h46l-95 -191q17 8 44 8q49 0 80 -34t31 -87zM232 406q0 37 -20 61.5t-55 24.5q-34 0 -54 -23t-20 -63q0 -39 20 -62t54 -23t54.5 23t20.5 62z" />
    <glyph glyph-name="seven.numr" horiz-adv-x="313" 
d="M283 673l-148 -388h-44l148 387h-151v-71h-43v111h238v-39z" />
    <glyph glyph-name="eight.numr" horiz-adv-x="313" 
d="M283 403q0 -54 -36 -88t-90 -34t-90 34t-36 88q0 68 64 104q-56 31 -56 94q0 50 33.5 82.5t84.5 32.5t84.5 -32.5t33.5 -82.5q0 -64 -56 -94q64 -36 64 -104zM239 403q0 35 -23.5 59t-58.5 24t-58.5 -24t-23.5 -59t23.5 -58.5t58.5 -23.5t58.5 23.5t23.5 58.5zM231 601
q0 33 -20.5 54t-53.5 21t-53.5 -21t-20.5 -54t20.5 -54.5t53.5 -21.5t53.5 21.5t20.5 54.5z" />
    <glyph glyph-name="nine.numr" horiz-adv-x="313" 
d="M275 592q0 -40 -27 -94l-105 -213h-46l96 191q-21 -8 -45 -8q-50 0 -80.5 34t-30.5 87q0 56 32.5 91.5t86.5 35.5t86.5 -34t32.5 -90zM231 591q0 39 -20.5 62t-54.5 23t-54.5 -23t-20.5 -62q0 -37 20 -61.5t55 -24.5q34 0 54.5 23.5t20.5 62.5z" />
    <glyph glyph-name="zero.dnom" horiz-adv-x="313" 
d="M274 114q0 -53 -33 -85.5t-84 -32.5t-84 32.5t-33 85.5v199q0 53 33 85.5t84 32.5t84 -32.5t33 -85.5v-199zM230 116v195q0 36 -19.5 58.5t-53.5 22.5t-53.5 -22.5t-19.5 -58.5v-195q0 -36 19 -58t54 -22q34 0 53.5 22t19.5 58z" />
    <glyph glyph-name="one.dnom" horiz-adv-x="313" 
d="M196 0h-44v378l-80 -71v51l80 69h44v-427z" />
    <glyph glyph-name="two.dnom" horiz-adv-x="313" 
d="M280 0h-236v40l168 213q23 31 23 62q0 36 -19 56t-54 20q-32 0 -53 -18.5t-21 -57.5h-44q0 51 32 83.5t86 32.5t86 -31t32 -85q0 -43 -34 -87l-149 -188h183v-40z" />
    <glyph glyph-name="three.dnom" horiz-adv-x="313" 
d="M282 118q0 -57 -35 -89.5t-90 -32.5q-54 0 -89.5 29.5t-37.5 84.5h45q2 -37 25 -55.5t57 -18.5q35 0 58 22.5t23 59.5q0 81 -84 81h-8v39h8q37 0 56.5 20t19.5 56t-21.5 56.5t-52.5 20.5q-33 0 -53 -18.5t-23 -51.5h-44q4 51 37 80.5t83 29.5q53 0 85.5 -31.5t32.5 -84.5
q0 -69 -57 -94q65 -24 65 -103z" />
    <glyph glyph-name="four.dnom" horiz-adv-x="313" 
d="M290 67h-52v-67h-44v67h-170v40l154 320h47l-153 -320h122v120h44v-120h52v-40z" />
    <glyph glyph-name="five.dnom" horiz-adv-x="313" 
d="M278 141q0 -79 -34 -113q-32 -32 -86 -32q-56 0 -86 30q-27 27 -30 75h44q8 -65 72 -65q34 0 53 19q23 23 23 86q0 103 -72 103q-57 0 -70 -42h-40v225h216v-40h-176v-133q25 28 76 28q48 0 74 -26q36 -37 36 -115z" />
    <glyph glyph-name="six.dnom" horiz-adv-x="313" 
d="M276 123q0 -56 -32 -91.5t-86 -35.5t-86.5 34t-32.5 90q0 40 26 95l105 212h46l-95 -191q17 8 44 8q49 0 80 -34t31 -87zM232 121q0 37 -20 61.5t-55 24.5q-34 0 -54 -23t-20 -63q0 -39 20 -62t54 -23t54.5 23t20.5 62z" />
    <glyph glyph-name="seven.dnom" horiz-adv-x="313" 
d="M283 388l-148 -388h-44l148 387h-151v-71h-43v111h238v-39z" />
    <glyph glyph-name="eight.dnom" horiz-adv-x="313" 
d="M283 118q0 -54 -36 -88t-90 -34t-90 34t-36 88q0 68 64 104q-56 31 -56 94q0 50 33.5 82.5t84.5 32.5t84.5 -32.5t33.5 -82.5q0 -64 -56 -94q64 -36 64 -104zM239 118q0 35 -23.5 59t-58.5 24t-58.5 -24t-23.5 -59t23.5 -58.5t58.5 -23.5t58.5 23.5t23.5 58.5zM231 316
q0 33 -20.5 54t-53.5 21t-53.5 -21t-20.5 -54t20.5 -54.5t53.5 -21.5t53.5 21.5t20.5 54.5z" />
    <glyph glyph-name="nine.dnom" horiz-adv-x="313" 
d="M275 307q0 -40 -27 -94l-105 -213h-46l96 191q-21 -8 -45 -8q-50 0 -80.5 34t-30.5 87q0 56 32.5 91.5t86.5 35.5t86.5 -34t32.5 -90zM231 306q0 39 -20.5 62t-54.5 23t-54.5 -23t-20.5 -62q0 -37 20 -61.5t55 -24.5q34 0 54.5 23t20.5 63z" />
    <glyph glyph-name="space.frac" horiz-adv-x="51" 
 />
    <glyph glyph-name="zero.osf" 
d="M444 184q0 -83 -52.5 -136.5t-134.5 -53.5t-134.5 53.5t-52.5 136.5v229q0 83 52.5 136.5t134.5 53.5t134.5 -53.5t52.5 -136.5v-229zM393 189v219q0 66 -35.5 108t-100.5 42t-100.5 -42t-35.5 -108v-219q0 -66 35.5 -108t100.5 -42t100.5 42t35.5 108z" />
    <glyph glyph-name="one.osf" horiz-adv-x="350" 
d="M230 0h-51v539l-129 -114v61l129 111h51v-597z" />
    <glyph glyph-name="two.osf" horiz-adv-x="491" 
d="M436 0h-396v45l258 258q67 67 67 143q0 55 -38.5 93.5t-97.5 38.5q-57 0 -96.5 -37.5t-39.5 -95.5h-51q0 75 53 126.5t134 51.5q84 0 135.5 -51t51.5 -126q0 -91 -80 -171l-230 -230h330v-45z" />
    <glyph glyph-name="three.osf" horiz-adv-x="509" 
d="M445 74q0 -92 -57 -144.5t-145 -52.5q-87 0 -142.5 45.5t-60.5 134.5h51q5 -68 48 -101.5t104 -33.5q65 0 108 41t43 111q0 152 -155 152h-12v45h12q141 0 141 143q0 68 -39 106t-99 38q-62 0 -98.5 -34.5t-43.5 -95.5h-51q7 82 60.5 128.5t132.5 46.5q84 0 136.5 -52
t52.5 -137q0 -119 -101 -162q115 -39 115 -178z" />
    <glyph glyph-name="four.osf" horiz-adv-x="523" 
d="M483 30h-95v-153h-51v153h-302v45l272 550h53l-272 -550h249v226h51v-226h95v-45z" />
    <glyph glyph-name="five.osf" horiz-adv-x="505" 
d="M437 118q0 -64 -10.5 -109.5t-44.5 -79.5q-51 -51 -137 -51q-90 0 -137 48q-42 42 -48 116h51q16 -119 134 -119q62 0 98 36q19 19 29.5 49.5t12 52.5t1.5 57q0 39 -4.5 68.5t-17.5 59t-41 46t-70 16.5q-49 0 -83.5 -19.5t-45.5 -55.5h-45v364h342v-45h-297v-252
q46 53 135 53q77 0 120 -43q58 -58 58 -192z" />
    <glyph glyph-name="six.osf" horiz-adv-x="519" 
d="M464 219q0 -97 -55 -161t-149 -64q-96 0 -150.5 60t-54.5 157q0 81 46 162l202 355h53l-183 -314q42 21 91 21q93 0 146.5 -61t53.5 -155zM413 214q0 75 -40.5 126.5t-113.5 51.5q-70 0 -111.5 -48.5t-41.5 -129.5q0 -80 41.5 -128.5t111.5 -48.5t112 48.5t42 128.5z" />
    <glyph glyph-name="seven.osf" horiz-adv-x="483" 
d="M448 552l-300 -677h-53l300 677h-299v-112h-51v157h403v-45z" />
    <glyph glyph-name="eight.osf" horiz-adv-x="526" 
d="M466 192q0 -85 -58 -141.5t-145 -56.5t-145 56.5t-58 141.5q0 118 113 178q-98 53 -98 162q0 80 53 133t135 53t135 -53t53 -133q0 -110 -97 -162q112 -59 112 -178zM415 192q0 65 -44 109.5t-108 44.5t-108 -44.5t-44 -109.5t43.5 -109t108.5 -44t108.5 44t43.5 109z
M400 532q0 62 -38 101.5t-99 39.5t-99 -39.5t-38 -101.5t38 -101.5t99 -39.5t99 39.5t38 101.5z" />
    <glyph glyph-name="nine.osf" horiz-adv-x="519" 
d="M464 386q0 -82 -46 -162l-202 -355h-53l183 314q-42 -21 -91 -21q-93 0 -146.5 61t-53.5 155q0 97 55 161t149 64q96 0 150.5 -60t54.5 -157zM413 383q0 80 -41.5 128.5t-111.5 48.5t-112 -48.5t-42 -128.5q0 -75 40.5 -126.5t113.5 -51.5q70 0 111.5 48.5t41.5 129.5z
" />
    <glyph glyph-name="zero.lf" 
d="M444 184q0 -83 -52.5 -136.5t-134.5 -53.5t-134.5 53.5t-52.5 136.5v344q0 83 52.5 136.5t134.5 53.5t134.5 -53.5t52.5 -136.5v-344zM393 189v334q0 66 -35.5 108t-100.5 42t-100.5 -42t-35.5 -108v-334q0 -66 35.5 -108t100.5 -42t100.5 42t35.5 108z" />
    <glyph glyph-name="one.lf" horiz-adv-x="350" 
d="M230 0h-51v654l-129 -114v61l129 111h51v-712z" />
    <glyph glyph-name="two.lf" horiz-adv-x="472" 
d="M417 0h-377v45l286 375q40 51 40 111q0 65 -36.5 103.5t-100.5 38.5q-60 0 -98.5 -35.5t-38.5 -106.5h-51q0 81 51 134t137 53q85 0 136.5 -51.5t51.5 -135.5q0 -73 -49 -137l-267 -349h316v-45z" />
    <glyph glyph-name="three.lf" horiz-adv-x="505" 
d="M445 190q0 -93 -56.5 -145t-145.5 -52q-87 0 -142 45.5t-61 134.5h51q6 -68 48.5 -101.5t103.5 -33.5q65 0 108 41t43 111q0 152 -155 152h-12v45h12q141 0 141 143q0 68 -39 106t-99 38q-62 0 -98.5 -34.5t-43.5 -95.5h-51q8 82 60.5 128.5t132.5 46.5q85 0 137 -51.5
t52 -137.5q0 -119 -101 -162q115 -39 115 -178z" />
    <glyph glyph-name="four.lf" horiz-adv-x="503" 
d="M463 117h-95v-117h-51v117h-282v45l262 550h54l-262 -550h228v226h51v-226h95v-45z" />
    <glyph glyph-name="five.lf" horiz-adv-x="505" 
d="M437 233q0 -64 -10.5 -109.5t-44.5 -79.5q-51 -51 -137 -51q-90 0 -137 48q-42 42 -48 116h51q17 -119 134 -119q62 0 98 36q20 20 30 50t11.5 51.5t1.5 57.5q0 38 -5 68t-18 59.5t-41 46t-69 16.5q-49 0 -83.5 -19.5t-45.5 -55.5h-45v364h342v-45h-297v-252
q47 53 135 53q77 0 120 -43q58 -58 58 -192z" />
    <glyph glyph-name="six.lf" horiz-adv-x="477" 
d="M427 201q0 -89 -50.5 -148t-137.5 -59q-88 0 -138.5 55.5t-50.5 144.5q0 66 40 149l183 369h51l-164 -329q37 17 83 17q85 0 134.5 -56.5t49.5 -142.5zM376 197q0 67 -36.5 112.5t-101.5 45.5q-63 0 -100 -43t-37 -115t37 -115t100 -43t100.5 43t37.5 115z" />
    <glyph glyph-name="seven.lf" horiz-adv-x="448" 
d="M413 667l-252 -667h-52l252 667h-270v-112h-51v157h373v-45z" />
    <glyph glyph-name="eight.lf" horiz-adv-x="526" 
d="M466 192q0 -85 -58 -141.5t-145 -56.5t-145 56.5t-58 141.5q0 118 113 178q-98 54 -98 162q0 79 53 132.5t135 53.5t135 -53.5t53 -132.5q0 -110 -97 -162q112 -59 112 -178zM415 192q0 65 -44 109.5t-108 44.5t-108 -44.5t-44 -109.5q0 -66 43.5 -109.5t108.5 -43.5
t108.5 43.5t43.5 109.5zM400 532q0 62 -38 101.5t-99 39.5t-99 -39.5t-38 -101.5t38 -101.5t99 -39.5t99 39.5t38 101.5z" />
    <glyph glyph-name="nine.lf" horiz-adv-x="477" 
d="M427 518q0 -66 -40 -149l-183 -369h-51l164 329q-37 -17 -84 -17q-85 0 -134 56.5t-49 142.5q0 89 50.5 148t137.5 59q88 0 138.5 -55.5t50.5 -144.5zM376 515q0 72 -37.5 115t-100.5 43t-100 -43t-37 -115q0 -67 36 -112.5t101 -45.5q63 0 100.5 43t37.5 115z" />
    <glyph glyph-name="zero.tosf" 
d="M444 184q0 -83 -52.5 -136.5t-134.5 -53.5t-134.5 53.5t-52.5 136.5v229q0 83 52.5 136.5t134.5 53.5t134.5 -53.5t52.5 -136.5v-229zM393 189v219q0 66 -35.5 108t-100.5 42t-100.5 -42t-35.5 -108v-219q0 -66 35.5 -108t100.5 -42t100.5 42t35.5 108z" />
    <glyph glyph-name="one.tosf" 
d="M313 0h-51v539l-129 -114v61l129 111h51v-597z" />
    <glyph glyph-name="two.tosf" 
d="M460 0h-396v45l258 258q67 67 67 143q0 55 -38.5 93.5t-97.5 38.5q-57 0 -96.5 -37.5t-39.5 -95.5h-51q0 75 53 126.5t134 51.5q84 0 135.5 -51t51.5 -126q0 -91 -80 -171l-230 -230h330v-45z" />
    <glyph glyph-name="three.tosf" 
d="M447 74q0 -92 -57 -144.5t-145 -52.5q-87 0 -142.5 45.5t-60.5 134.5h51q5 -68 48 -101.5t104 -33.5q65 0 108 41t43 111q0 152 -155 152h-12v45h12q141 0 141 143q0 68 -39 106t-99 38q-62 0 -98.5 -34.5t-43.5 -95.5h-51q7 82 60.5 128.5t132.5 46.5q84 0 136.5 -52
t52.5 -137q0 -119 -101 -162q115 -39 115 -178z" />
    <glyph glyph-name="four.tosf" 
d="M481 30h-95v-153h-51v153h-302v45l272 550h53l-272 -550h249v226h51v-226h95v-45z" />
    <glyph glyph-name="five.tosf" 
d="M446 118q0 -64 -10.5 -109.5t-44.5 -79.5q-51 -51 -137 -51q-91 0 -137 48q-42 42 -48 116h51q16 -119 134 -119q62 0 98 36q19 19 29.5 49.5t12 52.5t1.5 57q0 39 -4.5 68.5t-17.5 59t-41 46t-70 16.5q-49 0 -83.5 -19.5t-45.5 -55.5h-45v364h342v-45h-297v-252
q46 53 135 53q77 0 120 -43q58 -58 58 -192z" />
    <glyph glyph-name="six.tosf" 
d="M464 219q0 -97 -55 -161t-149 -64q-96 0 -150.5 60t-54.5 157q0 81 46 162l202 355h53l-183 -314q42 21 91 21q93 0 146.5 -61t53.5 -155zM413 214q0 75 -40.5 126.5t-113.5 51.5q-70 0 -111.5 -48.5t-41.5 -129.5q0 -80 41.5 -128.5t111.5 -48.5t112 48.5t42 128.5z" />
    <glyph glyph-name="seven.tosf" 
d="M469 552l-300 -677h-53l300 677h-299v-112h-51v157h403v-45z" />
    <glyph glyph-name="eight.tosf" 
d="M460 192q0 -85 -58 -141.5t-145 -56.5t-145 56.5t-58 141.5q0 118 113 178q-98 53 -98 162q0 80 53 133t135 53t135 -53t53 -133q0 -110 -97 -162q112 -59 112 -178zM409 192q0 65 -44 109.5t-108 44.5t-108 -44.5t-44 -109.5t43.5 -109t108.5 -44t108.5 44t43.5 109z
M394 532q0 62 -38 101.5t-99 39.5t-99 -39.5t-38 -101.5t38 -101.5t99 -39.5t99 39.5t38 101.5z" />
    <glyph glyph-name="nine.tosf" 
d="M459 386q0 -82 -46 -162l-202 -355h-53l183 314q-42 -21 -91 -21q-93 0 -146.5 61t-53.5 155q0 97 55 161t149 64q96 0 150.5 -60t54.5 -157zM408 383q0 80 -41.5 128.5t-111.5 48.5t-112 -48.5t-42 -128.5q0 -75 40.5 -126.5t113.5 -51.5q70 0 111.5 48.5t41.5 129.5z
" />
    <glyph glyph-name="uni2007.tosf" 
 />
    <glyph glyph-name="hyphen.case" horiz-adv-x="426" 
d="M344 332h-262v47h262v-47z" />
    <glyph glyph-name="exclamdown.case" horiz-adv-x="304" 
d="M165 0h-55l3 520h49zM171 645h-67v67h67v-67z" />
    <glyph glyph-name="guillemotleft.case" horiz-adv-x="527" 
d="M238 160l-196 196l196 196v-66l-130 -130l130 -130v-66zM445 160l-196 196l196 196v-66l-130 -130l130 -130v-66z" />
    <glyph glyph-name="uni00AD.case" horiz-adv-x="426" 
d="M344 332h-262v47h262v-47z" />
    <glyph glyph-name="guillemotright.case" horiz-adv-x="527" 
d="M278 356l-196 -196v66l130 130l-130 130v66zM485 356l-196 -196v66l130 130l-130 130v66z" />
    <glyph glyph-name="questiondown.case" horiz-adv-x="488" 
d="M408 170q0 -74 -50 -125t-129 -51q-76 0 -127.5 50.5t-51.5 125.5q0 55 44 119l85 125q18 26 18 60v47h51v-45q0 -48 -29 -90l-84 -124q-13 -19 -18.5 -29.5t-10.5 -27.5t-5 -35q0 -56 36.5 -93.5t91.5 -37.5q57 0 92.5 38.5t35.5 92.5h51zM256 645h-67v67h67v-67z" />
    <glyph glyph-name="endash.case" 
d="M461 332h-408v47h408v-47z" />
    <glyph glyph-name="emdash.case" horiz-adv-x="873" 
d="M791 332h-709v47h709v-47z" />
    <glyph glyph-name="afii00208.case" horiz-adv-x="873" 
d="M791 333h-709v47h709v-47z" />
    <glyph glyph-name="guilsinglleft.case" horiz-adv-x="320" 
d="M238 160l-196 196l196 196v-66l-130 -130l130 -130v-66z" />
    <glyph glyph-name="guilsinglright.case" horiz-adv-x="320" 
d="M278 356l-196 -196v66l130 130l-130 130v66z" />
    <glyph glyph-name="caroncomma.ss01" horiz-adv-x="526" 
d="M596 584l-53 -56v184h53v-128z" />
    <glyph glyph-name="commaaccent.ss01" horiz-adv-x="258" 
d="M188 -133q0 -41 -27.5 -67.5t-72.5 -26.5v37q25 0 42 16.5t17 40.5t-17 40.5t-42 16.5v37q45 0 72.5 -26.5t27.5 -67.5z" />
    <glyph glyph-name="commaturn.ss01" horiz-adv-x="258" 
d="M164 549q-45 0 -72.5 26.5t-27.5 67.5t27.5 67.5t72.5 26.5v-37q-25 0 -42 -16.5t-17 -40.5t17 -40.5t42 -16.5v-37z" />
    <glyph glyph-name="exclam.ss01" horiz-adv-x="304" 
d="M195 712l-6 -520h-44l-6 520h56zM207 37q0 -17 -11.5 -28.5t-28.5 -11.5t-28.5 11.5t-11.5 28.5t11.5 28.5t28.5 11.5t28.5 -11.5t11.5 -28.5z" />
    <glyph glyph-name="period.ss01" horiz-adv-x="264" 
d="M178 43q0 -19 -13.5 -32.5t-32.5 -13.5t-32.5 13.5t-13.5 32.5t13.5 32.5t32.5 13.5t32.5 -13.5t13.5 -32.5z" />
    <glyph glyph-name="colon.ss01" horiz-adv-x="292" 
d="M206 343q0 -19 -13.5 -32.5t-32.5 -13.5t-32.5 13.5t-13.5 32.5t13.5 32.5t32.5 13.5t32.5 -13.5t13.5 -32.5zM206 43q0 -19 -13.5 -32.5t-32.5 -13.5t-32.5 13.5t-13.5 32.5t13.5 32.5t32.5 13.5t32.5 -13.5t13.5 -32.5z" />
    <glyph glyph-name="semicolon.ss01" horiz-adv-x="292" 
d="M194 -68l-68 -68v204h68v-136zM206 343q0 -19 -13.5 -32.5t-32.5 -13.5t-32.5 13.5t-13.5 32.5t13.5 32.5t32.5 13.5t32.5 -13.5t13.5 -32.5z" />
    <glyph glyph-name="question.ss01" horiz-adv-x="488" 
d="M438 542q0 -55 -44 -119l-85 -125q-18 -26 -18 -60v-47h-51v45q0 48 29 90l84 124q34 51 34 92q0 56 -36.5 93.5t-91.5 37.5q-57 0 -92.5 -38.5t-35.5 -92.5h-51q0 73 50.5 124.5t128.5 51.5q76 0 127.5 -50.5t51.5 -125.5zM305 37q0 -17 -11.5 -28.5t-28.5 -11.5
t-28.5 11.5t-11.5 28.5t11.5 28.5t28.5 11.5t28.5 -11.5t11.5 -28.5z" />
    <glyph glyph-name="at.ss01" horiz-adv-x="942" 
d="M873 316q0 -120 -82 -206t-204 -86h-48l13 61q-50 -67 -126 -67q-62 0 -100.5 35.5t-38.5 108.5q0 40 8 80q22 123 83 176q53 46 120 46q47 0 75.5 -21t38.5 -52l14 68h45l-79 -395q99 0 165.5 76t66.5 176q0 135 -89 220t-226 85q-156 0 -266 -112.5t-110 -271.5
q0 -167 106 -277.5t277 -110.5h41l-9 -44h-40q-185 0 -305.5 123t-120.5 309q0 180 125 305.5t302 125.5q162 0 263 -97.5t101 -254.5zM588 321q0 52 -26.5 76t-65.5 24q-52 0 -89 -37q-44 -44 -63 -143q-9 -50 -9 -79q0 -52 26.5 -76.5t64.5 -24.5q51 0 90 39q44 44 63 142
q9 50 9 79z" />
    <glyph glyph-name="C.ss01" horiz-adv-x="596" 
d="M527 83q-94 -89 -201 -89q-105 0 -173 68q-47 47 -59 101.5t-12 192.5t12 192.5t59 101.5q68 68 173 68q107 0 201 -89l-36 -36q-41 40 -77 58.5t-88 18.5q-80 0 -135 -55q-36 -36 -45.5 -86.5t-9.5 -172.5t9.5 -172.5t45.5 -86.5q55 -55 135 -55q52 0 88 18.5t77 58.5z
" />
    <glyph glyph-name="G.ss01" horiz-adv-x="648" 
d="M571 248q0 -110 -58 -172q-74 -82 -187 -82q-105 0 -173 68q-47 47 -59 101.5t-12 192.5t12 192.5t59 101.5q68 68 173 68q65 0 113 -24t99 -75l-36 -36q-46 46 -83 66.5t-93 20.5q-80 0 -135 -55q-36 -36 -45.5 -86.5t-9.5 -172.5t9.5 -172.5t45.5 -86.5q55 -55 135 -55
q91 0 148 69q43 53 43 141v64h-191v48h245v-116z" />
    <glyph glyph-name="i.ss01" horiz-adv-x="245" 
d="M148 0h-51v482h51v-482zM160 681q0 -16 -11 -27t-26 -11q-16 0 -27 11t-11 26q0 16 11 27t26 11q16 0 27 -11t11 -26z" />
    <glyph glyph-name="j.ss01" horiz-adv-x="245" 
d="M148 -105q0 -58 -29.5 -91.5t-86.5 -33.5h-44v45h35q41 0 57.5 19.5t16.5 61.5v586h51v-587zM160 681q0 -16 -11 -27t-26 -11q-16 0 -27 11t-11 26q0 16 11 27t26 11q16 0 27 -11t11 -26z" />
    <glyph glyph-name="exclamdown.ss01" horiz-adv-x="304" 
d="M165 -230h-56l6 520h44zM177 445q0 -17 -11.5 -28.5t-28.5 -11.5t-28.5 11.5t-11.5 28.5t11.5 28.5t28.5 11.5t28.5 -11.5t11.5 -28.5z" />
    <glyph glyph-name="dieresis.ss01" horiz-adv-x="500" 
d="M184 638q0 -16 -11 -27t-26 -11q-16 0 -27 11t-11 26q0 16 11 27t26 11q16 0 27 -11t11 -26zM391 638q0 -16 -11 -27t-26 -11q-16 0 -27 11t-11 26q0 16 11 27t26 11q16 0 27 -11t11 -26z" />
    <glyph glyph-name="periodcentered.ss01" horiz-adv-x="264" 
d="M178 260q0 -19 -13.5 -32.5t-32.5 -13.5t-32.5 13.5t-13.5 32.5t13.5 32.5t32.5 13.5t32.5 -13.5t13.5 -32.5z" />
    <glyph glyph-name="cedilla.ss01" horiz-adv-x="500" 
d="M320 -133q0 -41 -27.5 -67.5t-72.5 -26.5v37q25 0 42 16.5t17 40.5t-17 40.5t-42 16.5v37q45 0 72.5 -26.5t27.5 -67.5z" />
    <glyph glyph-name="questiondown.ss01" horiz-adv-x="488" 
d="M408 -60q0 -73 -50.5 -124.5t-128.5 -51.5q-76 0 -127.5 50.5t-51.5 125.5q0 55 44 119l85 125q18 26 18 60v47h51v-45q0 -48 -29 -90l-84 -124q-34 -51 -34 -92q0 -56 36.5 -93.5t91.5 -37.5q57 0 92.5 38.5t35.5 92.5h51zM263 445q0 -17 -11.5 -28.5t-28.5 -11.5
t-28.5 11.5t-11.5 28.5t11.5 28.5t28.5 11.5t28.5 -11.5t11.5 -28.5z" />
    <glyph glyph-name="Adieresis.ss01" horiz-adv-x="602" 
d="M587 0h-58l-62 173h-332l-62 -173h-58l262 712h48zM301 640l-149 -419h298zM442 828q0 -16 -11 -27t-26 -11q-16 0 -27 11t-11 26q0 16 11 27t26 11q16 0 27 -11t11 -26zM235 828q0 -16 -11 -27t-26 -11q-16 0 -27 11t-11 26q0 16 11 27t26 11q16 0 27 -11t11 -26z" />
    <glyph glyph-name="Ccedilla.ss01" horiz-adv-x="596" 
d="M527 83q-94 -89 -201 -89q-105 0 -173 68q-47 47 -59 101.5t-12 192.5t12 192.5t59 101.5q68 68 173 68q107 0 201 -89l-36 -36q-41 40 -77 58.5t-88 18.5q-80 0 -135 -55q-36 -36 -45.5 -86.5t-9.5 -172.5t9.5 -172.5t45.5 -86.5q55 -55 135 -55q52 0 88 18.5t77 58.5z
M379 -133q0 -41 -27.5 -67.5t-72.5 -26.5v37q25 0 42 16.5t17 40.5t-17 40.5t-42 16.5v37q45 0 72.5 -26.5t27.5 -67.5z" />
    <glyph glyph-name="Edieresis.ss01" horiz-adv-x="598" 
d="M542 0h-432v712h432v-48h-378v-281h322v-48h-322v-287h378v-48zM455 828q0 -16 -11 -27t-26 -11q-16 0 -27 11t-11 26q0 16 11 27t26 11q16 0 27 -11t11 -26zM248 828q0 -16 -11 -27t-26 -11q-16 0 -27 11t-11 26q0 16 11 27t26 11q16 0 27 -11t11 -26z" />
    <glyph glyph-name="Idieresis.ss01" horiz-adv-x="274" 
d="M164 0h-54v712h54v-712zM279 828q0 -16 -11 -27t-26 -11q-16 0 -27 11t-11 26q0 16 11 27t26 11q16 0 27 -11t11 -26zM72 828q0 -16 -11 -27t-26 -11q-16 0 -27 11t-11 26q0 16 11 27t26 11q16 0 27 -11t11 -26z" />
    <glyph glyph-name="Odieresis.ss01" horiz-adv-x="652" 
d="M570 356q0 -138 -12 -192.5t-59 -101.5q-68 -68 -173 -68t-173 68q-47 47 -59 101.5t-12 192.5t12 192.5t59 101.5q68 68 173 68t173 -68q47 -47 59 -101.5t12 -192.5zM516 356q0 122 -9.5 172.5t-45.5 86.5q-55 55 -135 55t-135 -55q-36 -36 -45.5 -86.5t-9.5 -172.5
t9.5 -172.5t45.5 -86.5q55 -55 135 -55t135 55q36 36 45.5 86.5t9.5 172.5zM467 828q0 -16 -11 -27t-26 -11q-16 0 -27 11t-11 26q0 16 11 27t26 11q16 0 27 -11t11 -26zM260 828q0 -16 -11 -27t-26 -11q-16 0 -27 11t-11 26q0 16 11 27t26 11q16 0 27 -11t11 -26z" />
    <glyph glyph-name="Udieresis.ss01" horiz-adv-x="688" 
d="M588 231q0 -104 -68.5 -170.5t-175.5 -66.5t-175.5 66.5t-68.5 170.5v481h54v-474q0 -89 52 -142.5t138 -53.5t138 53.5t52 142.5v474h54v-481zM485 828q0 -16 -11 -27t-26 -11q-16 0 -27 11t-11 26q0 16 11 27t26 11q16 0 27 -11t11 -26zM278 828q0 -16 -11 -27t-26 -11
q-16 0 -27 11t-11 26q0 16 11 27t26 11q16 0 27 -11t11 -26z" />
    <glyph glyph-name="adieresis.ss01" horiz-adv-x="524" 
d="M431 0h-51v48q-30 -30 -62.5 -42t-84.5 -12q-99 0 -142 44q-35 35 -35 94q0 66 44.5 102.5t123.5 36.5h156v54q0 59 -32 88.5t-104 29.5q-50 0 -79.5 -14t-53.5 -47l-37 32q30 41 69.5 57.5t100.5 16.5q187 0 187 -158v-330zM380 168v62h-150q-123 0 -123 -97
q0 -48 30 -71t96 -23q81 0 120 37q27 26 27 92zM183 638q0 -16 -11 -27t-26 -11q-16 0 -27 11t-11 26q0 16 11 27t26 11q16 0 27 -11t11 -26zM390 638q0 -16 -11 -27t-26 -11q-16 0 -27 11t-11 26q0 16 11 27t26 11q16 0 27 -11t11 -26z" />
    <glyph glyph-name="ccedilla.ss01" horiz-adv-x="493" 
d="M440 68q-37 -42 -72.5 -58t-86.5 -16q-99 0 -155.5 66t-56.5 181t56.5 181t155.5 66q51 0 86.5 -16t72.5 -58l-35 -32q-31 34 -58 47.5t-66 13.5q-85 0 -128 -64q-33 -48 -33 -138t33 -138q43 -64 128 -64q38 0 65.5 13.5t58.5 47.5zM320 -133q0 -41 -27.5 -67.5
t-72.5 -26.5v37q25 0 42 16.5t17 40.5t-17 40.5t-42 16.5v37q45 0 72.5 -26.5t27.5 -67.5z" />
    <glyph glyph-name="edieresis.ss01" horiz-adv-x="523" 
d="M455 230h-335q0 -93 40 -141.5t117 -48.5q42 0 72 13.5t61 44.5l38 -30q-39 -39 -78 -56.5t-96 -17.5q-100 0 -152.5 63t-52.5 184q0 117 51 182t142 65t142 -62t51 -173v-23zM404 271q-4 62 -17 91q-16 38 -49.5 59.5t-75.5 21.5t-75 -21.5t-50 -59.5q-13 -29 -17 -91
h284zM198 638q0 -16 -11 -27t-26 -11q-16 0 -27 11t-11 26q0 16 11 27t26 11q16 0 27 -11t11 -26zM405 638q0 -16 -11 -27t-26 -11q-16 0 -27 11t-11 26q0 16 11 27t26 11q16 0 27 -11t11 -26z" />
    <glyph glyph-name="idieresis.ss01" horiz-adv-x="245" 
d="M148 0h-51v482h51v-482zM61 638q0 -16 -11 -27t-26 -11q-16 0 -27 11t-11 26q0 16 11 27t26 11q16 0 27 -11t11 -26zM268 638q0 -16 -11 -27t-26 -11q-16 0 -27 11t-11 26q0 16 11 27t26 11q16 0 27 -11t11 -26z" />
    <glyph glyph-name="odieresis.ss01" horiz-adv-x="526" 
d="M457 241q0 -134 -60 -194q-53 -53 -134 -53t-134 53q-60 60 -60 194t60 194q53 53 134 53t134 -53q60 -60 60 -194zM406 241q0 118 -43 161q-41 41 -100 41t-100 -41q-43 -43 -43 -161t43 -161q41 -41 100 -41t100 41q43 43 43 161zM197 638q0 -16 -11 -27t-26 -11
q-16 0 -27 11t-11 26q0 16 11 27t26 11q16 0 27 -11t11 -26zM404 638q0 -16 -11 -27t-26 -11q-16 0 -27 11t-11 26q0 16 11 27t26 11q16 0 27 -11t11 -26z" />
    <glyph glyph-name="divide.ss01" 
d="M303 94q0 -19 -13.5 -32.5t-32.5 -13.5t-32.5 13.5t-13.5 32.5t13.5 32.5t32.5 13.5t32.5 -13.5t13.5 -32.5zM461 240h-408v47h408v-47zM303 433q0 -19 -13.5 -32.5t-32.5 -13.5t-32.5 13.5t-13.5 32.5t13.5 32.5t32.5 13.5t32.5 -13.5t13.5 -32.5z" />
    <glyph glyph-name="udieresis.ss01" horiz-adv-x="559" 
d="M462 0h-51v57q-54 -63 -142 -63q-81 0 -128 46q-50 48 -50 134v308h51v-299q0 -70 34 -107t99 -37t100.5 37.5t35.5 106.5v299h51v-482zM210 638q0 -16 -11 -27t-26 -11q-16 0 -27 11t-11 26q0 16 11 27t26 11q16 0 27 -11t11 -26zM417 638q0 -16 -11 -27t-26 -11
q-16 0 -27 11t-11 26q0 16 11 27t26 11q16 0 27 -11t11 -26z" />
    <glyph glyph-name="ydieresis.ss01" horiz-adv-x="430" 
d="M416 482l-224 -613q-14 -40 -33 -56q-32 -31 -91 -31h-24v45h19q40 0 57.5 14t30.5 52l39 107l-176 482h56l145 -422l145 422h56zM149 638q0 -16 -11 -27t-26 -11q-16 0 -27 11t-11 26q0 16 11 27t26 11q16 0 27 -11t11 -26zM356 638q0 -16 -11 -27t-26 -11q-16 0 -27 11
t-11 26q0 16 11 27t26 11q16 0 27 -11t11 -26z" />
    <glyph glyph-name="Aogonek.ss01" horiz-adv-x="602" 
d="M587 0h-58l-62 173h-332l-62 -173h-58l262 712h48zM301 640l-149 -419h298zM579 -227q-45 0 -72.5 26.5t-27.5 67.5t27.5 67.5t72.5 26.5v-37q-25 0 -42 -16.5t-17 -40.5t17 -40.5t42 -16.5v-37z" />
    <glyph glyph-name="aogonek.ss01" horiz-adv-x="524" 
d="M431 0h-51v48q-30 -30 -62.5 -42t-84.5 -12q-99 0 -142 44q-35 35 -35 94q0 66 44.5 102.5t123.5 36.5h156v54q0 59 -32 88.5t-104 29.5q-50 0 -79.5 -14t-53.5 -47l-37 32q30 41 69.5 57.5t100.5 16.5q187 0 187 -158v-330zM380 168v62h-150q-123 0 -123 -97
q0 -48 30 -71t96 -23q81 0 120 37q27 26 27 92zM423 -227q-45 0 -72.5 26.5t-27.5 67.5t27.5 67.5t72.5 26.5v-37q-25 0 -42 -16.5t-17 -40.5t17 -40.5t42 -16.5v-37z" />
    <glyph glyph-name="Cacute.ss01" horiz-adv-x="596" 
d="M527 83q-94 -89 -201 -89q-105 0 -173 68q-47 47 -59 101.5t-12 192.5t12 192.5t59 101.5q68 68 173 68q107 0 201 -89l-36 -36q-41 40 -77 58.5t-88 18.5q-80 0 -135 -55q-36 -36 -45.5 -86.5t-9.5 -172.5t9.5 -172.5t45.5 -86.5q55 -55 135 -55q52 0 88 18.5t77 58.5z
M426 927l-106 -147h-58l97 147h67z" />
    <glyph glyph-name="Ccircumflex.ss01" horiz-adv-x="596" 
d="M527 83q-94 -89 -201 -89q-105 0 -173 68q-47 47 -59 101.5t-12 192.5t12 192.5t59 101.5q68 68 173 68q107 0 201 -89l-36 -36q-41 40 -77 58.5t-88 18.5q-80 0 -135 -55q-36 -36 -45.5 -86.5t-9.5 -172.5t9.5 -172.5t45.5 -86.5q55 -55 135 -55q52 0 88 18.5t77 58.5z
M476 780h-57l-93 109l-93 -109h-57l123 147h54z" />
    <glyph glyph-name="Cdotaccent.ss01" horiz-adv-x="596" 
d="M527 83q-94 -89 -201 -89q-105 0 -173 68q-47 47 -59 101.5t-12 192.5t12 192.5t59 101.5q68 68 173 68q107 0 201 -89l-36 -36q-41 40 -77 58.5t-88 18.5q-80 0 -135 -55q-36 -36 -45.5 -86.5t-9.5 -172.5t9.5 -172.5t45.5 -86.5q55 -55 135 -55q52 0 88 18.5t77 58.5z
M363 830q0 -16 -11 -27t-26 -11q-16 0 -27 11t-11 26q0 16 11 27t26 11q16 0 27 -11t11 -26z" />
    <glyph glyph-name="cdotaccent.ss01" horiz-adv-x="493" 
d="M440 68q-37 -42 -72.5 -58t-86.5 -16q-99 0 -155.5 66t-56.5 181t56.5 181t155.5 66q51 0 86.5 -16t72.5 -58l-35 -32q-31 34 -58 47.5t-66 13.5q-85 0 -128 -64q-33 -48 -33 -138t33 -138q43 -64 128 -64q38 0 65.5 13.5t58.5 47.5zM318 650q0 -16 -11 -27t-26 -11
q-16 0 -27 11t-11 26q0 16 11 27t26 11q16 0 27 -11t11 -26z" />
    <glyph glyph-name="Ccaron.ss01" horiz-adv-x="596" 
d="M527 83q-94 -89 -201 -89q-105 0 -173 68q-47 47 -59 101.5t-12 192.5t12 192.5t59 101.5q68 68 173 68q107 0 201 -89l-36 -36q-41 40 -77 58.5t-88 18.5q-80 0 -135 -55q-36 -36 -45.5 -86.5t-9.5 -172.5t9.5 -172.5t45.5 -86.5q55 -55 135 -55q52 0 88 18.5t77 58.5z
M461 927l-123 -147h-54l-123 147h57l93 -109l93 109h57z" />
    <glyph glyph-name="dcaron.ss01" horiz-adv-x="540" 
d="M443 0h-51v62q-30 -39 -64 -53.5t-79 -14.5q-76 0 -118 42q-62 62 -62 205t62 205q42 42 118 42q45 0 79 -14.5t64 -53.5v292h51v-712zM392 241q0 43 -5 75t-18.5 63t-42 47.5t-70.5 16.5t-70.5 -16.5t-42 -47.5t-18.5 -63t-5 -75t5 -75t18.5 -63t42 -47.5t70.5 -16.5
t70.5 16.5t42 47.5t18.5 63t5 75zM596 584l-53 -56v184h53v-128z" />
    <glyph glyph-name="Edotaccent.ss01" horiz-adv-x="598" 
d="M542 0h-432v712h432v-48h-378v-281h322v-48h-322v-287h378v-48zM352 830q0 -16 -11 -27t-26 -11q-16 0 -27 11t-11 26q0 16 11 27t26 11q16 0 27 -11t11 -26z" />
    <glyph glyph-name="edotaccent.ss01" horiz-adv-x="523" 
d="M455 230h-335q0 -93 40 -141.5t117 -48.5q42 0 72 13.5t61 44.5l38 -30q-39 -39 -78 -56.5t-96 -17.5q-100 0 -152.5 63t-52.5 184q0 117 51 182t142 65t142 -62t51 -173v-23zM404 271q-4 62 -17 91q-16 38 -49.5 59.5t-75.5 21.5t-75 -21.5t-50 -59.5q-13 -29 -17 -91
h284zM298 648q0 -16 -11 -27t-26 -11q-16 0 -27 11t-11 26q0 16 11 27t26 11q16 0 27 -11t11 -26z" />
    <glyph glyph-name="Eogonek.ss01" horiz-adv-x="598" 
d="M542 0h-432v712h432v-48h-378v-281h322v-48h-322v-287h378v-48zM534 -227q-45 0 -72.5 26.5t-27.5 67.5t27.5 67.5t72.5 26.5v-37q-25 0 -42 -16.5t-17 -40.5t17 -40.5t42 -16.5v-37z" />
    <glyph glyph-name="eogonek.ss01" horiz-adv-x="523" 
d="M455 230h-335q0 -93 40 -141.5t117 -48.5q42 0 72 13.5t61 44.5l38 -30q-39 -39 -78 -56.5t-96 -17.5q-100 0 -152.5 63t-52.5 184q0 117 51 182t142 65t142 -62t51 -173v-23zM404 271q-4 62 -17 91q-16 38 -49.5 59.5t-75.5 21.5t-75 -21.5t-50 -59.5q-13 -29 -17 -91
h284zM420 -227q-45 0 -72.5 26.5t-27.5 67.5t27.5 67.5t72.5 26.5v-37q-25 0 -42 -16.5t-17 -40.5t17 -40.5t42 -16.5v-37z" />
    <glyph glyph-name="Gcircumflex.ss01" horiz-adv-x="648" 
d="M571 248q0 -110 -58 -172q-74 -82 -187 -82q-105 0 -173 68q-47 47 -59 101.5t-12 192.5t12 192.5t59 101.5q68 68 173 68q65 0 113 -24t99 -75l-36 -36q-46 46 -83 66.5t-93 20.5q-80 0 -135 -55q-36 -36 -45.5 -86.5t-9.5 -172.5t9.5 -172.5t45.5 -86.5q55 -55 135 -55
q91 0 148 69q43 53 43 141v64h-191v48h245v-116zM476 780h-57l-93 109l-93 -109h-57l123 147h54z" />
    <glyph glyph-name="Gbreve.ss01" horiz-adv-x="648" 
d="M571 248q0 -110 -58 -172q-74 -82 -187 -82q-105 0 -173 68q-47 47 -59 101.5t-12 192.5t12 192.5t59 101.5q68 68 173 68q65 0 113 -24t99 -75l-36 -36q-46 46 -83 66.5t-93 20.5q-80 0 -135 -55q-36 -36 -45.5 -86.5t-9.5 -172.5t9.5 -172.5t45.5 -86.5q55 -55 135 -55
q91 0 148 69q43 53 43 141v64h-191v48h245v-116zM491 927q-14 -135 -165 -135t-165 135h45q6 -42 37.5 -66t82.5 -24t82.5 24t37.5 66h45z" />
    <glyph glyph-name="Gdotaccent.ss01" horiz-adv-x="648" 
d="M571 248q0 -110 -58 -172q-74 -82 -187 -82q-105 0 -173 68q-47 47 -59 101.5t-12 192.5t12 192.5t59 101.5q68 68 173 68q65 0 113 -24t99 -75l-36 -36q-46 46 -83 66.5t-93 20.5q-80 0 -135 -55q-36 -36 -45.5 -86.5t-9.5 -172.5t9.5 -172.5t45.5 -86.5q55 -55 135 -55
q91 0 148 69q43 53 43 141v64h-191v48h245v-116zM363 830q0 -16 -11 -27t-26 -11q-16 0 -27 11t-11 26q0 16 11 27t26 11q16 0 27 -11t11 -26z" />
    <glyph glyph-name="gdotaccent.ss01" horiz-adv-x="540" 
d="M443 -27q0 -93 -52.5 -151t-144.5 -58q-52 0 -86 14.5t-73 49.5l34 34q32 -29 57 -41t68 -12q73 0 109.5 45.5t36.5 121.5v86q-30 -39 -64 -53.5t-79 -14.5q-76 0 -118 42q-62 62 -62 205t62 205q42 42 118 42q45 0 79 -14.5t64 -53.5v62h51v-509zM392 241q0 43 -5 75
t-18.5 63t-42 47.5t-70.5 16.5t-70.5 -16.5t-42 -47.5t-18.5 -63t-5 -75t5 -75t18.5 -63t42 -47.5t70.5 -16.5t70.5 16.5t42 47.5t18.5 63t5 75zM293 650q0 -16 -11 -27t-26 -11q-16 0 -27 11t-11 26q0 16 11 27t26 11q16 0 27 -11t11 -26z" />
    <glyph glyph-name="Gcommaaccent.ss01" horiz-adv-x="648" 
d="M571 248q0 -110 -58 -172q-74 -82 -187 -82q-105 0 -173 68q-47 47 -59 101.5t-12 192.5t12 192.5t59 101.5q68 68 173 68q65 0 113 -24t99 -75l-36 -36q-46 46 -83 66.5t-93 20.5q-80 0 -135 -55q-36 -36 -45.5 -86.5t-9.5 -172.5t9.5 -172.5t45.5 -86.5q55 -55 135 -55
q91 0 148 69q43 53 43 141v64h-191v48h245v-116zM388 -133q0 -41 -27.5 -67.5t-72.5 -26.5v37q25 0 42 16.5t17 40.5t-17 40.5t-42 16.5v37q45 0 72.5 -26.5t27.5 -67.5z" />
    <glyph glyph-name="gcommaaccent.ss01" horiz-adv-x="540" 
d="M443 -27q0 -93 -52.5 -151t-144.5 -58q-52 0 -86 14.5t-73 49.5l34 34q32 -29 57 -41t68 -12q73 0 109.5 45.5t36.5 121.5v86q-30 -39 -64 -53.5t-79 -14.5q-76 0 -118 42q-62 62 -62 205t62 205q42 42 118 42q45 0 79 -14.5t64 -53.5v62h51v-509zM392 241q0 43 -5 75
t-18.5 63t-42 47.5t-70.5 16.5t-70.5 -16.5t-42 -47.5t-18.5 -63t-5 -75t5 -75t18.5 -63t42 -47.5t70.5 -16.5t70.5 16.5t42 47.5t18.5 63t5 75zM314 549q-45 0 -72.5 26.5t-27.5 67.5t27.5 67.5t72.5 26.5v-37q-25 0 -42 -16.5t-17 -40.5t17 -40.5t42 -16.5v-37z" />
    <glyph glyph-name="Iogonek.ss01" horiz-adv-x="274" 
d="M164 0h-54v712h54v-712zM176 -227q-45 0 -72.5 26.5t-27.5 67.5t27.5 67.5t72.5 26.5v-37q-25 0 -42 -16.5t-17 -40.5t17 -40.5t42 -16.5v-37z" />
    <glyph glyph-name="iogonek.ss01" horiz-adv-x="245" 
d="M148 0h-51v482h51v-482zM160 681q0 -16 -11 -27t-26 -11q-16 0 -27 11t-11 26q0 16 11 27t26 11q16 0 27 -11t11 -26zM161 -221q-45 0 -72.5 26.5t-27.5 67.5t27.5 67.5t72.5 26.5v-37q-25 0 -42 -16.5t-17 -40.5t17 -40.5t42 -16.5v-37z" />
    <glyph glyph-name="Idotaccent.ss01" horiz-adv-x="274" 
d="M164 0h-54v712h54v-712zM174 830q0 -16 -11 -27t-26 -11q-16 0 -27 11t-11 26q0 16 11 27t26 11q16 0 27 -11t11 -26z" />
    <glyph glyph-name="ij.ss01" horiz-adv-x="490" 
d="M148 0h-51v482h51v-482zM160 681q0 -16 -11 -27t-26 -11q-16 0 -27 11t-11 26q0 16 11 27t26 11q16 0 27 -11t11 -26zM393 -105q0 -58 -29.5 -91.5t-86.5 -33.5h-44v45h35q41 0 57.5 19.5t16.5 61.5v586h51v-587zM405 681q0 -16 -11 -27t-26 -11q-16 0 -27 11t-11 26
q0 16 11 27t26 11q16 0 27 -11t11 -26z" />
    <glyph glyph-name="Kcommaaccent.ss01" horiz-adv-x="645" 
d="M627 0h-64l-229 399l-170 -206v-193h-54v712h54v-445l361 445h65l-220 -272zM398 -133q0 -41 -27.5 -67.5t-72.5 -26.5v37q25 0 42 16.5t17 40.5t-17 40.5t-42 16.5v37q45 0 72.5 -26.5t27.5 -67.5z" />
    <glyph glyph-name="kcommaaccent.ss01" horiz-adv-x="527" 
d="M487 0h-63l-166 265l-110 -127v-138h-51v712h51v-502l239 272h65l-159 -180zM323 -133q0 -41 -27.5 -67.5t-72.5 -26.5v37q25 0 42 16.5t17 40.5t-17 40.5t-42 16.5v37q45 0 72.5 -26.5t27.5 -67.5z" />
    <glyph glyph-name="Lcommaaccent.ss01" horiz-adv-x="572" 
d="M542 0h-432v712h54v-664h378v-48zM384 -133q0 -41 -27.5 -67.5t-72.5 -26.5v37q25 0 42 16.5t17 40.5t-17 40.5t-42 16.5v37q45 0 72.5 -26.5t27.5 -67.5z" />
    <glyph glyph-name="lcommaaccent.ss01" horiz-adv-x="287" 
d="M255 0h-44q-58 0 -87 33t-29 92v587h51v-586q0 -43 16.5 -62t57.5 -19h35v-45zM236 -133q0 -41 -27.5 -67.5t-72.5 -26.5v37q25 0 42 16.5t17 40.5t-17 40.5t-42 16.5v37q45 0 72.5 -26.5t27.5 -67.5z" />
    <glyph glyph-name="Lcaron.ss01" horiz-adv-x="572" 
d="M542 0h-432v712h54v-664h378v-48zM348 584l-53 -56v184h53v-128z" />
    <glyph glyph-name="lcaron.ss01" horiz-adv-x="287" 
d="M255 0h-44q-58 0 -87 33t-29 92v587h51v-586q0 -43 16.5 -62t57.5 -19h35v-45zM299 584l-53 -56v184h53v-128z" />
    <glyph glyph-name="Ldot.ss01" horiz-adv-x="572" 
d="M465 359q0 -16 -11 -27t-26 -11q-16 0 -27 11t-11 26q0 16 11 27t26 11q16 0 27 -11t11 -26zM542 0h-432v712h54v-664h378v-48z" />
    <glyph glyph-name="ldot.ss01" horiz-adv-x="291" 
d="M304 264q0 -16 -11 -27t-26 -11q-16 0 -27 11t-11 26q0 16 11 27t26 11q16 0 27 -11t11 -26zM255 0h-44q-58 0 -87 33t-29 92v587h51v-586q0 -43 16.5 -62t57.5 -19h35v-45z" />
    <glyph glyph-name="Ncommaaccent.ss01" horiz-adv-x="739" 
d="M629 0h-54l-411 619v-619h-54v712h54l411 -617v617h54v-712zM413 -133q0 -41 -27.5 -67.5t-72.5 -26.5v37q25 0 42 16.5t17 40.5t-17 40.5t-42 16.5v37q45 0 72.5 -26.5t27.5 -67.5z" />
    <glyph glyph-name="ncommaaccent.ss01" horiz-adv-x="559" 
d="M468 0h-51v299q0 70 -34 107t-99 37t-100.5 -37.5t-35.5 -106.5v-299h-51v482h51v-57q54 63 142 63q81 0 128 -46q50 -48 50 -134v-308zM351 -133q0 -41 -27.5 -67.5t-72.5 -26.5v37q25 0 42 16.5t17 40.5t-17 40.5t-42 16.5v37q45 0 72.5 -26.5t27.5 -67.5z" />
    </font>
</defs>
</svg>
